SplineFontDB: 3.2
FontName: BibleRomanCondensedItalic
FullName: Bible Roman Condensed Italic
FamilyName: Bible Roman Condensed
Weight: Book
Copyright: 2002, Fredrick Nader. All rights reserved. apostrophe@apostrophiclab.com
Version: 1.0; December 2002
ItalicAngle: -13.2
UnderlinePosition: -150
UnderlineWidth: 40
Ascent: 819
Descent: 205
InvalidEm: 0
sfntRevision: 0x00010000
LayerCount: 2
Layer: 0 1 "Hinten" 1
Layer: 1 1 "Vorne" 0
XUID: [1021 256 -1967491057 23999]
StyleMap: 0x0001
FSType: 0
OS2Version: 2
OS2_WeightWidthSlopeOnly: 0
OS2_UseTypoMetrics: 0
CreationTime: 1039457615
ModificationTime: 1771251413
PfmFamily: 17
TTFWeight: 400
TTFWidth: 2
LineGap: 28
VLineGap: 0
Panose: 2 2 5 0 6 4 11 2 4 3
OS2TypoAscent: 816
OS2TypoAOffset: 0
OS2TypoDescent: -281
OS2TypoDOffset: 0
OS2TypoLinegap: 54
OS2WinAscent: 1026
OS2WinAOffset: 0
OS2WinDescent: 298
OS2WinDOffset: 0
HheadAscent: 1026
HheadAOffset: 0
HheadDescent: -298
HheadDOffset: 0
OS2SubXSize: 717
OS2SubYSize: 666
OS2SubXOff: 0
OS2SubYOff: 143
OS2SupXSize: 717
OS2SupYSize: 666
OS2SupXOff: 0
OS2SupYOff: 488
OS2StrikeYSize: 51
OS2StrikeYPos: 256
OS2FamilyClass: 258
OS2Vendor: 'APOS'
OS2CodePages: 20000111.00000000
OS2UnicodeRanges: 80000027.4000004a.00000000.00000000
Lookup: 1 0 0 "'smcp' Gemeine in Kapit+AOQA-lchen in Lateinisch Nachschlagetabelle 0" { "'smcp' Gemeine in Kapit+AOQA-lchen in Lateinisch Nachschlagetabelle 0 Subtabelle"  } ['smcp' ('latn' <'dflt' > ) ]
Lookup: 1 0 0 "'c2sc' Versalien in Kapit+AOQA-lchen in Lateinisch Nachschlagetabelle 0" { "'c2sc' Versalien in Kapit+AOQA-lchen in Lateinisch Nachschlagetabelle 0 Subtabelle"  } ['c2sc' ('latn' <'dflt' > ) ]
Lookup: 258 0 0 "'kern' Horizontale Unterschneidung in Lateinisch Nachschlagetabelle 0" { "'kern' Horizontale Unterschneidung in Lateinisch Nachschlagetabelle 0 Subtabelle"  } ['kern' ('DFLT' <'dflt' > 'latn' <'dflt' > ) ]
MarkAttachClasses: 1
DEI: 91125
ShortTable: maxp 16
  1
  0
  248
  235
  7
  0
  0
  1
  0
  0
  0
  0
  0
  0
  0
  0
EndShort

StartChar: breve
Encoding: 5 5 4
Width: 291
Flags: W
LayerCount: 2
Fore
SplineSet
238.259765625 586 m 0,0,1
 248.16015625 586 248.16015625 586 258.389648438 592 c 128,-1,2
 268.620117188 598 268.620117188 598 277.200195312 609 c 128,-1,3
 285.780273438 620 285.780273438 620 292.049804688 633.5 c 128,-1,4
 298.3203125 647 298.3203125 647 300.959960938 664 c 1,5,-1
 326.700195312 664 l 1,6,7
 322.740234375 637 322.740234375 637 312.509765625 614.5 c 128,-1,8
 302.280273438 592 302.280273438 592 289.080078125 575 c 128,-1,9
 275.879882812 558 275.879882812 558 260.370117188 548.5 c 128,-1,10
 244.860351562 539 244.860351562 539 228.360351562 539 c 0,11,12
 225.719726562 539 225.719726562 539 223.080078125 541 c 0,13,14
 211.200195312 542 211.200195312 542 200.969726562 553.5 c 128,-1,15
 190.740234375 565 190.740234375 565 184.139648438 583 c 128,-1,16
 177.540039062 601 177.540039062 601 175.23046875 622 c 128,-1,17
 172.919921875 643 172.919921875 643 175.559570312 664 c 1,18,-1
 204.599609375 664 l 1,19,20
 203.280273438 651 203.280273438 651 204.9296875 637.5 c 128,-1,21
 206.580078125 624 206.580078125 624 210.540039062 613 c 128,-1,22
 214.5 602 214.5 602 220.76953125 595 c 128,-1,23
 227.040039062 588 227.040039062 588 234.299804688 587 c 0,24,25
 235.620117188 586 235.620117188 586 238.259765625 586 c 0,0,1
EndSplineSet
EndChar

StartChar: dotaccent
Encoding: 6 6 5
Width: 280
Flags: W
LayerCount: 2
Fore
SplineSet
288.419921875 638 m 0,0,1
 284.459960938 610 284.459960938 610 268.950195312 590.5 c 128,-1,2
 253.440429688 571 253.440429688 571 236.280273438 571 c 0,3,4
 233.639648438 571 233.639648438 571 233.639648438 572 c 0,5,6
 227.040039062 573 227.040039062 573 221.759765625 580 c 128,-1,7
 216.48046875 587 216.48046875 587 213.1796875 596.5 c 128,-1,8
 209.879882812 606 209.879882812 606 208.889648438 618 c 128,-1,9
 207.900390625 630 207.900390625 630 209.219726562 641 c 0,10,11
 212.51953125 665 212.51953125 665 227.370117188 684 c 128,-1,12
 242.219726562 703 242.219726562 703 256.080078125 703 c 0,13,14
 272.580078125 703 272.580078125 703 282.48046875 684 c 128,-1,15
 292.379882812 665 292.379882812 665 288.419921875 638 c 0,0,1
EndSplineSet
EndChar

StartChar: ring
Encoding: 8 8 6
Width: 286
Flags: W
LayerCount: 2
Fore
SplineSet
281.16015625 635 m 256,0,1
 285.120117188 661 285.120117188 661 276.540039062 678.5 c 128,-1,2
 267.959960938 696 267.959960938 696 252.780273438 696 c 0,3,4
 239.580078125 696 239.580078125 696 226.379882812 679 c 128,-1,5
 213.1796875 662 213.1796875 662 209.219726562 639 c 0,6,7
 207.900390625 629 207.900390625 629 208.889648438 618 c 128,-1,8
 209.879882812 607 209.879882812 607 213.1796875 598 c 128,-1,9
 216.48046875 589 216.48046875 589 221.099609375 583 c 128,-1,10
 225.719726562 577 225.719726562 577 231.66015625 575 c 0,11,12
 232.3203125 574 232.3203125 574 234.299804688 574 c 0,13,14
 250.139648438 574 250.139648438 574 263.669921875 591.5 c 128,-1,15
 277.200195312 609 277.200195312 609 281.16015625 635 c 256,0,1
301.620117188 635 m 0,16,17
 298.3203125 615 298.3203125 615 291.059570312 597.5 c 128,-1,18
 283.799804688 580 283.799804688 580 273.5703125 567 c 128,-1,19
 263.33984375 554 263.33984375 554 251.129882812 546.5 c 128,-1,20
 238.919921875 539 238.919921875 539 227.040039062 539 c 0,21,22
 223.080078125 539 223.080078125 539 222.419921875 541 c 0,23,24
 212.51953125 542 212.51953125 542 204.9296875 551.5 c 128,-1,25
 197.33984375 561 197.33984375 561 192.719726562 575.5 c 128,-1,26
 188.099609375 590 188.099609375 590 186.450195312 607 c 128,-1,27
 184.799804688 624 184.799804688 624 187.440429688 640 c 0,28,29
 190.080078125 657 190.080078125 657 196.6796875 673.5 c 128,-1,30
 203.280273438 690 203.280273438 690 213.1796875 703 c 128,-1,31
 223.080078125 716 223.080078125 716 233.969726562 723.5 c 128,-1,32
 244.860351562 731 244.860351562 731 255.419921875 731 c 0,33,34
 282.48046875 731 282.48046875 731 295.01953125 703.5 c 128,-1,35
 307.559570312 676 307.559570312 676 301.620117188 635 c 0,16,17
EndSplineSet
EndChar

StartChar: hungarumlaut
Encoding: 10 10 7
Width: 322
Flags: W
LayerCount: 2
Fore
SplineSet
266.639648438 718 m 0,0,1
 269.280273438 713 269.280273438 713 271.259765625 711.5 c 128,-1,2
 273.240234375 710 273.240234375 710 274.559570312 708 c 128,-1,3
 275.879882812 706 275.879882812 706 278.190429688 702.5 c 128,-1,4
 280.5 699 280.5 699 285.120117188 693 c 0,5,6
 289.740234375 690 289.740234375 690 288.08984375 682.5 c 128,-1,7
 286.440429688 675 286.440429688 675 283.139648438 671 c 0,8,9
 277.860351562 663 277.860351562 663 263.009765625 639.5 c 128,-1,10
 248.16015625 616 248.16015625 616 231.66015625 591 c 128,-1,11
 215.16015625 566 215.16015625 566 200.969726562 545.5 c 128,-1,12
 186.780273438 525 186.780273438 525 183.48046875 522 c 0,13,14
 176.879882812 516 176.879882812 516 172.919921875 521.5 c 128,-1,15
 168.959960938 527 168.959960938 527 174.240234375 539 c 0,16,17
 179.51953125 552 179.51953125 552 190.080078125 576 c 128,-1,18
 200.639648438 600 200.639648438 600 212.190429688 626 c 128,-1,19
 223.740234375 652 223.740234375 652 234.629882812 675.5 c 128,-1,20
 245.51953125 699 245.51953125 699 251.459960938 712 c 0,21,22
 255.419921875 720 255.419921875 720 258.719726562 722 c 128,-1,23
 262.01953125 724 262.01953125 724 266.639648438 718 c 0,0,1
350.459960938 718 m 0,24,25
 353.099609375 713 353.099609375 713 355.080078125 711.5 c 128,-1,26
 357.059570312 710 357.059570312 710 358.379882812 708 c 128,-1,27
 359.700195312 706 359.700195312 706 362.009765625 702.5 c 128,-1,28
 364.3203125 699 364.3203125 699 368.940429688 693 c 0,29,30
 373.559570312 690 373.559570312 690 371.91015625 682.5 c 128,-1,31
 370.259765625 675 370.259765625 675 366.959960938 671 c 0,32,33
 361.6796875 663 361.6796875 663 346.5 639.5 c 128,-1,34
 331.3203125 616 331.3203125 616 315.150390625 591 c 128,-1,35
 298.98046875 566 298.98046875 566 284.790039062 545.5 c 128,-1,36
 270.599609375 525 270.599609375 525 266.639648438 522 c 0,37,38
 260.040039062 516 260.040039062 516 256.41015625 521.5 c 128,-1,39
 252.780273438 527 252.780273438 527 258.059570312 539 c 0,40,41
 263.33984375 552 263.33984375 552 273.900390625 576 c 128,-1,42
 284.459960938 600 284.459960938 600 296.009765625 626 c 128,-1,43
 307.559570312 652 307.559570312 652 318.450195312 675.5 c 128,-1,44
 329.33984375 699 329.33984375 699 335.280273438 712 c 0,45,46
 339.240234375 720 339.240234375 720 342.540039062 722 c 128,-1,47
 345.83984375 724 345.83984375 724 350.459960938 718 c 0,24,25
EndSplineSet
EndChar

StartChar: ogonek
Encoding: 11 11 8
Width: 293
Flags: W
LayerCount: 2
Fore
SplineSet
166.3203125 -46 m 0,0,1
 172.259765625 -20 172.259765625 -20 183.150390625 -2.5 c 128,-1,2
 194.040039062 15 194.040039062 15 207.240234375 25.5 c 128,-1,3
 220.440429688 36 220.440429688 36 235.290039062 39.5 c 128,-1,4
 250.139648438 43 250.139648438 43 263.33984375 40 c 0,5,6
 265.3203125 39 265.3203125 39 264.990234375 33.5 c 128,-1,7
 264.66015625 28 264.66015625 28 257.400390625 1 c 1,8,9
 252.120117188 2 252.120117188 2 244.200195312 -2 c 128,-1,10
 236.280273438 -6 236.280273438 -6 229.349609375 -13 c 128,-1,11
 222.419921875 -20 222.419921875 -20 216.48046875 -30.5 c 128,-1,12
 210.540039062 -41 210.540039062 -41 207.900390625 -51 c 0,13,14
 202.620117188 -75 202.620117188 -75 207.900390625 -95 c 128,-1,15
 213.1796875 -115 213.1796875 -115 236.940429688 -116 c 0,16,17
 250.139648438 -117 250.139648438 -117 262.6796875 -115 c 128,-1,18
 275.219726562 -113 275.219726562 -113 291.719726562 -106 c 1,19,20
 293.700195312 -112 293.700195312 -112 293.370117188 -117.5 c 128,-1,21
 293.040039062 -123 293.040039062 -123 292.379882812 -131 c 1,22,23
 276.540039062 -140 276.540039062 -140 260.370117188 -149 c 128,-1,24
 244.200195312 -158 244.200195312 -158 228.360351562 -159 c 0,25,26
 210.540039062 -160 210.540039062 -160 196.349609375 -151.5 c 128,-1,27
 182.16015625 -143 182.16015625 -143 173.91015625 -128 c 128,-1,28
 165.66015625 -113 165.66015625 -113 163.349609375 -92 c 128,-1,29
 161.040039062 -71 161.040039062 -71 166.3203125 -46 c 0,0,1
EndSplineSet
EndChar

StartChar: caron
Encoding: 12 12 9
Width: 262
Flags: W
LayerCount: 2
Fore
SplineSet
312.1796875 716 m 0,0,1
 316.139648438 716 316.139648438 716 314.8203125 709 c 0,2,3
 314.16015625 706 314.16015625 706 308.219726562 691.5 c 128,-1,4
 302.280273438 677 302.280273438 677 292.709960938 657.5 c 128,-1,5
 283.139648438 638 283.139648438 638 271.58984375 615.5 c 128,-1,6
 260.040039062 593 260.040039062 593 250.139648438 573.5 c 128,-1,7
 240.240234375 554 240.240234375 554 231.990234375 539.5 c 128,-1,8
 223.740234375 525 223.740234375 525 220.440429688 522 c 1,9,10
 215.8203125 527 215.8203125 527 215.8203125 530 c 0,11,12
 205.259765625 579 205.259765625 579 195.030273438 623 c 128,-1,13
 184.799804688 667 184.799804688 667 181.5 705 c 0,14,15
 181.5 711 181.5 711 181.5 713 c 0,16,17
 182.8203125 721 182.8203125 721 188.759765625 720 c 0,18,19
 191.400390625 719 191.400390625 719 196.6796875 704 c 128,-1,20
 201.959960938 689 201.959960938 689 208.23046875 669.5 c 128,-1,21
 214.5 650 214.5 650 221.099609375 632 c 128,-1,22
 227.700195312 614 227.700195312 614 233.639648438 607 c 1,23,24
 241.559570312 614 241.559570312 614 252.780273438 632 c 128,-1,25
 264 650 264 650 274.889648438 668.5 c 128,-1,26
 285.780273438 687 285.780273438 687 296.009765625 701.5 c 128,-1,27
 306.240234375 716 306.240234375 716 312.1796875 716 c 0,0,1
EndSplineSet
EndChar

StartChar: dotlessi
Encoding: 13 13 10
Width: 194
Flags: W
LayerCount: 2
Fore
SplineSet
172.259765625 5 m 0,0,1
 170.280273438 -6 170.280273438 -6 164.009765625 -7 c 128,-1,2
 157.740234375 -8 157.740234375 -8 152.459960938 -8 c 0,3,4
 141.240234375 -8 141.240234375 -8 130.6796875 -5.5 c 128,-1,5
 120.120117188 -3 120.120117188 -3 109.559570312 -3 c 0,6,7
 93.0595703125 -3 93.0595703125 -3 75.900390625 -5.5 c 128,-1,8
 58.740234375 -8 58.740234375 -8 42.900390625 -8 c 2,9,-1
 34.98046875 -8 l 2,10,11
 30.3603515625 -8 30.3603515625 -8 26.400390625 -6 c 128,-1,12
 22.4404296875 -4 22.4404296875 -4 23.759765625 7 c 0,13,14
 24.419921875 10 24.419921875 10 26.0703125 12 c 128,-1,15
 27.7197265625 14 27.7197265625 14 29.0400390625 16 c 0,16,17
 35.6396484375 23 35.6396484375 23 43.23046875 25 c 128,-1,18
 50.8203125 27 50.8203125 27 57.75 28.5 c 128,-1,19
 64.6796875 30 64.6796875 30 71.2802734375 35.5 c 128,-1,20
 77.8798828125 41 77.8798828125 41 81.83984375 57 c 0,21,22
 84.48046875 67 84.48046875 67 85.1396484375 72 c 2,23,-1
 87.7802734375 87 l 2,24,25
 93.0595703125 120 93.0595703125 120 97.6796875 151 c 128,-1,26
 102.299804688 182 102.299804688 182 107.580078125 215 c 0,27,28
 111.540039062 240 111.540039062 240 116.16015625 264 c 128,-1,29
 120.780273438 288 120.780273438 288 124.740234375 312 c 0,30,31
 126.719726562 324 126.719726562 324 128.700195312 341.5 c 128,-1,32
 130.6796875 359 130.6796875 359 127.379882812 370 c 0,33,34
 125.400390625 376 125.400390625 376 120.120117188 380 c 128,-1,35
 114.83984375 384 114.83984375 384 109.889648438 387.5 c 128,-1,36
 104.940429688 391 104.940429688 391 101.309570312 394.5 c 128,-1,37
 97.6796875 398 97.6796875 398 99 403 c 256,38,39
 99.66015625 408 99.66015625 408 103.950195312 412.5 c 128,-1,40
 108.240234375 417 108.240234375 417 114.1796875 420.5 c 128,-1,41
 120.120117188 424 120.120117188 424 125.73046875 426.5 c 128,-1,42
 131.33984375 429 131.33984375 429 133.98046875 430 c 0,43,44
 138.599609375 432 138.599609375 432 147.83984375 439 c 128,-1,45
 157.080078125 446 157.080078125 446 166.650390625 454 c 128,-1,46
 176.219726562 462 176.219726562 462 184.139648438 468 c 128,-1,47
 192.059570312 474 192.059570312 474 194.700195312 474 c 0,48,49
 198.66015625 474 198.66015625 474 197.33984375 469 c 0,50,51
 195.360351562 454 195.360351562 454 192.719726562 439 c 128,-1,52
 190.080078125 424 190.080078125 424 186.780273438 409 c 0,53,54
 181.5 378 181.5 378 176.549804688 346.5 c 128,-1,55
 171.599609375 315 171.599609375 315 166.98046875 285 c 0,56,57
 161.040039062 247 161.040039062 247 155.4296875 209.5 c 128,-1,58
 149.8203125 172 149.8203125 172 145.200195312 134 c 0,59,60
 142.559570312 117 142.559570312 117 139.58984375 99 c 128,-1,61
 136.620117188 81 136.620117188 81 135.299804688 63 c 0,62,63
 133.3203125 41 133.3203125 41 139.259765625 34.5 c 128,-1,64
 145.200195312 28 145.200195312 28 153.450195312 25.5 c 128,-1,65
 161.700195312 23 161.700195312 23 167.969726562 20 c 128,-1,66
 174.240234375 17 174.240234375 17 172.259765625 5 c 0,0,1
EndSplineSet
EndChar

StartChar: fraction
Encoding: 25 25 11
Width: 170
Flags: W
LayerCount: 2
Fore
SplineSet
363.66015625 662 m 1,0,1
 339.240234375 619 339.240234375 619 313.5 578.5 c 128,-1,2
 287.759765625 538 287.759765625 538 261.360351562 497 c 0,3,4
 183.48046875 374 183.48046875 374 106.919921875 254 c 128,-1,5
 30.3603515625 134 30.3603515625 134 -44.8798828125 7 c 1,6,7
 -47.51953125 9 -47.51953125 9 -54.1201171875 18.5 c 128,-1,8
 -60.7197265625 28 -60.7197265625 28 -73.919921875 36 c 1,9,10
 27.7197265625 202 27.7197265625 202 129.690429688 361.5 c 128,-1,11
 231.66015625 521 231.66015625 521 333.299804688 690 c 1,12,13
 339.900390625 690 339.900390625 690 348.809570312 679 c 128,-1,14
 357.719726562 668 357.719726562 668 363.66015625 662 c 1,0,1
EndSplineSet
EndChar

StartChar: fi
Encoding: 26 26 12
Width: 382
Flags: W
LayerCount: 2
Fore
SplineSet
359.700195312 5 m 0,0,1
 357.719726562 -6 357.719726562 -6 350.790039062 -7 c 128,-1,2
 343.860351562 -8 343.860351562 -8 339.900390625 -8 c 0,3,4
 328.6796875 -8 328.6796875 -8 318.120117188 -5.5 c 128,-1,5
 307.559570312 -3 307.559570312 -3 297 -3 c 0,6,7
 280.5 -3 280.5 -3 263.009765625 -5.5 c 128,-1,8
 245.51953125 -8 245.51953125 -8 229.01953125 -8 c 2,9,-1
 222.419921875 -8 l 2,10,11
 217.799804688 -8 217.799804688 -8 213.1796875 -6 c 128,-1,12
 208.559570312 -4 208.559570312 -4 210.540039062 7 c 0,13,14
 211.200195312 10 211.200195312 10 212.849609375 12 c 128,-1,15
 214.5 14 214.5 14 215.8203125 16 c 0,16,17
 222.419921875 23 222.419921875 23 230.009765625 25 c 128,-1,18
 237.599609375 27 237.599609375 27 244.860351562 28.5 c 128,-1,19
 252.120117188 30 252.120117188 30 258.059570312 35.5 c 128,-1,20
 264 41 264 41 268.620117188 57 c 0,21,22
 271.259765625 67 271.259765625 67 272.580078125 72 c 2,23,-1
 274.559570312 87 l 2,24,25
 279.83984375 120 279.83984375 120 284.459960938 151 c 128,-1,26
 289.080078125 182 289.080078125 182 294.360351562 215 c 0,27,28
 298.3203125 240 298.3203125 240 303.26953125 264 c 128,-1,29
 308.219726562 288 308.219726562 288 311.51953125 312 c 0,30,31
 314.16015625 328 314.16015625 328 315.150390625 344.5 c 128,-1,32
 316.139648438 361 316.139648438 361 313.830078125 374.5 c 128,-1,33
 311.51953125 388 311.51953125 388 305.25 397 c 128,-1,34
 298.98046875 406 298.98046875 406 285.780273438 407 c 2,35,-1
 220.440429688 407 l 2,36,37
 205.259765625 407 205.259765625 407 193.709960938 406.5 c 128,-1,38
 182.16015625 406 182.16015625 406 178.200195312 406 c 1,39,40
 172.919921875 399 172.919921875 399 170.940429688 383.5 c 128,-1,41
 168.959960938 368 168.959960938 368 167.639648438 358 c 0,42,43
 157.080078125 287 157.080078125 287 146.190429688 220 c 128,-1,44
 135.299804688 153 135.299804688 153 124.080078125 82 c 0,45,46
 120.780273438 59 120.780273438 59 123.419921875 48 c 128,-1,47
 126.059570312 37 126.059570312 37 132.330078125 31.5 c 128,-1,48
 138.599609375 26 138.599609375 26 147.83984375 24.5 c 128,-1,49
 157.080078125 23 157.080078125 23 167.639648438 19 c 0,50,51
 169.620117188 15 169.620117188 15 168.299804688 8 c 256,52,53
 166.98046875 1 166.98046875 1 163.6796875 -1 c 1,54,-1
 162.360351562 -4 l 1,55,56
 157.740234375 -8 157.740234375 -8 149.8203125 -8 c 0,57,58
 137.940429688 -8 137.940429688 -8 126.389648438 -5 c 128,-1,59
 114.83984375 -2 114.83984375 -2 103.620117188 -2 c 0,60,61
 85.1396484375 -2 85.1396484375 -2 66.330078125 -5 c 128,-1,62
 47.51953125 -8 47.51953125 -8 29.0400390625 -8 c 0,63,64
 25.740234375 -8 25.740234375 -8 19.4697265625 -7 c 128,-1,65
 13.2001953125 -6 13.2001953125 -6 14.51953125 2 c 0,66,67
 16.5 16 16.5 16 24.419921875 19.5 c 128,-1,68
 32.33984375 23 32.33984375 23 42.5703125 26.5 c 128,-1,69
 52.7998046875 30 52.7998046875 30 62.0400390625 40.5 c 128,-1,70
 71.2802734375 51 71.2802734375 51 75.900390625 81 c 2,71,-1
 120.120117188 375 l 2,72,73
 122.099609375 388 122.099609375 388 122.099609375 402 c 1,74,75
 106.919921875 405 106.919921875 405 93.0595703125 406 c 0,76,77
 88.4404296875 406 88.4404296875 406 82.5 408 c 128,-1,78
 76.5595703125 410 76.5595703125 410 78.5400390625 421 c 0,79,80
 79.2001953125 425 79.2001953125 425 80.1904296875 430.5 c 128,-1,81
 81.1796875 436 81.1796875 436 83.16015625 440 c 0,82,83
 85.7998046875 445 85.7998046875 445 92.400390625 447.5 c 128,-1,84
 99 450 99 450 106.259765625 451.5 c 128,-1,85
 113.51953125 453 113.51953125 453 120.780273438 454 c 128,-1,86
 128.040039062 455 128.040039062 455 132.66015625 458 c 1,87,88
 140.580078125 498 140.580078125 498 147.1796875 539.5 c 128,-1,89
 153.780273438 581 153.780273438 581 166.3203125 620 c 0,90,91
 177.540039062 659 177.540039062 659 194.700195312 694 c 128,-1,92
 211.860351562 729 211.860351562 729 232.3203125 755.5 c 128,-1,93
 252.780273438 782 252.780273438 782 276.870117188 797.5 c 128,-1,94
 300.959960938 813 300.959960938 813 326.700195312 812 c 0,95,96
 339.900390625 812 339.900390625 812 352.76953125 809 c 128,-1,97
 365.639648438 806 365.639648438 806 375.209960938 797 c 128,-1,98
 384.780273438 788 384.780273438 788 389.400390625 774 c 128,-1,99
 394.01953125 760 394.01953125 760 391.379882812 738 c 0,100,101
 391.379882812 726 391.379882812 726 385.440429688 714.5 c 128,-1,102
 379.5 703 379.5 703 371.580078125 696.5 c 128,-1,103
 363.66015625 690 363.66015625 690 355.740234375 689 c 128,-1,104
 347.8203125 688 347.8203125 688 343.860351562 695 c 0,105,106
 340.559570312 699 340.559570312 699 340.23046875 710.5 c 128,-1,107
 339.900390625 722 339.900390625 722 335.610351562 732.5 c 128,-1,108
 331.3203125 743 331.3203125 743 320.099609375 752 c 128,-1,109
 308.879882812 761 308.879882812 761 283.799804688 761 c 0,110,111
 270.599609375 761 270.599609375 761 259.379882812 747.5 c 128,-1,112
 248.16015625 734 248.16015625 734 238.58984375 713 c 128,-1,113
 229.01953125 692 229.01953125 692 221.4296875 665.5 c 128,-1,114
 213.83984375 639 213.83984375 639 207.5703125 612 c 128,-1,115
 201.299804688 585 201.299804688 585 197.009765625 560.5 c 128,-1,116
 192.719726562 536 192.719726562 536 190.080078125 518 c 2,117,-1
 188.099609375 504 l 2,118,119
 186.120117188 492 186.120117188 492 183.48046875 475 c 128,-1,120
 180.83984375 458 180.83984375 458 184.139648438 453 c 1,121,-1
 328.01953125 453 l 2,122,123
 337.919921875 453 337.919921875 453 346.830078125 457.5 c 128,-1,124
 355.740234375 462 355.740234375 462 363 467 c 128,-1,125
 370.259765625 472 370.259765625 472 374.879882812 474.5 c 128,-1,126
 379.5 477 379.5 477 381.48046875 474 c 0,127,128
 382.139648438 472 382.139648438 472 383.459960938 471.5 c 128,-1,129
 384.780273438 471 384.780273438 471 384.120117188 469 c 0,130,131
 382.139648438 454 382.139648438 454 379.169921875 439 c 128,-1,132
 376.200195312 424 376.200195312 424 373.559570312 409 c 0,133,134
 368.280273438 378 368.280273438 378 363.330078125 346.5 c 128,-1,135
 358.379882812 315 358.379882812 315 353.759765625 285 c 0,136,137
 347.8203125 247 347.8203125 247 342.540039062 209.5 c 128,-1,138
 337.259765625 172 337.259765625 172 331.98046875 134 c 0,139,140
 329.33984375 117 329.33984375 117 326.040039062 99 c 128,-1,141
 322.740234375 81 322.740234375 81 321.419921875 63 c 0,142,143
 319.440429688 41 319.440429688 41 325.709960938 34.5 c 128,-1,144
 331.98046875 28 331.98046875 28 339.900390625 25.5 c 128,-1,145
 347.8203125 23 347.8203125 23 354.75 20 c 128,-1,146
 361.6796875 17 361.6796875 17 359.700195312 5 c 0,0,1
EndSplineSet
EndChar

StartChar: fl
Encoding: 27 27 13
Width: 385
Flags: W
LayerCount: 2
Fore
SplineSet
363 8 m 0,0,1
 361.01953125 -3 361.01953125 -3 355.080078125 -6 c 0,2,3
 354.419921875 -7 354.419921875 -7 351.120117188 -7 c 2,4,-1
 348.48046875 -7 l 2,5,6
 333.959960938 -7 333.959960938 -7 319.76953125 -4.5 c 128,-1,7
 305.580078125 -2 305.580078125 -2 291.059570312 -2 c 0,8,9
 272.580078125 -2 272.580078125 -2 254.4296875 -5 c 128,-1,10
 236.280273438 -8 236.280273438 -8 218.459960938 -8 c 0,11,12
 215.16015625 -8 215.16015625 -8 209.219726562 -6.5 c 128,-1,13
 203.280273438 -5 203.280273438 -5 203.940429688 3 c 0,14,15
 205.919921875 16 205.919921875 16 210.209960938 17.5 c 128,-1,16
 214.5 19 214.5 19 223.080078125 24 c 0,17,18
 234.299804688 29 234.299804688 29 244.860351562 35.5 c 128,-1,19
 255.419921875 42 255.419921875 42 262.6796875 60 c 0,20,21
 265.98046875 68 265.98046875 68 268.620117188 80.5 c 128,-1,22
 271.259765625 93 271.259765625 93 272.580078125 102 c 0,23,24
 293.700195312 240 293.700195312 240 314.16015625 374 c 128,-1,25
 334.620117188 508 334.620117188 508 356.400390625 646 c 0,26,27
 362.33984375 684 362.33984375 684 358.379882812 709.5 c 128,-1,28
 354.419921875 735 354.419921875 735 343.860351562 749 c 128,-1,29
 333.299804688 763 333.299804688 763 317.790039062 765.5 c 128,-1,30
 302.280273438 768 302.280273438 768 283.799804688 761 c 0,31,32
 262.01953125 753 262.01953125 753 246.509765625 723.5 c 128,-1,33
 231 694 231 694 219.780273438 657.5 c 128,-1,34
 208.559570312 621 208.559570312 621 201.299804688 582.5 c 128,-1,35
 194.040039062 544 194.040039062 544 190.080078125 518 c 2,36,-1
 188.099609375 504 l 2,37,38
 186.120117188 492 186.120117188 492 183.48046875 475 c 128,-1,39
 180.83984375 458 180.83984375 458 184.139648438 453 c 1,40,-1
 254.099609375 453 l 2,41,42
 262.01953125 453 262.01953125 453 264.66015625 446 c 0,43,44
 264 441 264 441 263.669921875 437 c 128,-1,45
 263.33984375 433 263.33984375 433 262.6796875 428 c 0,46,47
 260.700195312 417 260.700195312 417 256.740234375 409 c 0,48,49
 253.440429688 408 253.440429688 408 249.809570312 407.5 c 128,-1,50
 246.1796875 407 246.1796875 407 242.219726562 407 c 2,51,-1
 202.620117188 407 l 2,52,53
 196.6796875 407 196.6796875 407 190.740234375 407 c 0,54,55
 185.459960938 407 185.459960938 407 178.200195312 406 c 1,56,57
 172.919921875 399 172.919921875 399 170.940429688 383.5 c 128,-1,58
 168.959960938 368 168.959960938 368 167.639648438 358 c 0,59,60
 157.080078125 287 157.080078125 287 146.190429688 220 c 128,-1,61
 135.299804688 153 135.299804688 153 124.080078125 82 c 0,62,63
 120.780273438 59 120.780273438 59 123.419921875 48 c 128,-1,64
 126.059570312 37 126.059570312 37 132.330078125 31.5 c 128,-1,65
 138.599609375 26 138.599609375 26 147.83984375 24.5 c 128,-1,66
 157.080078125 23 157.080078125 23 167.639648438 19 c 0,67,68
 169.620117188 15 169.620117188 15 168.299804688 8 c 256,69,70
 166.98046875 1 166.98046875 1 163.6796875 -1 c 1,71,-1
 162.360351562 -4 l 1,72,73
 157.740234375 -8 157.740234375 -8 149.8203125 -8 c 0,74,75
 137.940429688 -8 137.940429688 -8 126.389648438 -5 c 128,-1,76
 114.83984375 -2 114.83984375 -2 103.620117188 -2 c 0,77,78
 85.1396484375 -2 85.1396484375 -2 66.330078125 -5 c 128,-1,79
 47.51953125 -8 47.51953125 -8 29.0400390625 -8 c 0,80,81
 25.740234375 -8 25.740234375 -8 19.4697265625 -7 c 128,-1,82
 13.2001953125 -6 13.2001953125 -6 14.51953125 2 c 0,83,84
 16.5 16 16.5 16 24.419921875 19.5 c 128,-1,85
 32.33984375 23 32.33984375 23 42.5703125 26.5 c 128,-1,86
 52.7998046875 30 52.7998046875 30 62.0400390625 40.5 c 128,-1,87
 71.2802734375 51 71.2802734375 51 75.900390625 81 c 2,88,-1
 120.120117188 375 l 2,89,90
 122.099609375 388 122.099609375 388 122.099609375 402 c 1,91,92
 106.919921875 405 106.919921875 405 93.0595703125 406 c 0,93,94
 88.4404296875 406 88.4404296875 406 82.5 408 c 128,-1,95
 76.5595703125 410 76.5595703125 410 78.5400390625 421 c 0,96,97
 79.2001953125 425 79.2001953125 425 80.1904296875 430.5 c 128,-1,98
 81.1796875 436 81.1796875 436 83.16015625 440 c 0,99,100
 85.7998046875 445 85.7998046875 445 92.400390625 447.5 c 128,-1,101
 99 450 99 450 106.259765625 451.5 c 128,-1,102
 113.51953125 453 113.51953125 453 120.780273438 454 c 128,-1,103
 128.040039062 455 128.040039062 455 132.66015625 458 c 1,104,105
 140.580078125 498 140.580078125 498 147.1796875 539.5 c 128,-1,106
 153.780273438 581 153.780273438 581 166.3203125 620 c 0,107,108
 177.540039062 659 177.540039062 659 194.700195312 694 c 128,-1,109
 211.860351562 729 211.860351562 729 232.3203125 755.5 c 128,-1,110
 252.780273438 782 252.780273438 782 276.870117188 797.5 c 128,-1,111
 300.959960938 813 300.959960938 813 326.700195312 812 c 0,112,113
 345.83984375 811 345.83984375 811 359.370117188 804.5 c 128,-1,114
 372.900390625 798 372.900390625 798 381.48046875 778 c 1,115,116
 396.66015625 786 396.66015625 786 408.540039062 793 c 0,117,118
 421.740234375 800 421.740234375 800 425.700195312 802 c 1,119,120
 429 798 429 798 428.33984375 798 c 1,121,122
 426.360351562 784 426.360351562 784 424.709960938 770.5 c 128,-1,123
 423.059570312 757 423.059570312 757 421.080078125 742 c 0,124,125
 395.33984375 574 395.33984375 574 369.9296875 410.5 c 128,-1,126
 344.51953125 247 344.51953125 247 318.780273438 79 c 0,127,128
 313.5 45 313.5 45 323.400390625 36.5 c 128,-1,129
 333.299804688 28 333.299804688 28 349.799804688 25 c 0,130,131
 350.459960938 23 350.459960938 23 352.440429688 23.5 c 128,-1,132
 354.419921875 24 354.419921875 24 355.740234375 24 c 0,133,134
 364.98046875 23 364.98046875 23 363 8 c 0,0,1
EndSplineSet
EndChar

StartChar: Lslash
Encoding: 28 28 14
Width: 392
Flags: W
LayerCount: 2
Fore
SplineSet
72.599609375 311 m 0,0,1
 72.599609375 314 72.599609375 314 76.8896484375 319 c 128,-1,2
 81.1796875 324 81.1796875 324 87.1201171875 328.5 c 128,-1,3
 93.0595703125 333 93.0595703125 333 99.66015625 337.5 c 128,-1,4
 106.259765625 342 106.259765625 342 110.219726562 345 c 0,5,6
 119.459960938 351 119.459960938 351 130.01953125 360 c 128,-1,7
 140.580078125 369 140.580078125 369 150.48046875 377 c 1,8,-1
 186.780273438 614 l 2,9,10
 190.740234375 640 190.740234375 640 191.400390625 660 c 0,11,12
 192.059570312 683 192.059570312 683 182.16015625 690.5 c 128,-1,13
 172.259765625 698 172.259765625 698 160.379882812 700.5 c 128,-1,14
 148.5 703 148.5 703 139.58984375 706 c 128,-1,15
 130.6796875 709 130.6796875 709 132.66015625 723 c 256,16,17
 134.639648438 737 134.639648438 737 141.900390625 739 c 128,-1,18
 149.16015625 741 149.16015625 741 157.080078125 741 c 0,19,20
 179.51953125 741 179.51953125 741 199.650390625 737.5 c 128,-1,21
 219.780273438 734 219.780273438 734 241.559570312 734 c 0,22,23
 264.66015625 734 264.66015625 734 286.110351562 736 c 128,-1,24
 307.559570312 738 307.559570312 738 333.959960938 738 c 1,25,26
 338.580078125 730 338.580078125 730 337.259765625 722 c 0,27,28
 335.280273438 710 335.280273438 710 327.360351562 706 c 128,-1,29
 319.440429688 702 319.440429688 702 309.209960938 700.5 c 128,-1,30
 298.98046875 699 298.98046875 699 288.75 697.5 c 128,-1,31
 278.51953125 696 278.51953125 696 271.259765625 688 c 0,32,33
 265.98046875 682 265.98046875 682 262.01953125 672 c 128,-1,34
 258.059570312 662 258.059570312 662 255.419921875 650.5 c 128,-1,35
 252.780273438 639 252.780273438 639 250.799804688 627.5 c 128,-1,36
 248.8203125 616 248.8203125 616 247.5 608 c 0,37,38
 240.900390625 562 240.900390625 562 233.639648438 517 c 128,-1,39
 226.379882812 472 226.379882812 472 219.120117188 426 c 1,40,41
 239.580078125 440 239.580078125 440 259.049804688 454.5 c 128,-1,42
 278.51953125 469 278.51953125 469 291.719726562 478 c 0,43,44
 295.01953125 480 295.01953125 480 297.330078125 463.5 c 128,-1,45
 299.639648438 447 299.639648438 447 302.940429688 427 c 0,46,47
 302.940429688 424 302.940429688 424 299.969726562 420.5 c 128,-1,48
 297 417 297 417 292.379882812 413 c 128,-1,49
 287.759765625 409 287.759765625 409 283.139648438 405.5 c 128,-1,50
 278.51953125 402 278.51953125 402 274.559570312 399 c 2,51,-1
 206.580078125 349 l 1,52,-1
 184.799804688 204 l 2,53,54
 182.16015625 186 182.16015625 186 178.860351562 163.5 c 128,-1,55
 175.559570312 141 175.559570312 141 173.91015625 121 c 128,-1,56
 172.259765625 101 172.259765625 101 172.259765625 85.5 c 128,-1,57
 172.259765625 70 172.259765625 70 175.559570312 63 c 0,58,59
 188.099609375 44 188.099609375 44 208.23046875 40 c 128,-1,60
 228.360351562 36 228.360351562 36 248.490234375 40.5 c 128,-1,61
 268.620117188 45 268.620117188 45 285.780273438 54 c 128,-1,62
 302.940429688 63 302.940429688 63 309.540039062 70 c 0,63,64
 320.759765625 79 320.759765625 79 335.280273438 102 c 128,-1,65
 349.799804688 125 349.799804688 125 363 150 c 128,-1,66
 376.200195312 175 376.200195312 175 386.099609375 195 c 128,-1,67
 396 215 396 215 398.639648438 218 c 0,68,69
 405.240234375 225 405.240234375 225 411.83984375 222.5 c 128,-1,70
 418.440429688 220 418.440429688 220 419.759765625 211 c 1,71,72
 397.98046875 170 397.98046875 170 382.799804688 129.5 c 128,-1,73
 367.620117188 89 367.620117188 89 357.389648438 57 c 128,-1,74
 347.16015625 25 347.16015625 25 340.889648438 5 c 128,-1,75
 334.620117188 -15 334.620117188 -15 330.66015625 -15 c 0,76,77
 289.740234375 -15 289.740234375 -15 246.509765625 -6 c 128,-1,78
 203.280273438 3 203.280273438 3 162.360351562 3 c 0,79,80
 141.240234375 3 141.240234375 3 125.73046875 1 c 128,-1,81
 110.219726562 -1 110.219726562 -1 95.7001953125 -3 c 128,-1,82
 81.1796875 -5 81.1796875 -5 65.33984375 -7 c 128,-1,83
 49.5 -9 49.5 -9 29.0400390625 -9 c 0,84,85
 25.080078125 -9 25.080078125 -9 23.4296875 -4 c 128,-1,86
 21.7802734375 1 21.7802734375 1 22.4404296875 7 c 0,87,88
 24.419921875 21 24.419921875 21 31.349609375 25 c 128,-1,89
 38.2802734375 29 38.2802734375 29 47.849609375 30 c 128,-1,90
 57.419921875 31 57.419921875 31 68.6396484375 33.5 c 128,-1,91
 79.8603515625 36 79.8603515625 36 90.419921875 49 c 0,92,93
 99.66015625 61 99.66015625 61 106.58984375 90 c 128,-1,94
 113.51953125 119 113.51953125 119 119.459960938 155 c 128,-1,95
 125.400390625 191 125.400390625 191 130.01953125 229.5 c 128,-1,96
 134.639648438 268 134.639648438 268 138.599609375 299 c 1,97,-1
 110.879882812 279 l 2,98,99
 108.240234375 277 108.240234375 277 102.629882812 273 c 128,-1,100
 97.01953125 269 97.01953125 269 91.740234375 266 c 128,-1,101
 86.4599609375 263 86.4599609375 263 82.830078125 261.5 c 128,-1,102
 79.2001953125 260 79.2001953125 260 79.2001953125 262 c 0,103,104
 77.2197265625 267 77.2197265625 267 76.5595703125 276.5 c 128,-1,105
 75.900390625 286 75.900390625 286 72.599609375 311 c 0,0,1
EndSplineSet
EndChar

StartChar: lslash
Encoding: 29 29 15
Width: 198
Flags: W
LayerCount: 2
Fore
SplineSet
179.51953125 7 m 0,0,1
 177.540039062 -4 177.540039062 -4 170.940429688 -7 c 0,2,3
 170.280273438 -8 170.280273438 -8 167.639648438 -8 c 2,4,-1
 165.66015625 -8 l 2,5,6
 151.139648438 -8 151.139648438 -8 136.620117188 -5.5 c 128,-1,7
 122.099609375 -3 122.099609375 -3 107.580078125 -3 c 0,8,9
 89.099609375 -3 89.099609375 -3 71.2802734375 -6 c 128,-1,10
 53.4599609375 -9 53.4599609375 -9 34.98046875 -9 c 0,11,12
 31.6796875 -9 31.6796875 -9 25.740234375 -7.5 c 128,-1,13
 19.7998046875 -6 19.7998046875 -6 21.1201171875 2 c 0,14,15
 23.099609375 15 23.099609375 15 27.0595703125 16.5 c 128,-1,16
 31.01953125 18 31.01953125 18 39.599609375 23 c 0,17,18
 50.8203125 28 50.8203125 28 61.7099609375 34.5 c 128,-1,19
 72.599609375 41 72.599609375 41 79.8603515625 59 c 0,20,21
 83.16015625 67 83.16015625 67 85.4697265625 79.5 c 128,-1,22
 87.7802734375 92 87.7802734375 92 89.099609375 101 c 2,23,-1
 124.740234375 336 l 1,24,-1
 90.419921875 310 l 2,25,26
 87.7802734375 308 87.7802734375 308 82.169921875 304.5 c 128,-1,27
 76.5595703125 301 76.5595703125 301 71.2802734375 298 c 128,-1,28
 66 295 66 295 62.0400390625 293.5 c 128,-1,29
 58.080078125 292 58.080078125 292 58.740234375 294 c 0,30,31
 56.759765625 299 56.759765625 299 55.76953125 308.5 c 128,-1,32
 54.7802734375 318 54.7802734375 318 51.48046875 343 c 0,33,34
 51.48046875 346 51.48046875 346 55.76953125 350.5 c 128,-1,35
 60.0595703125 355 60.0595703125 355 66.330078125 360 c 128,-1,36
 72.599609375 365 72.599609375 365 79.2001953125 369.5 c 128,-1,37
 85.7998046875 374 85.7998046875 374 89.099609375 377 c 0,38,39
 94.3798828125 380 94.3798828125 380 103.290039062 387 c 128,-1,40
 112.200195312 394 112.200195312 394 137.280273438 412 c 1,41,-1
 145.860351562 472 l 2,42,43
 149.8203125 501 149.8203125 501 154.76953125 528.5 c 128,-1,44
 159.719726562 556 159.719726562 556 163.6796875 584 c 2,45,-1
 172.919921875 645 l 2,46,47
 174.900390625 660 174.900390625 660 176.879882812 678 c 128,-1,48
 178.860351562 696 178.860351562 696 173.580078125 709 c 0,49,50
 171.599609375 713 171.599609375 713 167.969726562 717 c 128,-1,51
 164.33984375 721 164.33984375 721 160.049804688 725 c 128,-1,52
 155.759765625 729 155.759765625 729 152.459960938 733 c 128,-1,53
 149.16015625 737 149.16015625 737 149.8203125 742 c 0,54,55
 149.8203125 744 149.8203125 744 150.48046875 746 c 0,56,57
 151.139648438 749 151.139648438 749 152.459960938 750 c 0,58,59
 157.740234375 750 157.740234375 750 172.58984375 756.5 c 128,-1,60
 187.440429688 763 187.440429688 763 202.950195312 771.5 c 128,-1,61
 218.459960938 780 218.459960938 780 230.009765625 788.5 c 128,-1,62
 241.559570312 797 241.559570312 797 242.219726562 801 c 1,63,64
 245.51953125 797 245.51953125 797 245.51953125 797 c 1,65,66
 243.540039062 783 243.540039062 783 241.889648438 769.5 c 128,-1,67
 240.240234375 756 240.240234375 756 236.940429688 741 c 2,68,-1
 225.719726562 666 l 2,69,70
 220.440429688 631 220.440429688 631 214.830078125 597 c 128,-1,71
 209.219726562 563 209.219726562 563 203.940429688 527 c 2,72,-1
 192.719726562 453 l 1,73,74
 201.299804688 459 201.299804688 459 208.23046875 464 c 128,-1,75
 215.16015625 469 215.16015625 469 222.08984375 474.5 c 128,-1,76
 229.01953125 480 229.01953125 480 237.9296875 487 c 128,-1,77
 246.83984375 494 246.83984375 494 258.719726562 503 c 0,78,79
 262.01953125 505 262.01953125 505 264.330078125 488.5 c 128,-1,80
 266.639648438 472 266.639648438 472 269.940429688 452 c 0,81,82
 269.940429688 449 269.940429688 449 266.969726562 445 c 128,-1,83
 264 441 264 441 259.709960938 437 c 128,-1,84
 255.419921875 433 255.419921875 433 250.469726562 430 c 128,-1,85
 245.51953125 427 245.51953125 427 241.559570312 424 c 2,86,-1
 180.83984375 378 l 1,87,-1
 135.959960938 78 l 2,88,89
 130.6796875 44 130.6796875 44 140.25 35.5 c 128,-1,90
 149.8203125 27 149.8203125 27 166.3203125 24 c 0,91,92
 166.98046875 22 166.98046875 22 168.629882812 22.5 c 128,-1,93
 170.280273438 23 170.280273438 23 171.599609375 23 c 0,94,95
 181.5 22 181.5 22 179.51953125 7 c 0,0,1
EndSplineSet
EndChar

StartChar: Zcaron
Encoding: 30 30 16
Width: 473
Flags: W
LayerCount: 2
Fore
SplineSet
462.66015625 964 m 0,0,1
 466.620117188 964 466.620117188 964 465.959960938 956 c 0,2,3
 465.299804688 953 465.299804688 953 458.700195312 939 c 128,-1,4
 452.099609375 925 452.099609375 925 442.530273438 905.5 c 128,-1,5
 432.959960938 886 432.959960938 886 422.0703125 863.5 c 128,-1,6
 411.1796875 841 411.1796875 841 400.620117188 821.5 c 128,-1,7
 390.059570312 802 390.059570312 802 381.809570312 787.5 c 128,-1,8
 373.559570312 773 373.559570312 773 370.919921875 770 c 1,9,10
 366.299804688 775 366.299804688 775 365.639648438 778 c 0,11,12
 355.080078125 827 355.080078125 827 345.1796875 870.5 c 128,-1,13
 335.280273438 914 335.280273438 914 331.98046875 952 c 0,14,15
 331.98046875 958 331.98046875 958 331.98046875 961 c 0,16,17
 333.299804688 969 333.299804688 969 338.580078125 968 c 0,18,19
 341.219726562 967 341.219726562 967 346.830078125 952 c 128,-1,20
 352.440429688 937 352.440429688 937 358.709960938 917.5 c 128,-1,21
 364.98046875 898 364.98046875 898 371.25 880 c 128,-1,22
 377.51953125 862 377.51953125 862 384.120117188 855 c 1,23,24
 392.040039062 862 392.040039062 862 403.259765625 880 c 128,-1,25
 414.48046875 898 414.48046875 898 425.700195312 916.5 c 128,-1,26
 436.919921875 935 436.919921875 935 446.8203125 949.5 c 128,-1,27
 456.719726562 964 456.719726562 964 462.66015625 964 c 0,0,1
170.280273438 750 m 0,28,29
 176.879882812 750 176.879882812 750 180.1796875 749 c 128,-1,30
 183.48046875 748 183.48046875 748 185.790039062 746 c 128,-1,31
 188.099609375 744 188.099609375 744 191.0703125 742 c 128,-1,32
 194.040039062 740 194.040039062 740 200.639648438 739 c 1,33,34
 205.259765625 733 205.259765625 733 216.48046875 731 c 128,-1,35
 227.700195312 729 227.700195312 729 237.599609375 729 c 2,36,-1
 249.48046875 729 l 2,37,38
 277.860351562 729 277.860351562 729 312.509765625 730 c 128,-1,39
 347.16015625 731 347.16015625 731 383.459960938 731.5 c 128,-1,40
 419.759765625 732 419.759765625 732 454.740234375 733 c 128,-1,41
 489.719726562 734 489.719726562 734 518.099609375 734 c 0,42,43
 524.040039062 734 524.040039062 734 533.940429688 736.5 c 128,-1,44
 543.83984375 739 543.83984375 739 552.08984375 740 c 128,-1,45
 560.33984375 741 560.33984375 741 564.959960938 737 c 128,-1,46
 569.580078125 733 569.580078125 733 565.620117188 721 c 0,47,48
 565.620117188 720 565.620117188 720 551.759765625 699 c 128,-1,49
 537.900390625 678 537.900390625 678 514.799804688 644 c 128,-1,50
 491.700195312 610 491.700195312 610 462 566.5 c 128,-1,51
 432.299804688 523 432.299804688 523 401.280273438 477 c 128,-1,52
 370.259765625 431 370.259765625 431 339.240234375 385.5 c 128,-1,53
 308.219726562 340 308.219726562 340 282.48046875 301.5 c 128,-1,54
 256.740234375 263 256.740234375 263 238.58984375 236 c 128,-1,55
 220.440429688 209 220.440429688 209 214.5 200 c 0,56,57
 207.900390625 189 207.900390625 189 194.040039062 168.5 c 128,-1,58
 180.1796875 148 180.1796875 148 165.990234375 126 c 128,-1,59
 151.799804688 104 151.799804688 104 140.580078125 84.5 c 128,-1,60
 129.360351562 65 129.360351562 65 125.400390625 52 c 0,61,62
 124.080078125 44 124.080078125 44 128.040039062 40 c 128,-1,63
 132 36 132 36 137.280273438 35 c 128,-1,64
 142.559570312 34 142.559570312 34 149.16015625 34.5 c 128,-1,65
 155.759765625 35 155.759765625 35 160.379882812 35 c 0,66,67
 188.759765625 35 188.759765625 35 221.759765625 35.5 c 128,-1,68
 254.759765625 36 254.759765625 36 283.139648438 36 c 0,69,70
 305.580078125 36 305.580078125 36 331.3203125 37.5 c 128,-1,71
 357.059570312 39 357.059570312 39 380.8203125 49 c 0,72,73
 398.639648438 59 398.639648438 59 409.530273438 77 c 128,-1,74
 420.419921875 95 420.419921875 95 432.299804688 119 c 0,75,76
 437.580078125 130 437.580078125 130 442.530273438 144 c 128,-1,77
 447.48046875 158 447.48046875 158 452.4296875 168 c 128,-1,78
 457.379882812 178 457.379882812 178 462.66015625 180.5 c 128,-1,79
 467.940429688 183 467.940429688 183 473.879882812 173 c 1,80,81
 473.219726562 156 473.219726562 156 470.580078125 140 c 0,82,83
 467.940429688 123 467.940429688 123 462.330078125 105 c 128,-1,84
 456.719726562 87 456.719726562 87 452.099609375 70 c 0,85,86
 448.799804688 58 448.799804688 58 445.830078125 44 c 128,-1,87
 442.860351562 30 442.860351562 30 438.5703125 18 c 128,-1,88
 434.280273438 6 434.280273438 6 428.009765625 -1 c 128,-1,89
 421.740234375 -8 421.740234375 -8 412.5 -8 c 0,90,91
 388.740234375 -8 388.740234375 -8 364.98046875 -6 c 128,-1,92
 341.219726562 -4 341.219726562 -4 316.799804688 -4 c 2,93,-1
 262.01953125 -4 l 2,94,95
 204.599609375 -4 204.599609375 -4 142.559570312 -7.5 c 128,-1,96
 80.51953125 -11 80.51953125 -11 23.099609375 -11 c 0,97,98
 13.2001953125 -11 13.2001953125 -11 15.83984375 4 c 0,99,100
 15.83984375 6 15.83984375 6 29.3701171875 27 c 128,-1,101
 42.900390625 48 42.900390625 48 64.6796875 82.5 c 128,-1,102
 86.4599609375 117 86.4599609375 117 115.169921875 160.5 c 128,-1,103
 143.879882812 204 143.879882812 204 173.91015625 250 c 128,-1,104
 203.940429688 296 203.940429688 296 233.969726562 341.5 c 128,-1,105
 264 387 264 387 288.75 424.5 c 128,-1,106
 313.5 462 313.5 462 331.3203125 489 c 128,-1,107
 349.139648438 516 349.139648438 516 355.080078125 525 c 256,108,109
 361.01953125 534 361.01953125 534 376.200195312 556 c 128,-1,110
 391.379882812 578 391.379882812 578 407.549804688 601 c 128,-1,111
 423.719726562 624 423.719726562 624 437.25 644.5 c 128,-1,112
 450.780273438 665 450.780273438 665 454.080078125 672 c 0,113,114
 455.400390625 674 455.400390625 674 458.040039062 679.5 c 128,-1,115
 460.6796875 685 460.6796875 685 462 688 c 0,116,117
 463.3203125 692 463.3203125 692 458.700195312 693.5 c 128,-1,118
 454.080078125 695 454.080078125 695 447.48046875 695 c 0,119,120
 441.540039062 695 441.540039062 695 434.940429688 694.5 c 128,-1,121
 428.33984375 694 428.33984375 694 426.360351562 694 c 2,122,-1
 382.799804688 694 l 2,123,124
 364.3203125 694 364.3203125 694 344.849609375 693.5 c 128,-1,125
 325.379882812 693 325.379882812 693 305.91015625 692.5 c 128,-1,126
 286.440429688 692 286.440429688 692 268.620117188 691.5 c 128,-1,127
 250.799804688 691 250.799804688 691 236.280273438 690 c 0,128,129
 215.8203125 688 215.8203125 688 198.330078125 680 c 128,-1,130
 180.83984375 672 180.83984375 672 163.01953125 646 c 0,131,132
 157.080078125 638 157.080078125 638 150.48046875 625.5 c 128,-1,133
 143.879882812 613 143.879882812 613 138.26953125 601 c 128,-1,134
 132.66015625 589 132.66015625 589 126.719726562 580 c 128,-1,135
 120.780273438 571 120.780273438 571 116.8203125 571 c 0,136,137
 113.51953125 571 113.51953125 571 108.240234375 574 c 128,-1,138
 102.959960938 577 102.959960938 577 105.599609375 585 c 0,139,140
 113.51953125 612 113.51953125 612 122.759765625 638.5 c 128,-1,141
 132 665 132 665 140.580078125 691 c 0,142,143
 149.16015625 714 149.16015625 714 155.4296875 732 c 128,-1,144
 161.700195312 750 161.700195312 750 170.280273438 750 c 0,28,29
EndSplineSet
EndChar

StartChar: zcaron
Encoding: 31 31 17
Width: 291
Flags: W
LayerCount: 2
Fore
SplineSet
316.799804688 706 m 0,0,1
 320.759765625 706 320.759765625 706 319.440429688 698 c 0,2,3
 318.780273438 695 318.780273438 695 312.83984375 681 c 128,-1,4
 306.900390625 667 306.900390625 667 297.330078125 647.5 c 128,-1,5
 287.759765625 628 287.759765625 628 276.209960938 605.5 c 128,-1,6
 264.66015625 583 264.66015625 583 254.759765625 563.5 c 128,-1,7
 244.860351562 544 244.860351562 544 236.610351562 529.5 c 128,-1,8
 228.360351562 515 228.360351562 515 225.059570312 512 c 1,9,10
 220.440429688 517 220.440429688 517 220.440429688 520 c 0,11,12
 209.879882812 569 209.879882812 569 199.650390625 612.5 c 128,-1,13
 189.419921875 656 189.419921875 656 186.780273438 694 c 0,14,15
 186.780273438 700 186.780273438 700 186.780273438 702 c 0,16,17
 188.099609375 710 188.099609375 710 193.379882812 710 c 0,18,19
 196.01953125 709 196.01953125 709 201.299804688 694 c 128,-1,20
 206.580078125 679 206.580078125 679 212.849609375 659.5 c 128,-1,21
 219.120117188 640 219.120117188 640 225.719726562 622 c 128,-1,22
 232.3203125 604 232.3203125 604 238.259765625 597 c 1,23,24
 246.1796875 604 246.1796875 604 257.73046875 622 c 128,-1,25
 269.280273438 640 269.280273438 640 279.83984375 658.5 c 128,-1,26
 290.400390625 677 290.400390625 677 300.629882812 691.5 c 128,-1,27
 310.860351562 706 310.860351562 706 316.799804688 706 c 0,0,1
277.860351562 88 m 2,28,29
 275.879882812 76 275.879882812 76 273.5703125 61.5 c 128,-1,30
 271.259765625 47 271.259765625 47 267.959960938 34.5 c 128,-1,31
 264.66015625 22 264.66015625 22 262.01953125 12 c 128,-1,32
 259.379882812 2 259.379882812 2 257.400390625 0 c 0,33,34
 254.099609375 -7 254.099609375 -7 250.469726562 -3.5 c 128,-1,35
 246.83984375 0 246.83984375 0 242.219726562 0 c 0,36,37
 194.700195312 0 194.700195312 0 150.809570312 -1 c 128,-1,38
 106.919921875 -2 106.919921875 -2 59.400390625 -2 c 2,39,-1
 50.8203125 -2 l 2,40,41
 46.2001953125 -2 46.2001953125 -2 40.259765625 -1.5 c 128,-1,42
 34.3203125 -1 34.3203125 -1 29.7001953125 0 c 128,-1,43
 25.080078125 1 25.080078125 1 22.1103515625 3.5 c 128,-1,44
 19.1396484375 6 19.1396484375 6 19.1396484375 9 c 0,45,46
 19.7998046875 14 19.7998046875 14 21.7802734375 17 c 128,-1,47
 23.759765625 20 23.759765625 20 25.740234375 25 c 0,48,49
 32.33984375 37 32.33984375 37 40.259765625 48 c 128,-1,50
 48.1796875 59 48.1796875 59 55.4404296875 71 c 0,51,52
 92.400390625 129 92.400390625 129 127.709960938 188 c 128,-1,53
 163.01953125 247 163.01953125 247 198.66015625 306 c 0,54,55
 203.940429688 315 203.940429688 315 213.83984375 331 c 128,-1,56
 223.740234375 347 223.740234375 347 233.969726562 364 c 128,-1,57
 244.200195312 381 244.200195312 381 252.780273438 396.5 c 128,-1,58
 261.360351562 412 261.360351562 412 264.66015625 420 c 0,59,60
 265.98046875 424 265.98046875 424 261.030273438 425.5 c 128,-1,61
 256.080078125 427 256.080078125 427 249.150390625 427.5 c 128,-1,62
 242.219726562 428 242.219726562 428 234.959960938 427.5 c 128,-1,63
 227.700195312 427 227.700195312 427 224.400390625 427 c 2,64,-1
 204.599609375 427 l 2,65,66
 188.099609375 427 188.099609375 427 170.280273438 426.5 c 128,-1,67
 152.459960938 426 152.459960938 426 139.259765625 421 c 0,68,69
 128.040039062 418 128.040039062 418 120.780273438 408.5 c 128,-1,70
 113.51953125 399 113.51953125 399 107.25 389 c 128,-1,71
 100.98046875 379 100.98046875 379 95.3701171875 371.5 c 128,-1,72
 89.759765625 364 89.759765625 364 81.83984375 364 c 0,73,74
 78.5400390625 364 78.5400390625 364 75.900390625 365.5 c 128,-1,75
 73.259765625 367 73.259765625 367 75.900390625 374 c 0,76,77
 79.2001953125 384 79.2001953125 384 80.51953125 388 c 128,-1,78
 81.83984375 392 81.83984375 392 83.16015625 395 c 128,-1,79
 84.48046875 398 84.48046875 398 86.1298828125 402.5 c 128,-1,80
 87.7802734375 407 87.7802734375 407 91.080078125 417 c 0,81,82
 93.7197265625 425 93.7197265625 425 97.01953125 434 c 128,-1,83
 100.3203125 443 100.3203125 443 102.959960938 452 c 0,84,85
 104.940429688 458 104.940429688 458 108.5703125 463.5 c 128,-1,86
 112.200195312 469 112.200195312 469 116.8203125 469 c 0,87,88
 125.400390625 469 125.400390625 469 131.669921875 464.5 c 128,-1,89
 137.940429688 460 137.940429688 460 151.139648438 460 c 2,90,-1
 249.48046875 460 l 2,91,92
 260.700195312 460 260.700195312 460 272.580078125 461 c 128,-1,93
 284.459960938 462 284.459960938 462 295.01953125 462 c 2,94,-1
 304.919921875 462 l 2,95,96
 313.5 462 313.5 462 324.059570312 460 c 128,-1,97
 334.620117188 458 334.620117188 458 337.259765625 453 c 0,98,99
 339.240234375 446 339.240234375 446 335.280273438 437 c 0,100,101
 295.01953125 369 295.01953125 369 255.75 304.5 c 128,-1,102
 216.48046875 240 216.48046875 240 175.559570312 172 c 0,103,104
 157.740234375 142 157.740234375 142 135.959960938 108 c 128,-1,105
 114.1796875 74 114.1796875 74 100.98046875 41 c 0,106,107
 99 36 99 36 104.280273438 36 c 2,108,-1
 139.919921875 36 l 2,109,110
 153.120117188 36 153.120117188 36 168.629882812 36.5 c 128,-1,111
 184.139648438 37 184.139648438 37 198.66015625 39.5 c 128,-1,112
 213.1796875 42 213.1796875 42 224.0703125 45.5 c 128,-1,113
 234.959960938 49 234.959960938 49 240.900390625 55 c 256,114,115
 246.1796875 61 246.1796875 61 250.139648438 72 c 128,-1,116
 254.099609375 83 254.099609375 83 257.400390625 93.5 c 128,-1,117
 260.700195312 104 260.700195312 104 263.669921875 114.5 c 128,-1,118
 266.639648438 125 266.639648438 125 271.259765625 130 c 1,119,-1
 273.900390625 130 l 2,120,121
 280.5 131 280.5 131 281.490234375 126 c 128,-1,122
 282.48046875 121 282.48046875 121 281.16015625 112 c 2,123,-1
 277.860351562 88 l 2,28,29
EndSplineSet
EndChar

StartChar: exclam
Encoding: 33 33 18
Width: 149
Flags: W
LayerCount: 2
Fore
SplineSet
118.799804688 46 m 0,0,1
 114.83984375 17 114.83984375 17 99.990234375 1 c 128,-1,2
 85.1396484375 -15 85.1396484375 -15 67.98046875 -15 c 0,3,4
 52.7998046875 -15 52.7998046875 -15 45.8701171875 4.5 c 128,-1,5
 38.9404296875 24 38.9404296875 24 42.900390625 47 c 0,6,7
 46.8603515625 74 46.8603515625 74 60.7197265625 93 c 128,-1,8
 74.580078125 112 74.580078125 112 91.080078125 112 c 0,9,10
 106.259765625 112 106.259765625 112 114.509765625 91.5 c 128,-1,11
 122.759765625 71 122.759765625 71 118.799804688 46 c 0,0,1
147.1796875 717 m 0,12,13
 149.16015625 732 149.16015625 732 151.799804688 737 c 128,-1,14
 154.440429688 742 154.440429688 742 159.389648438 742.5 c 128,-1,15
 164.33984375 743 164.33984375 743 171.26953125 741 c 128,-1,16
 178.200195312 739 178.200195312 739 190.080078125 739 c 0,17,18
 199.3203125 739 199.3203125 739 207.240234375 740.5 c 128,-1,19
 215.16015625 742 215.16015625 742 220.440429688 742 c 0,20,21
 227.040039062 742 227.040039062 742 229.6796875 737.5 c 128,-1,22
 232.3203125 733 232.3203125 733 228.360351562 717 c 0,23,24
 220.440429688 679 220.440429688 679 205.919921875 616 c 128,-1,25
 191.400390625 553 191.400390625 553 175.559570312 482.5 c 128,-1,26
 159.719726562 412 159.719726562 412 142.889648438 341.5 c 128,-1,27
 126.059570312 271 126.059570312 271 113.51953125 220 c 0,28,29
 112.200195312 215 112.200195312 215 107.91015625 216 c 128,-1,30
 103.620117188 217 103.620117188 217 101.639648438 220 c 0,31,32
 106.919921875 275 106.919921875 275 112.200195312 339 c 128,-1,33
 117.48046875 403 117.48046875 403 122.759765625 469 c 128,-1,34
 128.040039062 535 128.040039062 535 134.309570312 599 c 128,-1,35
 140.580078125 663 140.580078125 663 147.1796875 717 c 0,12,13
EndSplineSet
EndChar

StartChar: quotedbl
Encoding: 34 34 19
Width: 184
Flags: W
LayerCount: 2
Fore
SplineSet
248.8203125 745 m 2,0,1
 252.780273438 745 252.780273438 745 257.0703125 744.5 c 128,-1,2
 261.360351562 744 261.360351562 744 269.280273438 744 c 0,3,4
 274.559570312 747 274.559570312 747 275.549804688 739.5 c 128,-1,5
 276.540039062 732 276.540039062 732 274.559570312 727 c 0,6,7
 271.919921875 716 271.919921875 716 264.990234375 686.5 c 128,-1,8
 258.059570312 657 258.059570312 657 251.129882812 625 c 128,-1,9
 244.200195312 593 244.200195312 593 237.26953125 566 c 128,-1,10
 230.33984375 539 230.33984375 539 227.700195312 532 c 0,11,12
 225.719726562 527 225.719726562 527 222.419921875 525 c 128,-1,13
 219.120117188 523 219.120117188 523 215.8203125 523.5 c 128,-1,14
 212.51953125 524 212.51953125 524 209.549804688 527.5 c 128,-1,15
 206.580078125 531 206.580078125 531 206.580078125 538 c 0,16,17
 207.240234375 551 207.240234375 551 208.889648438 577.5 c 128,-1,18
 210.540039062 604 210.540039062 604 213.1796875 633 c 128,-1,19
 215.8203125 662 215.8203125 662 218.129882812 688 c 128,-1,20
 220.440429688 714 220.440429688 714 222.419921875 728 c 0,21,22
 223.080078125 737 223.080078125 737 225.389648438 741 c 128,-1,23
 227.700195312 745 227.700195312 745 234.299804688 745 c 2,24,-1
 248.8203125 745 l 2,0,1
160.379882812 745 m 2,25,26
 164.33984375 745 164.33984375 745 168.299804688 744.5 c 128,-1,27
 172.259765625 744 172.259765625 744 180.1796875 744 c 0,28,29
 185.459960938 747 185.459960938 747 186.780273438 739.5 c 128,-1,30
 188.099609375 732 188.099609375 732 186.120117188 727 c 0,31,32
 183.48046875 716 183.48046875 716 176.549804688 686.5 c 128,-1,33
 169.620117188 657 169.620117188 657 162.690429688 625 c 128,-1,34
 155.759765625 593 155.759765625 593 148.830078125 566 c 128,-1,35
 141.900390625 539 141.900390625 539 139.259765625 532 c 0,36,37
 137.280273438 527 137.280273438 527 133.98046875 525 c 128,-1,38
 130.6796875 523 130.6796875 523 127.049804688 523.5 c 128,-1,39
 123.419921875 524 123.419921875 524 120.780273438 527.5 c 128,-1,40
 118.139648438 531 118.139648438 531 118.139648438 538 c 0,41,42
 118.799804688 551 118.799804688 551 120.450195312 577.5 c 128,-1,43
 122.099609375 604 122.099609375 604 124.080078125 633 c 128,-1,44
 126.059570312 662 126.059570312 662 129.030273438 688 c 128,-1,45
 132 714 132 714 133.98046875 728 c 0,46,47
 134.639648438 737 134.639648438 737 136.620117188 741 c 128,-1,48
 138.599609375 745 138.599609375 745 145.860351562 745 c 2,49,-1
 160.379882812 745 l 2,25,26
EndSplineSet
EndChar

StartChar: numbersign
Encoding: 35 35 20
Width: 320
Flags: W
LayerCount: 2
Fore
SplineSet
249.48046875 336 m 1,0,1
 236.280273438 336 236.280273438 336 220.76953125 335.5 c 128,-1,2
 205.259765625 335 205.259765625 335 188.759765625 335 c 1,3,4
 179.51953125 303 179.51953125 303 173.25 280 c 128,-1,5
 166.98046875 257 166.98046875 257 161.040039062 238 c 1,6,-1
 221.759765625 238 l 1,7,8
 228.360351562 263 228.360351562 263 235.620117188 286.5 c 128,-1,9
 242.879882812 310 242.879882812 310 249.48046875 336 c 1,0,1
357.719726562 369 m 1,10,11
 356.400390625 361 356.400390625 361 354.75 351 c 128,-1,12
 353.099609375 341 353.099609375 341 348.48046875 335 c 1,13,14
 342.540039062 336 342.540039062 336 335.280273438 336 c 0,15,16
 329.33984375 336 329.33984375 336 320.759765625 336 c 2,17,-1
 282.48046875 336 l 1,18,19
 273.240234375 303 273.240234375 303 266.639648438 280 c 128,-1,20
 260.040039062 257 260.040039062 257 254.099609375 238 c 1,21,-1
 308.879882812 238 l 1,22,23
 314.16015625 220 314.16015625 220 310.530273438 204.5 c 128,-1,24
 306.900390625 189 306.900390625 189 299.639648438 172 c 1,25,26
 285.120117188 171 285.120117188 171 268.950195312 170.5 c 128,-1,27
 252.780273438 170 252.780273438 170 235.620117188 170 c 1,28,29
 227.700195312 140 227.700195312 140 218.129882812 103 c 128,-1,30
 208.559570312 66 208.559570312 66 192.719726562 2 c 1,31,32
 189.419921875 2 189.419921875 2 181.5 1 c 128,-1,33
 173.580078125 0 173.580078125 0 158.400390625 2 c 1,34,35
 171.599609375 54 171.599609375 54 182.490234375 94.5 c 128,-1,36
 193.379882812 135 193.379882812 135 203.280273438 170 c 1,37,-1
 142.559570312 170 l 1,38,39
 134.639648438 140 134.639648438 140 124.740234375 103 c 128,-1,40
 114.83984375 66 114.83984375 66 99.66015625 2 c 1,41,42
 96.3603515625 2 96.3603515625 2 88.1103515625 1 c 128,-1,43
 79.8603515625 0 79.8603515625 0 64.01953125 2 c 1,44,45
 77.2197265625 54 77.2197265625 54 88.76953125 94.5 c 128,-1,46
 100.3203125 135 100.3203125 135 109.559570312 171 c 1,47,48
 92.400390625 171 92.400390625 171 78.2099609375 171.5 c 128,-1,49
 64.01953125 172 64.01953125 172 52.7998046875 173 c 1,50,51
 54.1201171875 182 54.1201171875 182 53.7900390625 189.5 c 128,-1,52
 53.4599609375 197 53.4599609375 197 54.7802734375 206 c 0,53,54
 55.4404296875 212 55.4404296875 212 58.41015625 221 c 128,-1,55
 61.3798828125 230 61.3798828125 230 62.7001953125 237 c 1,56,57
 73.919921875 237 73.919921875 237 91.080078125 237.5 c 128,-1,58
 108.240234375 238 108.240234375 238 128.700195312 238 c 1,59,60
 135.299804688 263 135.299804688 263 141.900390625 286 c 128,-1,61
 148.5 309 148.5 309 155.759765625 335 c 1,62,-1
 106.259765625 335 l 1,63,64
 102.299804688 352 102.299804688 352 103.290039062 365 c 128,-1,65
 104.280273438 378 104.280273438 378 115.5 400 c 1,66,67
 130.01953125 400 130.01953125 400 144.209960938 399.5 c 128,-1,68
 158.400390625 399 158.400390625 399 172.919921875 399 c 1,69,70
 181.5 433 181.5 433 191.73046875 473.5 c 128,-1,71
 201.959960938 514 201.959960938 514 215.16015625 564 c 1,72,73
 221.759765625 567 221.759765625 567 232.98046875 567 c 0,74,75
 237.599609375 567 237.599609375 567 242.549804688 566.5 c 128,-1,76
 247.5 566 247.5 566 250.139648438 565 c 1,77,78
 240.900390625 522 240.900390625 522 230.009765625 481 c 128,-1,79
 219.120117188 440 219.120117188 440 206.580078125 399 c 1,80,81
 223.080078125 399 223.080078125 399 237.599609375 398.5 c 128,-1,82
 252.120117188 398 252.120117188 398 265.98046875 398 c 1,83,84
 274.559570312 433 274.559570312 433 284.790039062 472.5 c 128,-1,85
 295.01953125 512 295.01953125 512 308.879882812 564 c 1,86,87
 315.48046875 567 315.48046875 567 326.700195312 567 c 0,88,89
 331.3203125 567 331.3203125 567 335.940429688 566.5 c 128,-1,90
 340.559570312 566 340.559570312 566 343.860351562 565 c 1,91,92
 334.620117188 522 334.620117188 522 323.400390625 481.5 c 128,-1,93
 312.1796875 441 312.1796875 441 300.299804688 398 c 1,94,-1
 361.01953125 398 l 1,95,96
 361.01953125 388 361.01953125 388 359.700195312 383 c 2,97,-1
 357.719726562 369 l 1,10,11
EndSplineSet
EndChar

StartChar: dollar
Encoding: 36 36 21
Width: 325
Flags: W
LayerCount: 2
Fore
SplineSet
171.599609375 601 m 0,0,1
 164.33984375 553 164.33984375 553 179.190429688 519 c 128,-1,2
 194.040039062 485 194.040039062 485 218.459960938 459 c 1,3,4
 229.6796875 536 229.6796875 536 239.91015625 600.5 c 128,-1,5
 250.139648438 665 250.139648438 665 258.719726562 720 c 1,6,7
 229.01953125 714 229.01953125 714 204.26953125 683.5 c 128,-1,8
 179.51953125 653 179.51953125 653 171.599609375 601 c 0,0,1
267.959960938 156 m 0,9,10
 275.879882812 211 275.879882812 211 260.700195312 246.5 c 128,-1,11
 245.51953125 282 245.51953125 282 219.780273438 310 c 1,12,-1
 174.900390625 17 l 1,13,14
 207.900390625 25 207.900390625 25 233.969726562 61.5 c 128,-1,15
 260.040039062 98 260.040039062 98 267.959960938 156 c 0,9,10
284.459960938 819 m 1,16,17
 287.759765625 819 287.759765625 819 291.389648438 818.5 c 128,-1,18
 295.01953125 818 295.01953125 818 297 814 c 1,19,20
 295.6796875 808 295.6796875 808 293.700195312 801 c 0,21,22
 293.040039062 795 293.040039062 795 291.719726562 787 c 256,23,24
 290.400390625 780 290.400390625 780 289.740234375 772 c 0,25,26
 288.419921875 765 288.419921875 765 287.099609375 757 c 1,27,28
 298.98046875 755 298.98046875 755 312.509765625 744.5 c 128,-1,29
 326.040039062 734 326.040039062 734 334.620117188 724 c 0,30,31
 340.559570312 718 340.559570312 718 344.849609375 723.5 c 128,-1,32
 349.139648438 729 349.139648438 729 354.08984375 739.5 c 128,-1,33
 359.040039062 750 359.040039062 750 364.98046875 759 c 128,-1,34
 370.919921875 768 370.919921875 768 380.8203125 768 c 0,35,36
 385.440429688 768 385.440429688 768 384.780273438 758 c 128,-1,37
 384.120117188 748 384.120117188 748 382.139648438 733 c 256,38,39
 380.16015625 719 380.16015625 719 376.530273438 703.5 c 128,-1,40
 372.900390625 688 372.900390625 688 371.580078125 677 c 0,41,42
 364.3203125 624 364.3203125 624 353.759765625 570 c 0,43,44
 351.120117188 561 351.120117188 561 348.48046875 558 c 128,-1,45
 345.83984375 555 345.83984375 555 343.200195312 555 c 256,46,47
 340.559570312 555 340.559570312 555 338.580078125 556 c 128,-1,48
 336.599609375 557 336.599609375 557 334.620117188 557 c 0,49,50
 330.66015625 557 330.66015625 557 329.669921875 566 c 128,-1,51
 328.6796875 575 328.6796875 575 328.6796875 588 c 128,-1,52
 328.6796875 601 328.6796875 601 329.009765625 615 c 128,-1,53
 329.33984375 629 329.33984375 629 327.360351562 639 c 0,54,55
 324.059570312 673 324.059570312 673 311.190429688 693.5 c 128,-1,56
 298.3203125 714 298.3203125 714 281.16015625 719 c 1,57,-1
 238.259765625 438 l 1,58,59
 254.759765625 423 254.759765625 423 270.599609375 408 c 128,-1,60
 286.440429688 393 286.440429688 393 299.639648438 378 c 0,61,62
 322.080078125 349 322.080078125 349 329.669921875 303 c 128,-1,63
 337.259765625 257 337.259765625 257 330 205 c 0,64,65
 314.16015625 103 314.16015625 103 270.599609375 46 c 128,-1,66
 227.040039062 -11 227.040039062 -11 168.959960938 -22 c 1,67,68
 166.98046875 -32 166.98046875 -32 165.66015625 -40 c 0,69,70
 164.33984375 -49 164.33984375 -49 163.01953125 -57 c 256,71,72
 161.700195312 -65 161.700195312 -65 161.040039062 -73 c 0,73,74
 159.719726562 -81 159.719726562 -81 157.740234375 -88 c 1,75,-1
 145.200195312 -88 l 2,76,77
 137.940429688 -88 137.940429688 -88 135.959960938 -87 c 0,78,79
 135.959960938 -81 135.959960938 -81 137.280273438 -74 c 256,80,81
 138.599609375 -67 138.599609375 -67 139.259765625 -58 c 2,82,-1
 144.540039062 -25 l 1,83,84
 132.66015625 -25 132.66015625 -25 123.08984375 -19.5 c 128,-1,85
 113.51953125 -14 113.51953125 -14 105.26953125 -8.5 c 128,-1,86
 97.01953125 -3 97.01953125 -3 90.08984375 2 c 128,-1,87
 83.16015625 7 83.16015625 7 77.2197265625 7 c 0,88,89
 69.9599609375 7 69.9599609375 7 65.33984375 0.5 c 128,-1,90
 60.7197265625 -6 60.7197265625 -6 56.4296875 -15 c 128,-1,91
 52.1396484375 -24 52.1396484375 -24 46.5302734375 -30.5 c 128,-1,92
 40.919921875 -37 40.919921875 -37 31.6796875 -37 c 0,93,94
 27.0595703125 -37 27.0595703125 -37 27.7197265625 -24 c 128,-1,95
 28.3798828125 -11 28.3798828125 -11 31.01953125 6 c 256,96,97
 33.66015625 23 33.66015625 23 37.2900390625 41.5 c 128,-1,98
 40.919921875 60 40.919921875 60 43.5595703125 72 c 0,99,100
 47.51953125 99 47.51953125 99 50.8203125 120 c 128,-1,101
 54.1201171875 141 54.1201171875 141 59.400390625 168 c 0,102,103
 61.3798828125 177 61.3798828125 177 64.01953125 180 c 128,-1,104
 66.66015625 183 66.66015625 183 69.2998046875 183 c 256,105,106
 71.9404296875 183 71.9404296875 183 73.919921875 182 c 128,-1,107
 75.900390625 181 75.900390625 181 77.8798828125 181 c 0,108,109
 82.5 181 82.5 181 83.490234375 172.5 c 128,-1,110
 84.48046875 164 84.48046875 164 84.48046875 151 c 128,-1,111
 84.48046875 138 84.48046875 138 84.48046875 124 c 128,-1,112
 84.48046875 110 84.48046875 110 85.7998046875 99 c 0,113,114
 89.759765625 61 89.759765625 61 108.5703125 39.5 c 128,-1,115
 127.379882812 18 127.379882812 18 150.48046875 15 c 1,116,-1
 198.66015625 332 l 1,117,118
 179.51953125 351 179.51953125 351 161.370117188 371 c 128,-1,119
 143.219726562 391 143.219726562 391 130.01953125 416 c 128,-1,120
 116.8203125 441 116.8203125 441 111.209960938 474 c 128,-1,121
 105.599609375 507 105.599609375 507 112.200195312 552 c 256,122,123
 118.799804688 597 118.799804688 597 133.650390625 633.5 c 128,-1,124
 148.5 670 148.5 670 168.959960938 696 c 128,-1,125
 189.419921875 722 189.419921875 722 213.509765625 737.5 c 128,-1,126
 237.599609375 753 237.599609375 753 264 757 c 1,127,-1
 273.900390625 817 l 1,128,129
 277.860351562 819 277.860351562 819 279.1796875 819 c 2,130,-1
 284.459960938 819 l 1,16,17
EndSplineSet
EndChar

StartChar: percent
Encoding: 37 37 22
Width: 488
Flags: W
LayerCount: 2
Fore
SplineSet
437.580078125 148 m 0,0,1
 444.83984375 198 444.83984375 198 432.959960938 228 c 128,-1,2
 421.080078125 258 421.080078125 258 396.66015625 258 c 0,3,4
 376.860351562 258 376.860351562 258 356.400390625 230 c 128,-1,5
 335.940429688 202 335.940429688 202 328.01953125 156 c 0,6,7
 318.780273438 104 318.780273438 104 330.990234375 77.5 c 128,-1,8
 343.200195312 51 343.200195312 51 366.959960938 51 c 0,9,10
 388.080078125 51 388.080078125 51 408.870117188 75.5 c 128,-1,11
 429.66015625 100 429.66015625 100 437.580078125 148 c 0,0,1
269.940429688 563 m 0,12,13
 277.200195312 613 277.200195312 613 265.3203125 643 c 128,-1,14
 253.440429688 673 253.440429688 673 229.6796875 673 c 0,15,16
 209.879882812 673 209.879882812 673 189.08984375 644.5 c 128,-1,17
 168.299804688 616 168.299804688 616 160.379882812 570 c 0,18,19
 151.139648438 518 151.139648438 518 163.349609375 492 c 128,-1,20
 175.559570312 466 175.559570312 466 199.3203125 466 c 0,21,22
 220.440429688 466 220.440429688 466 241.23046875 490.5 c 128,-1,23
 262.01953125 515 262.01953125 515 269.940429688 563 c 0,12,13
511.5 662 m 1,24,25
 487.080078125 619 487.080078125 619 462 578.5 c 128,-1,26
 436.919921875 538 436.919921875 538 410.51953125 497 c 0,27,28
 332.639648438 374 332.639648438 374 255.75 254 c 128,-1,29
 178.860351562 134 178.860351562 134 104.280273438 7 c 1,30,31
 101.639648438 9 101.639648438 9 94.7099609375 18.5 c 128,-1,32
 87.7802734375 28 87.7802734375 28 74.580078125 36 c 1,33,34
 176.219726562 202 176.219726562 202 278.51953125 361.5 c 128,-1,35
 380.8203125 521 380.8203125 521 481.799804688 690 c 1,36,37
 488.400390625 690 488.400390625 690 496.98046875 679 c 128,-1,38
 505.559570312 668 505.559570312 668 511.5 662 c 1,24,25
482.459960938 159 m 0,39,40
 477.1796875 124 477.1796875 124 465.299804688 93 c 128,-1,41
 453.419921875 62 453.419921875 62 436.58984375 39 c 128,-1,42
 419.759765625 16 419.759765625 16 399.299804688 2.5 c 128,-1,43
 378.83984375 -11 378.83984375 -11 357.719726562 -11 c 0,44,45
 335.280273438 -11 335.280273438 -11 318.120117188 0 c 128,-1,46
 300.959960938 11 300.959960938 11 291.059570312 32.5 c 128,-1,47
 281.16015625 54 281.16015625 54 278.51953125 84 c 128,-1,48
 275.879882812 114 275.879882812 114 281.16015625 151 c 0,49,50
 286.440429688 186 286.440429688 186 298.3203125 216.5 c 128,-1,51
 310.200195312 247 310.200195312 247 327.030273438 270 c 128,-1,52
 343.860351562 293 343.860351562 293 364.3203125 306 c 128,-1,53
 384.780273438 319 384.780273438 319 405.900390625 319 c 0,54,55
 426.360351562 319 426.360351562 319 442.530273438 307 c 128,-1,56
 458.700195312 295 458.700195312 295 469.58984375 273.5 c 128,-1,57
 480.48046875 252 480.48046875 252 484.110351562 222.5 c 128,-1,58
 487.740234375 193 487.740234375 193 482.459960938 159 c 0,39,40
314.8203125 573 m 0,59,60
 309.540039062 538 309.540039062 538 297.66015625 507.5 c 128,-1,61
 285.780273438 477 285.780273438 477 268.950195312 454 c 128,-1,62
 252.120117188 431 252.120117188 431 231.990234375 417 c 128,-1,63
 211.860351562 403 211.860351562 403 190.080078125 403 c 0,64,65
 167.639648438 403 167.639648438 403 150.48046875 414.5 c 128,-1,66
 133.3203125 426 133.3203125 426 123.419921875 447.5 c 128,-1,67
 113.51953125 469 113.51953125 469 110.879882812 498.5 c 128,-1,68
 108.240234375 528 108.240234375 528 113.51953125 565 c 0,69,70
 118.799804688 600 118.799804688 600 130.6796875 631 c 128,-1,71
 142.559570312 662 142.559570312 662 159.389648438 685 c 128,-1,72
 176.219726562 708 176.219726562 708 196.6796875 721 c 128,-1,73
 217.139648438 734 217.139648438 734 238.259765625 734 c 0,74,75
 258.719726562 734 258.719726562 734 275.219726562 722 c 128,-1,76
 291.719726562 710 291.719726562 710 302.280273438 688.5 c 128,-1,77
 312.83984375 667 312.83984375 667 316.469726562 637 c 128,-1,78
 320.099609375 607 320.099609375 607 314.8203125 573 c 0,59,60
EndSplineSet
EndChar

StartChar: ampersand
Encoding: 38 38 23
Width: 495
Flags: W
LayerCount: 2
Fore
SplineSet
328.6796875 548 m 0,0,1
 334.620117188 587 334.620117188 587 325.379882812 613 c 128,-1,2
 316.139648438 639 316.139648438 639 291.059570312 639 c 0,3,4
 268.620117188 639 268.620117188 639 251.459960938 615.5 c 128,-1,5
 234.299804688 592 234.299804688 592 229.01953125 556 c 0,6,7
 225.719726562 534 225.719726562 534 228.360351562 515 c 0,8,9
 229.01953125 505 229.01953125 505 232.98046875 492 c 128,-1,10
 236.940429688 479 236.940429688 479 242.879882812 467 c 128,-1,11
 248.8203125 455 248.8203125 455 255.08984375 444.5 c 128,-1,12
 261.360351562 434 261.360351562 434 265.98046875 429 c 1,13,14
 269.280273438 431 269.280273438 431 272.25 433.5 c 128,-1,15
 275.219726562 436 275.219726562 436 277.860351562 438 c 0,16,17
 297 456 297 456 310.530273438 485.5 c 128,-1,18
 324.059570312 515 324.059570312 515 328.6796875 548 c 0,0,1
220.440429688 365 m 1,19,20
 185.459960938 345 185.459960938 345 157.740234375 300.5 c 128,-1,21
 130.01953125 256 130.01953125 256 120.780273438 198 c 0,22,23
 116.16015625 165 116.16015625 165 119.459960938 137.5 c 128,-1,24
 122.759765625 110 122.759765625 110 132.66015625 89.5 c 128,-1,25
 142.559570312 69 142.559570312 69 158.0703125 57 c 128,-1,26
 173.580078125 45 173.580078125 45 194.040039062 45 c 0,27,28
 224.400390625 45 224.400390625 45 248.8203125 65.5 c 128,-1,29
 273.240234375 86 273.240234375 86 298.98046875 120 c 0,30,31
 304.259765625 127 304.259765625 127 308.879882812 135.5 c 128,-1,32
 313.5 144 313.5 144 318.120117188 153 c 1,33,34
 316.799804688 168 316.799804688 168 311.849609375 180.5 c 128,-1,35
 306.900390625 193 306.900390625 193 302.280273438 207 c 0,36,37
 286.440429688 253 286.440429688 253 265.98046875 292.5 c 128,-1,38
 245.51953125 332 245.51953125 332 220.440429688 365 c 1,19,20
291.059570312 667 m 0,39,40
 310.860351562 667 310.860351562 667 327.360351562 660.5 c 128,-1,41
 343.860351562 654 343.860351562 654 355.080078125 640.5 c 128,-1,42
 366.299804688 627 366.299804688 627 370.58984375 604.5 c 128,-1,43
 374.879882812 582 374.879882812 582 370.259765625 549 c 0,44,45
 366.299804688 524 366.299804688 524 356.400390625 503.5 c 128,-1,46
 346.5 483 346.5 483 333.299804688 466.5 c 128,-1,47
 320.099609375 450 320.099609375 450 305.25 436.5 c 128,-1,48
 290.400390625 423 290.400390625 423 277.200195312 414 c 1,49,50
 281.8203125 406 281.8203125 406 286.440429688 399 c 128,-1,51
 291.059570312 392 291.059570312 392 297 384 c 0,52,53
 306.240234375 369 306.240234375 369 315.48046875 349.5 c 128,-1,54
 324.719726562 330 324.719726562 330 332.639648438 309 c 128,-1,55
 340.559570312 288 340.559570312 288 349.139648438 267 c 128,-1,56
 357.719726562 246 357.719726562 246 364.3203125 227 c 1,57,58
 366.959960938 229 366.959960938 229 369.26953125 233 c 128,-1,59
 371.580078125 237 371.580078125 237 372.900390625 240 c 0,60,61
 380.8203125 253 380.8203125 253 390.719726562 267.5 c 128,-1,62
 400.620117188 282 400.620117188 282 408.870117188 296 c 128,-1,63
 417.120117188 310 417.120117188 310 423.389648438 325.5 c 128,-1,64
 429.66015625 341 429.66015625 341 432.299804688 357 c 0,65,66
 434.940429688 376 434.940429688 376 432.959960938 383 c 128,-1,67
 430.98046875 390 430.98046875 390 428.009765625 392 c 128,-1,68
 425.040039062 394 425.040039062 394 422.400390625 396.5 c 128,-1,69
 419.759765625 399 419.759765625 399 421.740234375 412 c 0,70,71
 422.400390625 416 422.400390625 416 427.349609375 418 c 128,-1,72
 432.299804688 420 432.299804688 420 437.580078125 420 c 2,73,-1
 477.83984375 420 l 2,74,75
 491.040039062 420 491.040039062 420 505.559570312 422 c 128,-1,76
 520.080078125 424 520.080078125 424 534.599609375 424 c 0,77,78
 538.559570312 424 538.559570312 424 540.870117188 420.5 c 128,-1,79
 543.1796875 417 543.1796875 417 542.51953125 410 c 256,80,81
 541.200195312 403 541.200195312 403 537.5703125 399 c 128,-1,82
 533.940429688 395 533.940429688 395 529.650390625 393 c 128,-1,83
 525.360351562 391 525.360351562 391 520.080078125 390.5 c 128,-1,84
 514.799804688 390 514.799804688 390 510.83984375 390 c 0,85,86
 502.259765625 390 502.259765625 390 490.379882812 377 c 128,-1,87
 478.5 364 478.5 364 466.290039062 346.5 c 128,-1,88
 454.080078125 329 454.080078125 329 444.1796875 312 c 128,-1,89
 434.280273438 295 434.280273438 295 429 287 c 0,90,91
 414.48046875 264 414.48046875 264 399.959960938 239.5 c 128,-1,92
 385.440429688 215 385.440429688 215 370.919921875 194 c 1,93,94
 378.1796875 166 378.1796875 166 387.419921875 140 c 128,-1,95
 396.66015625 114 396.66015625 114 407.879882812 93.5 c 128,-1,96
 419.099609375 73 419.099609375 73 432.959960938 59 c 128,-1,97
 446.8203125 45 446.8203125 45 465.299804688 42 c 0,98,99
 469.259765625 39 469.259765625 39 474.209960938 36.5 c 128,-1,100
 479.16015625 34 479.16015625 34 481.799804688 30 c 128,-1,101
 484.440429688 26 484.440429688 26 483.780273438 19 c 128,-1,102
 483.120117188 12 483.120117188 12 477.1796875 1 c 0,103,104
 473.219726562 -1 473.219726562 -1 466.620117188 -2.5 c 128,-1,105
 460.01953125 -4 460.01953125 -4 453.75 -4.5 c 128,-1,106
 447.48046875 -5 447.48046875 -5 440.879882812 -5.5 c 128,-1,107
 434.280273438 -6 434.280273438 -6 429.66015625 -6 c 0,108,109
 399.299804688 -6 399.299804688 -6 382.469726562 9 c 128,-1,110
 365.639648438 24 365.639648438 24 355.41015625 44.5 c 128,-1,111
 345.1796875 65 345.1796875 65 338.91015625 87 c 128,-1,112
 332.639648438 109 332.639648438 109 324.719726562 123 c 0,113,114
 324.059570312 122 324.059570312 122 323.400390625 121 c 128,-1,115
 322.740234375 120 322.740234375 120 322.080078125 119 c 0,116,117
 312.83984375 102 312.83984375 102 298.98046875 82.5 c 128,-1,118
 285.120117188 63 285.120117188 63 269.940429688 45.5 c 128,-1,119
 254.759765625 28 254.759765625 28 239.25 13 c 128,-1,120
 223.740234375 -2 223.740234375 -2 211.860351562 -9 c 0,121,122
 184.799804688 -25 184.799804688 -25 153.120117188 -26 c 0,123,124
 132.66015625 -26 132.66015625 -26 117.48046875 -18 c 0,125,126
 99.66015625 -11 99.66015625 -11 86.7900390625 5.5 c 128,-1,127
 73.919921875 22 73.919921875 22 66.66015625 45 c 128,-1,128
 59.400390625 68 59.400390625 68 57.75 96.5 c 128,-1,129
 56.099609375 125 56.099609375 125 60.7197265625 157 c 2,130,-1
 63.3603515625 176 l 2,131,132
 71.2802734375 229 71.2802734375 229 96.6904296875 270.5 c 128,-1,133
 122.099609375 312 122.099609375 312 152.459960938 340 c 0,134,135
 164.33984375 351 164.33984375 351 180.509765625 362 c 128,-1,136
 196.6796875 373 196.6796875 373 207.240234375 387 c 0,137,138
 206.580078125 390 206.580078125 390 201.959960938 397 c 0,139,140
 190.740234375 419 190.740234375 419 182.8203125 452 c 128,-1,141
 174.900390625 485 174.900390625 485 180.1796875 519 c 0,142,143
 184.799804688 550 184.799804688 550 195.690429688 576.5 c 128,-1,144
 206.580078125 603 206.580078125 603 221.099609375 623 c 128,-1,145
 235.620117188 643 235.620117188 643 253.76953125 655 c 128,-1,146
 271.919921875 667 271.919921875 667 291.059570312 667 c 0,39,40
EndSplineSet
EndChar

StartChar: quotesingle
Encoding: 39 39 24
Width: 96
Flags: W
LayerCount: 2
Fore
SplineSet
160.379882812 745 m 2,0,1
 164.33984375 745 164.33984375 745 168.299804688 744.5 c 128,-1,2
 172.259765625 744 172.259765625 744 180.1796875 744 c 0,3,4
 185.459960938 747 185.459960938 747 186.780273438 739.5 c 128,-1,5
 188.099609375 732 188.099609375 732 186.120117188 727 c 0,6,7
 183.48046875 716 183.48046875 716 176.549804688 686.5 c 128,-1,8
 169.620117188 657 169.620117188 657 162.690429688 625 c 128,-1,9
 155.759765625 593 155.759765625 593 148.830078125 566 c 128,-1,10
 141.900390625 539 141.900390625 539 139.259765625 532 c 0,11,12
 137.280273438 527 137.280273438 527 133.98046875 525 c 128,-1,13
 130.6796875 523 130.6796875 523 127.049804688 523.5 c 128,-1,14
 123.419921875 524 123.419921875 524 120.780273438 527.5 c 128,-1,15
 118.139648438 531 118.139648438 531 118.139648438 538 c 0,16,17
 118.799804688 551 118.799804688 551 120.450195312 577.5 c 128,-1,18
 122.099609375 604 122.099609375 604 124.080078125 633 c 128,-1,19
 126.059570312 662 126.059570312 662 129.030273438 688 c 128,-1,20
 132 714 132 714 133.98046875 728 c 0,21,22
 134.639648438 737 134.639648438 737 136.620117188 741 c 128,-1,23
 138.599609375 745 138.599609375 745 145.860351562 745 c 2,24,-1
 160.379882812 745 l 2,0,1
EndSplineSet
EndChar

StartChar: parenleft
Encoding: 40 40 25
Width: 219
Flags: W
LayerCount: 2
Fore
SplineSet
310.200195312 734 m 0,0,1
 308.879882812 728 308.879882812 728 304.259765625 722 c 0,2,3
 275.879882812 685 275.879882812 685 255.419921875 650 c 0,4,5
 206.580078125 566 206.580078125 566 173.25 469 c 128,-1,6
 139.919921875 372 139.919921875 372 124.080078125 269 c 0,7,8
 118.799804688 232 118.799804688 232 115.169921875 192 c 128,-1,9
 111.540039062 152 111.540039062 152 110.879882812 111.5 c 128,-1,10
 110.219726562 71 110.219726562 71 112.530273438 33 c 128,-1,11
 114.83984375 -5 114.83984375 -5 120.780273438 -37 c 0,12,13
 128.040039062 -78 128.040039062 -78 136.290039062 -120 c 128,-1,14
 144.540039062 -162 144.540039062 -162 163.01953125 -193 c 0,15,16
 165.66015625 -202 165.66015625 -202 162.360351562 -212.5 c 128,-1,17
 159.059570312 -223 159.059570312 -223 151.799804688 -223 c 0,18,19
 146.51953125 -223 146.51953125 -223 139.58984375 -211 c 128,-1,20
 132.66015625 -199 132.66015625 -199 130.01953125 -193 c 0,21,22
 87.1201171875 -98 87.1201171875 -98 70.9501953125 13 c 128,-1,23
 54.7802734375 124 54.7802734375 124 75.240234375 259 c 0,24,25
 83.8203125 317 83.8203125 317 100.3203125 376.5 c 128,-1,26
 116.8203125 436 116.8203125 436 139.919921875 493 c 128,-1,27
 163.01953125 550 163.01953125 550 191.0703125 601 c 128,-1,28
 219.120117188 652 219.120117188 652 250.139648438 694 c 0,29,30
 253.440429688 699 253.440429688 699 260.700195312 708.5 c 128,-1,31
 267.959960938 718 267.959960938 718 275.879882812 727 c 128,-1,32
 283.799804688 736 283.799804688 736 291.059570312 743.5 c 128,-1,33
 298.3203125 751 298.3203125 751 302.280273438 752 c 0,34,35
 308.219726562 745 308.219726562 745 310.200195312 734 c 0,0,1
EndSplineSet
EndChar

StartChar: parenright
Encoding: 41 41 26
Width: 219
Flags: W
LayerCount: 2
Fore
SplineSet
223.080078125 269 m 0,0,1
 209.879882812 180 209.879882812 180 179.51953125 93.5 c 128,-1,2
 149.16015625 7 149.16015625 7 110.219726562 -67 c 0,3,4
 99.66015625 -87 99.66015625 -87 86.4599609375 -109 c 128,-1,5
 73.259765625 -131 73.259765625 -131 58.41015625 -152.5 c 128,-1,6
 43.5595703125 -174 43.5595703125 -174 28.0498046875 -192.5 c 128,-1,7
 12.5400390625 -211 12.5400390625 -211 -1.98046875 -223 c 1,8,9
 -12.5400390625 -218 -12.5400390625 -218 -11.8798828125 -202 c 1,10,11
 15.1796875 -162 15.1796875 -162 40.919921875 -120 c 128,-1,12
 66.66015625 -78 66.66015625 -78 88.4404296875 -31 c 0,13,14
 120.120117188 37 120.120117188 37 141.240234375 111 c 128,-1,15
 162.360351562 185 162.360351562 185 174.240234375 262 c 0,16,17
 181.5 311 181.5 311 185.459960938 363 c 128,-1,18
 189.419921875 415 189.419921875 415 188.4296875 465 c 128,-1,19
 187.440429688 515 187.440429688 515 181.5 562 c 128,-1,20
 175.559570312 609 175.559570312 609 163.6796875 649 c 256,21,22
 152.459960938 689 152.459960938 689 144.870117188 705 c 128,-1,23
 137.280273438 721 137.280273438 721 133.98046875 732 c 0,24,25
 133.3203125 736 133.3203125 736 138.599609375 745 c 128,-1,26
 143.879882812 754 143.879882812 754 147.1796875 754 c 0,27,28
 149.16015625 754 149.16015625 754 152.459960938 750 c 128,-1,29
 155.759765625 746 155.759765625 746 158.73046875 741 c 128,-1,30
 161.700195312 736 161.700195312 736 164.33984375 731.5 c 128,-1,31
 166.98046875 727 166.98046875 727 168.299804688 724 c 0,32,33
 211.860351562 631 211.860351562 631 227.700195312 517 c 128,-1,34
 243.540039062 403 243.540039062 403 223.080078125 269 c 0,0,1
EndSplineSet
EndChar

StartChar: asterisk
Encoding: 42 42 27
Width: 325
Flags: W
LayerCount: 2
Fore
SplineSet
396 581 m 0,0,1
 397.3203125 571 397.3203125 571 394.6796875 567 c 128,-1,2
 392.040039062 563 392.040039062 563 386.759765625 560 c 0,3,4
 378.1796875 555 378.1796875 555 361.01953125 548 c 128,-1,5
 343.860351562 541 343.860351562 541 325.709960938 533 c 128,-1,6
 307.559570312 525 307.559570312 525 290.73046875 518.5 c 128,-1,7
 273.900390625 512 273.900390625 512 264.66015625 509 c 0,8,9
 256.740234375 505 256.740234375 505 256.080078125 513.5 c 128,-1,10
 255.419921875 522 255.419921875 522 260.040039062 529 c 0,11,12
 263.33984375 534 263.33984375 534 280.5 548 c 128,-1,13
 297.66015625 562 297.66015625 562 317.459960938 578 c 128,-1,14
 337.259765625 594 337.259765625 594 355.41015625 608.5 c 128,-1,15
 373.559570312 623 373.559570312 623 379.5 629 c 0,16,17
 382.799804688 631 382.799804688 631 387.419921875 630.5 c 128,-1,18
 392.040039062 630 392.040039062 630 390.719726562 621 c 0,19,20
 392.040039062 611 392.040039062 611 392.700195312 605.5 c 128,-1,21
 393.360351562 600 393.360351562 600 394.01953125 597 c 128,-1,22
 394.6796875 594 394.6796875 594 395.009765625 591 c 128,-1,23
 395.33984375 588 395.33984375 588 396 581 c 0,0,1
273.900390625 748 m 2,24,25
 275.879882812 748 275.879882812 748 278.849609375 747 c 128,-1,26
 281.8203125 746 281.8203125 746 288.419921875 746 c 0,27,28
 294.360351562 748 294.360351562 748 295.349609375 741 c 128,-1,29
 296.33984375 734 296.33984375 734 293.700195312 729 c 0,30,31
 291.059570312 718 291.059570312 718 285.120117188 688.5 c 128,-1,32
 279.1796875 659 279.1796875 659 272.25 627.5 c 128,-1,33
 265.3203125 596 265.3203125 596 259.379882812 569 c 128,-1,34
 253.440429688 542 253.440429688 542 250.139648438 536 c 0,35,36
 246.1796875 526 246.1796875 526 240.900390625 525 c 0,37,38
 236.280273438 525 236.280273438 525 236.280273438 540 c 0,39,40
 236.280273438 553 236.280273438 553 237.599609375 579 c 128,-1,41
 238.919921875 605 238.919921875 605 241.23046875 634 c 128,-1,42
 243.540039062 663 243.540039062 663 245.51953125 689.5 c 128,-1,43
 247.5 716 247.5 716 249.48046875 730 c 0,44,45
 251.459960938 738 251.459960938 738 253.440429688 743 c 128,-1,46
 255.419921875 748 255.419921875 748 262.01953125 748 c 2,47,-1
 273.900390625 748 l 2,24,25
108.240234375 332 m 0,48,49
 104.280273438 340 104.280273438 340 104.940429688 343 c 0,50,51
 105.599609375 348 105.599609375 348 110.879882812 355 c 0,52,53
 118.139648438 365 118.139648438 365 132.990234375 383.5 c 128,-1,54
 147.83984375 402 147.83984375 402 163.6796875 421 c 128,-1,55
 179.51953125 440 179.51953125 440 194.700195312 457 c 128,-1,56
 209.879882812 474 209.879882812 474 218.459960938 482 c 0,57,58
 225.719726562 491 225.719726562 491 229.349609375 485.5 c 128,-1,59
 232.98046875 480 232.98046875 480 229.01953125 469 c 0,60,61
 227.040039062 463 227.040039062 463 214.169921875 440.5 c 128,-1,62
 201.299804688 418 201.299804688 418 186.120117188 391.5 c 128,-1,63
 170.940429688 365 170.940429688 365 156.75 340.5 c 128,-1,64
 142.559570312 316 142.559570312 316 137.940429688 307 c 0,65,66
 135.959960938 302 135.959960938 302 130.6796875 299 c 128,-1,67
 125.400390625 296 125.400390625 296 123.419921875 304 c 0,68,69
 118.799804688 311 118.799804688 311 117.150390625 314 c 128,-1,70
 115.5 317 115.5 317 114.509765625 319.5 c 128,-1,71
 113.51953125 322 113.51953125 322 112.200195312 324.5 c 128,-1,72
 110.879882812 327 110.879882812 327 108.240234375 332 c 0,48,49
291.059570312 300 m 0,73,74
 281.8203125 290 281.8203125 290 275.879882812 304 c 0,75,76
 273.240234375 315 273.240234375 315 268.620117188 338 c 128,-1,77
 264 361 264 361 258.719726562 386.5 c 128,-1,78
 253.440429688 412 253.440429688 412 249.150390625 435 c 128,-1,79
 244.860351562 458 244.860351562 458 242.879882812 470 c 0,80,81
 240.900390625 481 240.900390625 481 245.849609375 487.5 c 128,-1,82
 250.799804688 494 250.799804688 494 255.419921875 487 c 0,83,84
 258.719726562 485 258.719726562 485 268.290039062 465.5 c 128,-1,85
 277.860351562 446 277.860351562 446 288.08984375 422.5 c 128,-1,86
 298.3203125 399 298.3203125 399 307.23046875 377.5 c 128,-1,87
 316.139648438 356 316.139648438 356 319.440429688 350 c 0,88,89
 322.080078125 346 322.080078125 346 321.75 339 c 128,-1,90
 321.419921875 332 321.419921875 332 316.139648438 329 c 0,91,92
 309.540039062 321 309.540039062 321 306.240234375 316.5 c 128,-1,93
 302.940429688 312 302.940429688 312 301.290039062 310 c 128,-1,94
 299.639648438 308 299.639648438 308 297.66015625 306 c 128,-1,95
 295.6796875 304 295.6796875 304 291.059570312 300 c 0,73,74
106.259765625 580 m 0,96,97
 108.900390625 587 108.900390625 587 110.549804688 590 c 128,-1,98
 112.200195312 593 112.200195312 593 113.190429688 596 c 128,-1,99
 114.1796875 599 114.1796875 599 116.16015625 603.5 c 128,-1,100
 118.139648438 608 118.139648438 608 122.759765625 620 c 0,101,102
 124.740234375 630 124.740234375 630 130.01953125 630 c 0,103,104
 134.639648438 630 134.639648438 630 137.280273438 625 c 0,105,106
 141.900390625 619 141.900390625 619 155.4296875 605 c 128,-1,107
 168.959960938 591 168.959960938 591 183.809570312 575 c 128,-1,108
 198.66015625 559 198.66015625 559 210.870117188 545 c 128,-1,109
 223.080078125 531 223.080078125 531 225.059570312 526 c 0,110,111
 228.360351562 518 228.360351562 518 224.400390625 509.5 c 128,-1,112
 220.440429688 501 220.440429688 501 213.1796875 504 c 0,113,114
 206.580078125 507 206.580078125 507 191.400390625 513.5 c 128,-1,115
 176.219726562 520 176.219726562 520 160.049804688 528.5 c 128,-1,116
 143.879882812 537 143.879882812 537 129.030273438 544.5 c 128,-1,117
 114.1796875 552 114.1796875 552 108.240234375 558 c 0,118,119
 103.620117188 561 103.620117188 561 102.629882812 565.5 c 128,-1,120
 101.639648438 570 101.639648438 570 106.259765625 580 c 0,96,97
EndSplineSet
EndChar

StartChar: plus
Encoding: 43 43 28
Width: 299
Flags: W
LayerCount: 2
Fore
SplineSet
157.080078125 48 m 1,0,1
 152.459960938 48 152.459960938 48 146.51953125 48.5 c 128,-1,2
 140.580078125 49 140.580078125 49 137.280273438 54 c 1,3,4
 142.559570312 81 142.559570312 81 148.169921875 120 c 128,-1,5
 153.780273438 159 153.780273438 159 163.6796875 222 c 1,6,-1
 63.3603515625 222 l 1,7,8
 59.400390625 239 59.400390625 239 60.7197265625 252 c 128,-1,9
 62.0400390625 265 62.0400390625 265 73.919921875 288 c 1,10,11
 86.4599609375 287 86.4599609375 287 99.66015625 287 c 256,12,13
 112.200195312 287 112.200195312 287 124.080078125 287 c 2,14,-1
 172.919921875 287 l 1,15,-1
 197.33984375 450 l 1,16,17
 209.219726562 461 209.219726562 461 217.469726562 462 c 128,-1,18
 225.719726562 463 225.719726562 463 237.599609375 450 c 1,19,20
 233.639648438 428 233.639648438 428 230.33984375 407 c 0,21,22
 227.040039062 387 227.040039062 387 224.400390625 366 c 2,23,-1
 212.51953125 286 l 1,24,-1
 318.120117188 286 l 1,25,26
 318.120117188 276 318.120117188 276 316.799804688 270 c 2,27,-1
 314.8203125 256 l 2,28,29
 313.5 248 313.5 248 311.849609375 238 c 128,-1,30
 310.200195312 228 310.200195312 228 306.240234375 222 c 1,31,32
 289.740234375 224 289.740234375 224 265.650390625 223.5 c 128,-1,33
 241.559570312 223 241.559570312 223 201.959960938 223 c 1,34,-1
 175.559570312 50 l 1,35,36
 168.959960938 48 168.959960938 48 165.66015625 48 c 2,37,-1
 157.080078125 48 l 1,0,1
EndSplineSet
EndChar

StartChar: comma
Encoding: 44 44 29
Width: 159
Flags: W
LayerCount: 2
Fore
SplineSet
131.33984375 -9 m 0,0,1
 126.059570312 -45 126.059570312 -45 111.209960938 -77 c 128,-1,2
 96.3603515625 -109 96.3603515625 -109 77.2197265625 -133 c 0,3,4
 62.0400390625 -152 62.0400390625 -152 43.5595703125 -169 c 128,-1,5
 25.080078125 -186 25.080078125 -186 11.8798828125 -189 c 0,6,7
 8.580078125 -190 8.580078125 -190 6.26953125 -184 c 128,-1,8
 3.9599609375 -178 3.9599609375 -178 5.2802734375 -173 c 0,9,10
 7.259765625 -166 7.259765625 -166 18.8095703125 -156 c 128,-1,11
 30.3603515625 -146 30.3603515625 -146 43.5595703125 -131.5 c 128,-1,12
 56.759765625 -117 56.759765625 -117 68.9697265625 -97 c 128,-1,13
 81.1796875 -77 81.1796875 -77 85.1396484375 -50 c 0,14,15
 87.7802734375 -34 87.7802734375 -34 86.4599609375 -25 c 128,-1,16
 85.1396484375 -16 85.1396484375 -16 81.509765625 -11.5 c 128,-1,17
 77.8798828125 -7 77.8798828125 -7 71.6103515625 -4 c 128,-1,18
 65.33984375 -1 65.33984375 -1 58.740234375 4 c 0,19,20
 49.5 12 49.5 12 43.23046875 23 c 128,-1,21
 36.9599609375 34 36.9599609375 34 40.259765625 54 c 0,22,23
 42.240234375 69 42.240234375 69 48.1796875 80 c 128,-1,24
 54.1201171875 91 54.1201171875 91 61.3798828125 97.5 c 128,-1,25
 68.6396484375 104 68.6396484375 104 77.2197265625 107.5 c 128,-1,26
 85.7998046875 111 85.7998046875 111 93.7197265625 111 c 0,27,28
 106.919921875 111 106.919921875 111 115.5 99 c 128,-1,29
 124.080078125 87 124.080078125 87 128.700195312 69 c 128,-1,30
 133.3203125 51 133.3203125 51 133.650390625 30 c 128,-1,31
 133.98046875 9 133.98046875 9 131.33984375 -9 c 0,0,1
EndSplineSet
EndChar

StartChar: hyphen
Encoding: 45 45 30
Width: 234
Flags: W
LayerCount: 2
Fore
SplineSet
71.2802734375 278 m 0,0,1
 71.9404296875 283 71.9404296875 283 81.509765625 284 c 128,-1,2
 91.080078125 285 91.080078125 285 100.3203125 285 c 2,3,-1
 110.879882812 285 l 2,4,5
 146.51953125 285 146.51953125 285 182.16015625 284 c 128,-1,6
 217.799804688 283 217.799804688 283 254.099609375 286 c 0,7,8
 258.059570312 286 258.059570312 286 254.759765625 267 c 2,9,-1
 248.8203125 226 l 2,10,11
 248.16015625 221 248.16015625 221 241.23046875 219.5 c 128,-1,12
 234.299804688 218 234.299804688 218 227.040039062 218 c 2,13,-1
 84.48046875 218 l 2,14,15
 77.2197265625 218 77.2197265625 218 69.6298828125 219 c 128,-1,16
 62.0400390625 220 62.0400390625 220 62.7001953125 223 c 0,17,18
 63.3603515625 230 63.3603515625 230 65.33984375 240.5 c 128,-1,19
 67.3203125 251 67.3203125 251 71.2802734375 278 c 0,0,1
EndSplineSet
EndChar

StartChar: period
Encoding: 46 46 31
Width: 155
Flags: W
LayerCount: 2
Fore
SplineSet
116.8203125 44 m 256,0,1
 112.860351562 17 112.860351562 17 99.66015625 1 c 128,-1,2
 86.4599609375 -15 86.4599609375 -15 69.9599609375 -15 c 256,3,4
 53.4599609375 -15 53.4599609375 -15 45.2099609375 1.5 c 128,-1,5
 36.9599609375 18 36.9599609375 18 40.919921875 46 c 256,6,7
 44.8798828125 74 44.8798828125 74 59.73046875 92 c 128,-1,8
 74.580078125 110 74.580078125 110 90.419921875 110 c 0,9,10
 108.240234375 110 108.240234375 110 114.509765625 90.5 c 128,-1,11
 120.780273438 71 120.780273438 71 116.8203125 44 c 256,0,1
EndSplineSet
EndChar

StartChar: slash
Encoding: 47 47 32
Width: 236
Flags: W
LayerCount: 2
Fore
SplineSet
333.959960938 744 m 1,0,1
 317.459960938 694 317.459960938 694 298.98046875 646.5 c 128,-1,2
 280.5 599 280.5 599 261.360351562 550 c 0,3,4
 205.259765625 404 205.259765625 404 150.150390625 261 c 128,-1,5
 95.0400390625 118 95.0400390625 118 41.580078125 -31 c 1,6,7
 38.2802734375 -31 38.2802734375 -31 30.6904296875 -32 c 128,-1,8
 23.099609375 -33 23.099609375 -33 7.259765625 -31 c 1,9,10
 80.51953125 165 80.51953125 165 154.110351562 355.5 c 128,-1,11
 227.700195312 546 227.700195312 546 298.98046875 743 c 1,12,13
 305.580078125 746 305.580078125 746 316.139648438 746 c 0,14,15
 320.759765625 746 320.759765625 746 326.040039062 745.5 c 128,-1,16
 331.3203125 745 331.3203125 745 333.959960938 744 c 1,0,1
EndSplineSet
EndChar

StartChar: zero
Encoding: 48 48 33
Width: 379
Flags: W
LayerCount: 2
Fore
SplineSet
147.1796875 324.5 m 132,-1,1
 138.599609375 267 138.599609375 267 135.299804688 214 c 132,-1,2
 132 161 132 161 136.950195312 117.5 c 132,-1,3
 141.900390625 74 141.900390625 74 156.419921875 47 c 4,4,5
 171.599609375 19 171.599609375 19 199.3203125 19 c 4,6,7
 221.759765625 19 221.759765625 19 242.879882812 43.5 c 132,-1,8
 264 68 264 68 282.48046875 111 c 132,-1,9
 300.959960938 154 300.959960938 154 315.150390625 208.5 c 132,-1,10
 329.33984375 263 329.33984375 263 338.580078125 320 c 4,11,12
 347.8203125 379 347.8203125 379 351.120117188 438 c 4,13,14
 358.379882812 565 358.379882812 565 330.66015625 621 c 4,15,16
 316.139648438 650 316.139648438 650 289.740234375 650 c 6,17,18
 288.419921875 641 288.419921875 641 289.740234375 650 c 6,19,20
 288.419921875 650 288.419921875 650 287.099609375 650 c 4,21,22
 265.3203125 650 265.3203125 650 244.530273438 622.5 c 132,-1,23
 223.740234375 595 223.740234375 595 205.259765625 549.5 c 132,-1,24
 186.780273438 504 186.780273438 504 172.259765625 447 c 4,25,0
 155.759765625 382 155.759765625 382 147.1796875 324.5 c 132,-1,1
398.969726562 602 m 132,-1,27
 413.16015625 555 413.16015625 555 415.799804688 489 c 132,-1,28
 418.440429688 423 418.440429688 423 406.889648438 348 c 132,-1,29
 395.33984375 273 395.33984375 273 373.889648438 205 c 132,-1,30
 352.440429688 137 352.440429688 137 324.059570312 85.5 c 132,-1,31
 295.6796875 34 295.6796875 34 261.360351562 3 c 4,32,33
 226.379882812 -28 226.379882812 -28 189.75 -28 c 132,-1,34
 153.120117188 -28 153.120117188 -28 126.719726562 -2 c 4,35,36
 100.3203125 24 100.3203125 24 86.7900390625 72.5 c 132,-1,37
 73.259765625 121 73.259765625 121 71.6103515625 186 c 132,-1,38
 69.9599609375 251 69.9599609375 251 81.83984375 329 c 132,-1,39
 93.7197265625 407 93.7197265625 407 115.5 475 c 132,-1,40
 137.280273438 543 137.280273438 543 165.66015625 593 c 132,-1,41
 194.040039062 643 194.040039062 643 227.700195312 674 c 4,42,43
 262.6796875 705 262.6796875 705 297.990234375 704.5 c 132,-1,44
 333.299804688 704 333.299804688 704 359.040039062 677 c 4,45,26
 384.780273438 649 384.780273438 649 398.969726562 602 c 132,-1,27
EndSplineSet
EndChar

StartChar: one
Encoding: 49 49 34
Width: 227
Flags: W
LayerCount: 2
Fore
SplineSet
254.099609375 698 m 5,0,1
 254.099609375 683 254.099609375 683 245.51953125 645 c 4,2,3
 242.219726562 629 242.219726562 629 240.240234375 625 c 4,4,5
 231.66015625 609 231.66015625 609 229.01953125 589 c 4,6,7
 229.01953125 588 229.01953125 588 221.099609375 538 c 4,8,9
 207.240234375 449 207.240234375 449 192.719726562 361 c 4,10,11
 178.200195312 272 178.200195312 272 165 183 c 6,12,-1
 161.700195312 160 l 5,13,-1
 165 183 l 5,14,-1
 159.059570312 144 l 5,15,-1
 161.700195312 160 l 5,16,17
 159.059570312 138 159.059570312 138 157.080078125 114 c 132,-1,18
 155.099609375 90 155.099609375 90 159.719726562 77 c 4,19,20
 163.01953125 64 163.01953125 64 172.259765625 60 c 4,21,22
 181.5 55 181.5 55 189.75 51 c 132,-1,23
 198 47 198 47 204.26953125 42 c 132,-1,24
 210.540039062 37 210.540039062 37 208.559570312 23 c 4,25,26
 205.259765625 0 205.259765625 0 195.360351562 -2 c 4,27,28
 185.459960938 -5 185.459960938 -5 176.879882812 -5 c 4,29,30
 159.059570312 -5 159.059570312 -5 141.900390625 0 c 4,31,32
 125.400390625 5 125.400390625 5 107.580078125 5 c 4,33,34
 98.33984375 5 98.33984375 5 91.080078125 3 c 4,35,36
 83.8203125 2 83.8203125 2 77.5498046875 -0.5 c 132,-1,37
 71.2802734375 -3 71.2802734375 -3 64.01953125 -5 c 4,38,39
 47.51953125 -6 47.51953125 -6 47.51953125 -6 c 6,40,-1
 38.9404296875 -6 l 6,41,42
 33 -6 33 -6 27.7197265625 -0.5 c 132,-1,43
 22.4404296875 5 22.4404296875 5 25.080078125 23 c 4,44,45
 27.0595703125 37 27.0595703125 37 34.3203125 43 c 132,-1,46
 41.580078125 49 41.580078125 49 50.8203125 53 c 132,-1,47
 60.0595703125 57 60.0595703125 57 69.9599609375 62 c 4,48,49
 80.51953125 68 80.51953125 68 88.4404296875 81 c 4,50,51
 96.3603515625 93 96.3603515625 93 102.959960938 126 c 132,-1,52
 109.559570312 159 109.559570312 159 114.1796875 189 c 6,53,-1
 119.459960938 221 l 5,54,-1
 136.620117188 334 l 6,55,56
 143.219726562 375 143.219726562 375 149.8203125 414 c 4,57,58
 156.419921875 454 156.419921875 454 161.700195312 492 c 6,59,-1
 166.3203125 523 l 6,60,61
 174.900390625 578 174.900390625 578 173.580078125 581 c 4,62,63
 170.940429688 592 170.940429688 592 163.01953125 592 c 4,64,65
 145.200195312 594 145.200195312 594 145.200195312 594 c 4,66,67
 139.919921875 594 139.919921875 594 133.98046875 594 c 4,68,69
 126.719726562 594 126.719726562 594 119.459960938 601 c 4,70,71
 112.200195312 607 112.200195312 607 120.120117188 642 c 4,72,73
 124.080078125 658 124.080078125 658 125.400390625 658 c 4,74,75
 138.599609375 663 138.599609375 663 140.580078125 663 c 4,76,77
 164.33984375 670 164.33984375 670 192.059570312 692 c 4,78,79
 207.900390625 704 207.900390625 704 236.940429688 702 c 4,80,81
 242.219726562 702 242.219726562 702 246.83984375 702 c 5,82,83
 254.099609375 698 254.099609375 698 254.099609375 698 c 5,0,1
EndSplineSet
EndChar

StartChar: two
Encoding: 50 50 35
Width: 313
Flags: W
LayerCount: 2
Fore
SplineSet
94.087890625 541.490234375 m 0,0,1
 94.828125 547.419921875 94.828125 547.419921875 98.1630859375 559.280273438 c 128,-1,2
 101.49609375 571.139648438 101.49609375 571.139648438 107.052734375 582.258789062 c 128,-1,3
 112.609375 593.377929688 112.609375 593.377929688 117.424804688 604.49609375 c 128,-1,4
 122.240234375 615.615234375 122.240234375 615.615234375 124.462890625 620.0625 c 0,5,6
 142.984375 654.16015625 142.984375 654.16015625 156.690429688 671.208984375 c 128,-1,7
 170.395507812 688.2578125 170.395507812 688.2578125 182.249023438 695.669921875 c 128,-1,8
 194.102539062 703.08203125 194.102539062 703.08203125 204.474609375 704.565429688 c 128,-1,9
 214.846679688 706.047851562 214.846679688 706.047851562 225.21875 706.047851562 c 0,10,11
 276.336914062 706.047851562 276.336914062 706.047851562 291.89453125 637.111328125 c 128,-1,12
 307.453125 568.174804688 307.453125 568.174804688 279.30078125 454.022460938 c 0,13,14
 272.6328125 424.372070312 272.6328125 424.372070312 257.815429688 385.0859375 c 128,-1,15
 242.999023438 345.799804688 242.999023438 345.799804688 224.477539062 304.290039062 c 128,-1,16
 205.956054688 262.780273438 205.956054688 262.780273438 185.583007812 222.752929688 c 128,-1,17
 165.208984375 182.724609375 165.208984375 182.724609375 147.4296875 150.110351562 c 128,-1,18
 129.6484375 117.495117188 129.6484375 117.495117188 116.313476562 95.2578125 c 128,-1,19
 102.978515625 73.01953125 102.978515625 73.01953125 99.2734375 68.572265625 c 1,20,21
 107.423828125 59.677734375 107.423828125 59.677734375 128.537109375 56.712890625 c 128,-1,22
 149.651367188 53.7470703125 149.651367188 53.7470703125 173.359375 55.9716796875 c 128,-1,23
 197.06640625 58.1953125 197.06640625 58.1953125 218.55078125 67.08984375 c 128,-1,24
 240.036132812 75.9853515625 240.036132812 75.9853515625 247.444335938 90.8095703125 c 0,25,26
 256.333984375 110.08203125 256.333984375 110.08203125 267.447265625 134.543945312 c 128,-1,27
 278.559570312 159.004882812 278.559570312 159.004882812 288.190429688 181.983398438 c 128,-1,28
 297.822265625 204.962890625 297.822265625 204.962890625 305.600585938 222.752929688 c 128,-1,29
 313.379882812 240.54296875 313.379882812 240.54296875 315.6015625 244.990234375 c 0,30,31
 323.010742188 261.297851562 323.010742188 261.297851562 330.418945312 254.625976562 c 128,-1,32
 337.828125 247.955078125 337.828125 247.955078125 339.309570312 234.612304688 c 1,33,34
 314.861328125 173.830078125 314.861328125 173.830078125 302.267578125 125.6484375 c 128,-1,35
 289.671875 77.4677734375 289.671875 77.4677734375 284.116210938 45.59375 c 128,-1,36
 278.559570312 13.7197265625 278.559570312 13.7197265625 275.966796875 -2.587890625 c 128,-1,37
 273.373046875 -18.89453125 273.373046875 -18.89453125 267.447265625 -17.412109375 c 0,38,39
 247.444335938 -14.447265625 247.444335938 -14.447265625 219.291015625 -4.8115234375 c 128,-1,40
 191.139648438 4.8251953125 191.139648438 4.8251953125 147.4296875 7.7900390625 c 0,41,42
 128.908203125 7.7900390625 128.908203125 7.7900390625 105.94140625 7.048828125 c 128,-1,43
 82.974609375 6.3076171875 82.974609375 6.3076171875 64.4541015625 6.3076171875 c 0,44,45
 61.4912109375 6.3076171875 61.4912109375 6.3076171875 55.5634765625 -6.2939453125 c 128,-1,46
 49.63671875 -18.89453125 49.63671875 -18.89453125 46.673828125 -15.9296875 c 0,47,48
 40.005859375 -15.9296875 40.005859375 -15.9296875 37.04296875 -10 c 128,-1,49
 34.0791015625 -4.0703125 34.0791015625 -4.0703125 36.3017578125 15.2021484375 c 0,50,51
 37.04296875 22.615234375 37.04296875 22.615234375 41.48828125 30.02734375 c 0,52,53
 66.6767578125 77.4677734375 66.6767578125 77.4677734375 92.9765625 132.3203125 c 128,-1,54
 119.27734375 187.172851562 119.27734375 187.172851562 142.61328125 242.025390625 c 128,-1,55
 165.951171875 296.877929688 165.951171875 296.877929688 185.212890625 347.282226562 c 128,-1,56
 204.474609375 397.6875 204.474609375 397.6875 217.069335938 439.197265625 c 0,57,58
 241.516601562 522.217773438 241.516601562 522.217773438 232.255859375 571.139648438 c 128,-1,59
 222.995117188 620.0625 222.995117188 620.0625 187.434570312 620.0625 c 0,60,61
 165.208984375 620.0625 165.208984375 620.0625 151.50390625 606.719726562 c 128,-1,62
 137.797851562 593.377929688 137.797851562 593.377929688 128.908203125 576.329101562 c 128,-1,63
 120.017578125 559.280273438 120.017578125 559.280273438 114.090820312 543.713867188 c 128,-1,64
 108.1640625 528.147460938 108.1640625 528.147460938 103.719726562 523.700195312 c 256,65,66
 99.2734375 519.252929688 99.2734375 519.252929688 95.939453125 525.182617188 c 128,-1,67
 92.6064453125 531.112304688 92.6064453125 531.112304688 94.087890625 541.490234375 c 0,0,1
EndSplineSet
EndChar

StartChar: three
Encoding: 51 51 36
Width: 254
Flags: W
LayerCount: 2
Fore
SplineSet
118.799804688 621 m 4,0,1
 120.120117188 634 120.120117188 634 130.349609375 650.5 c 132,-1,2
 140.580078125 667 140.580078125 667 155.4296875 681.5 c 132,-1,3
 170.280273438 696 170.280273438 696 187.110351562 706 c 132,-1,4
 203.940429688 716 203.940429688 716 219.120117188 716 c 132,-1,5
 234.299804688 716 234.299804688 716 247.169921875 710 c 132,-1,6
 260.040039062 704 260.040039062 704 269.280273438 690 c 132,-1,7
 278.51953125 676 278.51953125 676 282.150390625 654.5 c 132,-1,8
 285.780273438 633 285.780273438 633 281.16015625 601 c 4,9,10
 277.860351562 579 277.860351562 579 264.990234375 552.5 c 132,-1,11
 252.120117188 526 252.120117188 526 235.950195312 500.5 c 132,-1,12
 219.780273438 475 219.780273438 475 203.280273438 454 c 132,-1,13
 186.780273438 433 186.780273438 433 176.219726562 423 c 5,14,15
 204.599609375 427 204.599609375 427 225.059570312 415.5 c 132,-1,16
 245.51953125 404 245.51953125 404 257.400390625 380 c 132,-1,17
 269.280273438 356 269.280273438 356 272.580078125 322 c 132,-1,18
 275.879882812 288 275.879882812 288 269.280273438 249 c 4,19,20
 260.700195312 191 260.700195312 191 233.639648438 138 c 132,-1,21
 206.580078125 85 206.580078125 85 171.9296875 45 c 132,-1,22
 137.280273438 5 137.280273438 5 98.669921875 -18.5 c 132,-1,23
 60.0595703125 -42 60.0595703125 -42 27.0595703125 -43 c 4,24,25
 23.099609375 -43 23.099609375 -43 21.7802734375 -39.5 c 132,-1,26
 20.4599609375 -36 20.4599609375 -36 21.7802734375 -31 c 132,-1,27
 23.099609375 -26 23.099609375 -26 25.41015625 -22.5 c 132,-1,28
 27.7197265625 -19 27.7197265625 -19 29.7001953125 -19 c 4,29,30
 60.7197265625 -6 60.7197265625 -6 90.419921875 15 c 132,-1,31
 120.120117188 36 120.120117188 36 144.540039062 65.5 c 132,-1,32
 168.959960938 95 168.959960938 95 186.120117188 132.5 c 132,-1,33
 203.280273438 170 203.280273438 170 210.540039062 217 c 4,34,35
 214.5 242 214.5 242 213.509765625 266.5 c 132,-1,36
 212.51953125 291 212.51953125 291 207.900390625 312 c 132,-1,37
 203.280273438 333 203.280273438 333 193.049804688 347.5 c 132,-1,38
 182.8203125 362 182.8203125 362 168.299804688 367 c 4,39,40
 156.419921875 371 156.419921875 371 142.559570312 373 c 132,-1,41
 128.700195312 375 128.700195312 375 114.1796875 364 c 4,42,43
 109.559570312 361 109.559570312 361 100.3203125 352 c 132,-1,44
 91.080078125 343 91.080078125 343 87.7802734375 343 c 4,45,46
 78.5400390625 343 78.5400390625 343 81.1796875 361 c 4,47,48
 82.5 370 82.5 370 91.740234375 376.5 c 132,-1,49
 100.98046875 383 100.98046875 383 104.940429688 386 c 4,50,51
 120.780273438 398 120.780273438 398 140.580078125 418.5 c 132,-1,52
 160.379882812 439 160.379882812 439 179.190429688 464 c 132,-1,53
 198 489 198 489 211.860351562 517 c 132,-1,54
 225.719726562 545 225.719726562 545 230.33984375 573 c 4,55,56
 237.599609375 622 237.599609375 622 226.049804688 645.5 c 132,-1,57
 214.5 669 214.5 669 194.700195312 669 c 260,58,59
 174.240234375 669 174.240234375 669 159.719726562 652.5 c 132,-1,60
 145.200195312 636 145.200195312 636 126.059570312 610 c 4,61,62
 122.759765625 606 122.759765625 606 120.780273438 610.5 c 132,-1,63
 118.799804688 615 118.799804688 615 118.799804688 621 c 4,0,1
EndSplineSet
EndChar

StartChar: four
Encoding: 52 52 37
Width: 362
Flags: W
LayerCount: 2
Fore
SplineSet
398.639648438 255 m 4,0,1
 395.33984375 233 395.33984375 233 381.48046875 233 c 4,2,3
 374.219726562 233 374.219726562 233 366.629882812 234 c 132,-1,4
 359.040039062 235 359.040039062 235 351.120117188 235 c 6,5,-1
 339.240234375 235 l 6,6,7
 328.01953125 235 328.01953125 235 318.780273438 235.5 c 132,-1,8
 309.540039062 236 309.540039062 236 302.610351562 234.5 c 132,-1,9
 295.6796875 233 295.6796875 233 291.059570312 228 c 132,-1,10
 286.440429688 223 286.440429688 223 285.120117188 212 c 6,11,-1
 254.099609375 8 l 6,12,13
 252.780273438 0 252.780273438 0 251.129882812 -8 c 132,-1,14
 249.48046875 -16 249.48046875 -16 249.48046875 -24 c 4,15,16
 245.51953125 -40 245.51953125 -40 235.620117188 -47 c 132,-1,17
 225.719726562 -54 225.719726562 -54 214.5 -54 c 4,18,19
 205.919921875 -54 205.919921875 -54 199.650390625 -49.5 c 132,-1,20
 193.379882812 -45 193.379882812 -45 194.700195312 -39 c 4,21,22
 198.66015625 -22 198.66015625 -22 202.950195312 5.5 c 132,-1,23
 207.240234375 33 207.240234375 33 211.860351562 62 c 6,24,-1
 226.379882812 155 l 6,25,26
 227.700195312 162 227.700195312 162 229.01953125 171.5 c 132,-1,27
 230.33984375 181 230.33984375 181 231.66015625 190 c 4,28,29
 234.959960938 212 234.959960938 212 232.3203125 221.5 c 132,-1,30
 229.6796875 231 229.6796875 231 223.080078125 234 c 132,-1,31
 216.48046875 237 216.48046875 237 208.889648438 236 c 132,-1,32
 201.299804688 235 201.299804688 235 194.700195312 235 c 4,33,34
 159.059570312 235 159.059570312 235 123.419921875 231 c 132,-1,35
 87.7802734375 227 87.7802734375 227 51.48046875 227 c 4,36,37
 46.8603515625 227 46.8603515625 227 45.5400390625 235.5 c 132,-1,38
 44.2197265625 244 44.2197265625 244 49.5 253 c 4,39,40
 59.400390625 271 59.400390625 271 75.900390625 298.5 c 132,-1,41
 92.400390625 326 92.400390625 326 111.209960938 358 c 132,-1,42
 130.01953125 390 130.01953125 390 150.809570312 424 c 132,-1,43
 171.599609375 458 171.599609375 458 190.41015625 489.5 c 132,-1,44
 209.219726562 521 209.219726562 521 225.389648438 547.5 c 132,-1,45
 241.559570312 574 241.559570312 574 252.780273438 590 c 4,46,47
 264 608 264 608 269.280273438 618.5 c 132,-1,48
 274.559570312 629 274.559570312 629 278.849609375 638 c 132,-1,49
 283.139648438 647 283.139648438 647 288.08984375 657 c 132,-1,50
 293.040039062 667 293.040039062 667 304.259765625 687 c 4,51,52
 310.200195312 697 310.200195312 697 319.440429688 701 c 132,-1,53
 328.6796875 705 328.6796875 705 337.919921875 705 c 260,54,55
 346.5 705 346.5 705 351.780273438 700 c 132,-1,56
 357.059570312 695 357.059570312 695 355.080078125 687 c 4,57,58
 354.419921875 684 354.419921875 684 353.759765625 673.5 c 132,-1,59
 353.099609375 663 353.099609375 663 347.8203125 627 c 6,60,-1
 297.66015625 303 l 6,61,62
 295.6796875 289 295.6796875 289 309.540039062 288 c 6,63,-1
 339.240234375 288 l 6,64,65
 352.440429688 288 352.440429688 288 364.3203125 288.5 c 132,-1,66
 376.200195312 289 376.200195312 289 382.139648438 289 c 4,67,68
 390.719726562 289 390.719726562 289 395.669921875 279 c 132,-1,69
 400.620117188 269 400.620117188 269 398.639648438 255 c 4,0,1
108.900390625 300 m 4,70,71
 107.580078125 292 107.580078125 292 111.870117188 289 c 132,-1,72
 116.16015625 286 116.16015625 286 119.459960938 286 c 4,73,74
 125.400390625 286 125.400390625 286 141.900390625 287 c 132,-1,75
 158.400390625 288 158.400390625 288 177.209960938 288.5 c 132,-1,76
 196.01953125 289 196.01953125 289 211.200195312 290 c 132,-1,77
 226.379882812 291 226.379882812 291 229.6796875 291 c 4,78,79
 242.219726562 291 242.219726562 291 245.51953125 297 c 132,-1,80
 248.8203125 303 248.8203125 303 251.459960938 316 c 6,81,-1
 260.040039062 374 l 6,82,83
 265.3203125 409 265.3203125 409 270.9296875 449 c 132,-1,84
 276.540039062 489 276.540039062 489 283.139648438 530 c 6,85,-1
 294.360351562 607 l 5,86,87
 262.6796875 555 262.6796875 555 220.76953125 489.5 c 132,-1,88
 178.860351562 424 178.860351562 424 132.66015625 346 c 4,89,90
 127.379882812 337 127.379882812 337 119.129882812 324 c 132,-1,91
 110.879882812 311 110.879882812 311 108.900390625 300 c 4,70,71
EndSplineSet
EndChar

StartChar: five
Encoding: 53 53 38
Width: 304
Flags: W
LayerCount: 2
Fore
SplineSet
383.790039062 776.5 m 4,0,1
 385.110351562 773.5 385.110351562 773.5 383.129882812 764 c 132,-1,2
 381.150390625 754.5 381.150390625 754.5 376.860351562 741 c 132,-1,3
 372.5703125 727.5 372.5703125 727.5 366.629882812 709.5 c 132,-1,4
 360.690429688 691.5 360.690429688 691.5 355.41015625 670.5 c 4,5,6
 352.110351562 660.5 352.110351562 660.5 348.150390625 649.5 c 132,-1,7
 344.190429688 638.5 344.190429688 638.5 338.580078125 628.5 c 132,-1,8
 332.969726562 618.5 332.969726562 618.5 325.379882812 612.5 c 132,-1,9
 317.790039062 606.5 317.790039062 606.5 307.889648438 606.5 c 4,10,11
 299.969726562 606.5 299.969726562 606.5 281.490234375 606.5 c 4,12,13
 263.669921875 606.5 263.669921875 606.5 243.870117188 606.5 c 260,14,15
 224.0703125 606.5 224.0703125 606.5 208.23046875 605 c 132,-1,16
 192.389648438 603.5 192.389648438 603.5 189.08984375 600.5 c 4,17,18
 184.469726562 600.5 184.469726562 600.5 176.549804688 580 c 132,-1,19
 168.629882812 559.5 168.629882812 559.5 159.719726562 533.5 c 132,-1,20
 150.809570312 507.5 150.809570312 507.5 142.559570312 482 c 132,-1,21
 134.309570312 456.5 134.309570312 456.5 129.690429688 446.5 c 5,22,23
 140.25 453.5 140.25 453.5 153.450195312 465 c 132,-1,24
 166.650390625 476.5 166.650390625 476.5 182.8203125 486 c 132,-1,25
 198.990234375 495.5 198.990234375 495.5 217.799804688 501.5 c 132,-1,26
 236.610351562 507.5 236.610351562 507.5 259.049804688 501.5 c 4,27,28
 285.450195312 494.5 285.450195312 494.5 302.610351562 473.5 c 132,-1,29
 319.76953125 452.5 319.76953125 452.5 328.01953125 422 c 132,-1,30
 336.26953125 391.5 336.26953125 391.5 335.280273438 352 c 132,-1,31
 334.290039062 312.5 334.290039062 312.5 324.389648438 268.5 c 4,32,33
 308.549804688 199.5 308.549804688 199.5 275.879882812 142.5 c 132,-1,34
 243.209960938 85.5 243.209960938 85.5 203.610351562 44.5 c 4,35,36
 188.4296875 29.5 188.4296875 29.5 182.490234375 28.5 c 260,37,38
 177.209960938 28.5 177.209960938 28.5 171.9296875 45.5 c 4,39,40
 170.610351562 48.5 170.610351562 48.5 180.1796875 60.5 c 132,-1,41
 189.75 72.5 189.75 72.5 204.599609375 95 c 132,-1,42
 219.450195312 117.5 219.450195312 117.5 236.280273438 152 c 132,-1,43
 253.110351562 186.5 253.110351562 186.5 264.330078125 235.5 c 4,44,45
 272.91015625 274.5 272.91015625 274.5 277.200195312 305 c 132,-1,46
 281.490234375 335.5 281.490234375 335.5 277.860351562 358.5 c 132,-1,47
 274.23046875 381.5 274.23046875 381.5 263.669921875 399 c 132,-1,48
 253.110351562 416.5 253.110351562 416.5 232.650390625 431.5 c 4,49,50
 225.389648438 436.5 225.389648438 436.5 211.530273438 435 c 132,-1,51
 197.669921875 433.5 197.669921875 433.5 181.830078125 428 c 132,-1,52
 165.990234375 422.5 165.990234375 422.5 150.48046875 413.5 c 132,-1,53
 134.969726562 404.5 134.969726562 404.5 126.389648438 396.5 c 4,54,55
 121.110351562 393.5 121.110351562 393.5 117.150390625 386.5 c 132,-1,56
 113.190429688 379.5 113.190429688 379.5 108.5703125 373 c 132,-1,57
 103.950195312 366.5 103.950195312 366.5 98.009765625 364 c 132,-1,58
 92.0703125 361.5 92.0703125 361.5 84.150390625 367.5 c 4,59,60
 79.5302734375 374.5 79.5302734375 374.5 80.849609375 385.5 c 4,61,62
 83.490234375 402.5 83.490234375 402.5 91.740234375 418 c 132,-1,63
 99.990234375 433.5 99.990234375 433.5 102.629882812 441.5 c 4,64,65
 109.889648438 460.5 109.889648438 460.5 120.450195312 489.5 c 132,-1,66
 131.009765625 518.5 131.009765625 518.5 141.5703125 550 c 132,-1,67
 152.129882812 581.5 152.129882812 581.5 161.370117188 612.5 c 132,-1,68
 170.610351562 643.5 170.610351562 643.5 175.23046875 665.5 c 4,69,70
 176.549804688 670.5 176.549804688 670.5 178.200195312 675.5 c 132,-1,71
 179.849609375 680.5 179.849609375 680.5 184.469726562 680.5 c 4,72,73
 191.0703125 681.5 191.0703125 681.5 203.610351562 681 c 132,-1,74
 216.150390625 680.5 216.150390625 680.5 234.299804688 680 c 132,-1,75
 252.450195312 679.5 252.450195312 679.5 274.559570312 680 c 132,-1,76
 296.669921875 680.5 296.669921875 680.5 321.75 683.5 c 5,77,-1
 368.610351562 777.5 l 6,78,79
 372.5703125 784.5 372.5703125 784.5 376.860351562 781.5 c 132,-1,80
 381.150390625 778.5 381.150390625 778.5 383.790039062 776.5 c 4,0,1
EndSplineSet
EndChar

StartChar: six
Encoding: 54 54 39
Width: 357
Flags: W
LayerCount: 2
Fore
SplineSet
359.040039062 234 m 0,0,1
 351.780273438 186 351.780273438 186 334.620117188 141.5 c 128,-1,2
 317.459960938 97 317.459960938 97 294.360351562 62.5 c 128,-1,3
 271.259765625 28 271.259765625 28 243.209960938 7.5 c 128,-1,4
 215.16015625 -13 215.16015625 -13 184.139648438 -13 c 0,5,6
 153.780273438 -13 153.780273438 -13 126.059570312 7 c 0,7,8
 104.280273438 24 104.280273438 24 91.41015625 51.5 c 128,-1,9
 78.5400390625 79 78.5400390625 79 72.599609375 113 c 128,-1,10
 66.66015625 147 66.66015625 147 67.3203125 186.5 c 128,-1,11
 67.98046875 226 67.98046875 226 74.580078125 267 c 0,12,13
 86.4599609375 348 86.4599609375 348 113.849609375 421.5 c 128,-1,14
 141.240234375 495 141.240234375 495 179.190429688 557.5 c 128,-1,15
 217.139648438 620 217.139648438 620 262.349609375 669.5 c 128,-1,16
 307.559570312 719 307.559570312 719 355.740234375 752 c 0,17,18
 363 757 363 757 373.559570312 763 c 128,-1,19
 384.120117188 769 384.120117188 769 390.719726562 770 c 0,20,21
 393.360351562 767 393.360351562 767 396 762 c 128,-1,22
 398.639648438 757 398.639648438 757 397.3203125 750 c 0,23,24
 396.66015625 745 396.66015625 745 391.049804688 738.5 c 128,-1,25
 385.440429688 732 385.440429688 732 378.509765625 727 c 128,-1,26
 371.580078125 722 371.580078125 722 364.98046875 717.5 c 128,-1,27
 358.379882812 713 358.379882812 713 355.740234375 711 c 0,28,29
 343.860351562 701 343.860351562 701 331.650390625 689 c 128,-1,30
 319.440429688 677 319.440429688 677 308.219726562 664 c 0,31,32
 257.400390625 606 257.400390625 606 219.120117188 529.5 c 128,-1,33
 180.83984375 453 180.83984375 453 157.080078125 366 c 1,34,35
 166.3203125 378 166.3203125 378 179.190429688 391 c 128,-1,36
 192.059570312 404 192.059570312 404 207.240234375 415.5 c 128,-1,37
 222.419921875 427 222.419921875 427 238.58984375 434 c 128,-1,38
 254.759765625 441 254.759765625 441 272.580078125 441 c 0,39,40
 299.639648438 441 299.639648438 441 318.780273438 425.5 c 128,-1,41
 337.919921875 410 337.919921875 410 349.469726562 382 c 128,-1,42
 361.01953125 354 361.01953125 354 363.330078125 316 c 128,-1,43
 365.639648438 278 365.639648438 278 359.040039062 234 c 0,0,1
240.900390625 395 m 0,44,45
 227.700195312 395 227.700195312 395 213.509765625 386.5 c 128,-1,46
 199.3203125 378 199.3203125 378 186.450195312 365.5 c 128,-1,47
 173.580078125 353 173.580078125 353 162.360351562 339.5 c 128,-1,48
 151.139648438 326 151.139648438 326 143.879882812 314 c 1,49,50
 139.919921875 295 139.919921875 295 136.620117188 279.5 c 128,-1,51
 133.3203125 264 133.3203125 264 130.6796875 245 c 0,52,53
 125.400390625 209 125.400390625 209 123.08984375 169.5 c 128,-1,54
 120.780273438 130 120.780273438 130 125.73046875 96 c 128,-1,55
 130.6796875 62 130.6796875 62 145.200195312 40 c 128,-1,56
 159.719726562 18 159.719726562 18 186.780273438 18 c 0,57,58
 209.879882812 18 209.879882812 18 228.690429688 36.5 c 128,-1,59
 247.5 55 247.5 55 261.690429688 84 c 128,-1,60
 275.879882812 113 275.879882812 113 285.450195312 147 c 128,-1,61
 295.01953125 181 295.01953125 181 300.299804688 213 c 0,62,63
 305.580078125 247 305.580078125 247 305.580078125 279.5 c 128,-1,64
 305.580078125 312 305.580078125 312 298.650390625 338 c 128,-1,65
 291.719726562 364 291.719726562 364 277.860351562 379.5 c 128,-1,66
 264 395 264 395 240.900390625 395 c 0,44,45
EndSplineSet
EndChar

StartChar: seven
Encoding: 55 55 40
Width: 302
Flags: W
LayerCount: 2
Fore
SplineSet
394.01953125 674 m 4,0,1
 393.360351562 671 393.360351562 671 387.75 657.5 c 132,-1,2
 382.139648438 644 382.139648438 644 373.889648438 624.5 c 132,-1,3
 365.639648438 605 365.639648438 605 355.740234375 582 c 132,-1,4
 345.83984375 559 345.83984375 559 336.26953125 538 c 132,-1,5
 326.700195312 517 326.700195312 517 319.440429688 500.5 c 132,-1,6
 312.1796875 484 312.1796875 484 309.540039062 478 c 4,7,8
 251.459960938 343 251.459960938 343 194.370117188 211.5 c 132,-1,9
 137.280273438 80 137.280273438 80 71.9404296875 -49 c 4,10,11
 69.2998046875 -54 69.2998046875 -54 64.349609375 -53.5 c 132,-1,12
 59.400390625 -53 59.400390625 -53 55.1103515625 -49 c 132,-1,13
 50.8203125 -45 50.8203125 -45 48.509765625 -38.5 c 132,-1,14
 46.2001953125 -32 46.2001953125 -32 48.1796875 -27 c 4,15,16
 93.7197265625 74 93.7197265625 74 138.26953125 171.5 c 132,-1,17
 182.8203125 269 182.8203125 269 228.360351562 370 c 4,18,19
 250.799804688 422 250.799804688 422 273.240234375 472.5 c 132,-1,20
 295.6796875 523 295.6796875 523 316.139648438 575 c 4,21,22
 317.459960938 580 317.459960938 580 318.780273438 585 c 132,-1,23
 320.099609375 590 320.099609375 590 320.759765625 595 c 4,24,25
 322.080078125 605 322.080078125 605 316.799804688 607 c 132,-1,26
 311.51953125 609 311.51953125 609 306.900390625 609 c 6,27,-1
 115.5 609 l 6,28,29
 110.219726562 609 110.219726562 609 105.599609375 611.5 c 132,-1,30
 100.98046875 614 100.98046875 614 104.280273438 622 c 4,31,32
 113.51953125 647 113.51953125 647 122.099609375 673 c 132,-1,33
 130.6796875 699 130.6796875 699 137.610351562 720.5 c 132,-1,34
 144.540039062 742 144.540039062 742 150.150390625 756 c 132,-1,35
 155.759765625 770 155.759765625 770 159.059570312 770 c 260,36,37
 162.360351562 770 162.360351562 770 167.309570312 767.5 c 132,-1,38
 172.259765625 765 172.259765625 765 170.940429688 757 c 4,39,40
 167.639648438 738 167.639648438 738 165.66015625 722 c 132,-1,41
 163.6796875 706 163.6796875 706 159.719726562 689 c 5,42,-1
 184.139648438 688 l 5,43,-1
 234.299804688 688 l 6,44,45
 246.83984375 688 246.83984375 688 260.040039062 688 c 132,-1,46
 273.240234375 688 273.240234375 688 285.780273438 689 c 4,47,48
 306.240234375 690 306.240234375 690 326.700195312 691.5 c 132,-1,49
 347.16015625 693 347.16015625 693 367.620117188 693 c 6,50,-1
 375.540039062 693 l 6,51,52
 382.139648438 693 382.139648438 693 389.0703125 689 c 132,-1,53
 396 685 396 685 394.01953125 674 c 4,0,1
EndSplineSet
EndChar

StartChar: eight
Encoding: 56 56 41
Width: 310
Flags: W
LayerCount: 2
Fore
SplineSet
312.1796875 186 m 0,0,1
 306.240234375 144 306.240234375 144 291.719726562 108 c 128,-1,2
 277.200195312 72 277.200195312 72 256.080078125 44.5 c 128,-1,3
 234.959960938 17 234.959960938 17 210.209960938 2 c 128,-1,4
 185.459960938 -13 185.459960938 -13 160.379882812 -13 c 0,5,6
 135.959960938 -13 135.959960938 -13 113.51953125 -4.5 c 128,-1,7
 91.080078125 4 91.080078125 4 75.5703125 23.5 c 128,-1,8
 60.0595703125 43 60.0595703125 43 53.4599609375 75.5 c 128,-1,9
 46.8603515625 108 46.8603515625 108 53.4599609375 155 c 0,10,11
 57.419921875 187 57.419921875 187 67.650390625 213.5 c 128,-1,12
 77.8798828125 240 77.8798828125 240 92.73046875 262.5 c 128,-1,13
 107.580078125 285 107.580078125 285 124.740234375 303 c 128,-1,14
 141.900390625 321 141.900390625 321 159.719726562 335 c 2,15,-1
 174.900390625 347 l 1,16,17
 172.919921875 352 172.919921875 352 169.950195312 355.5 c 128,-1,18
 166.98046875 359 166.98046875 359 165 364 c 0,19,20
 153.120117188 379 153.120117188 379 141.5703125 396.5 c 128,-1,21
 130.01953125 414 130.01953125 414 122.099609375 435 c 128,-1,22
 114.1796875 456 114.1796875 456 110.549804688 480.5 c 128,-1,23
 106.919921875 505 106.919921875 505 110.879882812 536 c 0,24,25
 116.8203125 580 116.8203125 580 132.66015625 615 c 128,-1,26
 148.5 650 148.5 650 169.950195312 675 c 128,-1,27
 191.400390625 700 191.400390625 700 216.809570312 713.5 c 128,-1,28
 242.219726562 727 242.219726562 727 266.639648438 727 c 0,29,30
 289.080078125 727 289.080078125 727 309.870117188 716.5 c 128,-1,31
 330.66015625 706 330.66015625 706 344.849609375 685.5 c 128,-1,32
 359.040039062 665 359.040039062 665 365.309570312 633.5 c 128,-1,33
 371.580078125 602 371.580078125 602 365.639648438 562 c 0,34,35
 361.01953125 525 361.01953125 525 349.469726562 498 c 128,-1,36
 337.919921875 471 337.919921875 471 321.75 451 c 128,-1,37
 305.580078125 431 305.580078125 431 286.110351562 415 c 128,-1,38
 266.639648438 399 266.639648438 399 247.5 385 c 1,39,40
 250.139648438 380 250.139648438 380 253.76953125 376 c 128,-1,41
 257.400390625 372 257.400390625 372 261.360351562 368 c 0,42,43
 273.240234375 354 273.240234375 354 284.790039062 334.5 c 128,-1,44
 296.33984375 315 296.33984375 315 303.9296875 292 c 128,-1,45
 311.51953125 269 311.51953125 269 314.16015625 242.5 c 128,-1,46
 316.799804688 216 316.799804688 216 312.1796875 186 c 0,0,1
256.080078125 151 m 0,47,48
 260.700195312 187 260.700195312 187 257.400390625 215.5 c 128,-1,49
 254.099609375 244 254.099609375 244 244.530273438 265.5 c 128,-1,50
 234.959960938 287 234.959960938 287 220.76953125 303 c 128,-1,51
 206.580078125 319 206.580078125 319 190.740234375 331 c 1,52,53
 157.080078125 312 157.080078125 312 133.3203125 267.5 c 128,-1,54
 109.559570312 223 109.559570312 223 102.959960938 170 c 0,55,56
 99 140 99 140 99 113 c 128,-1,57
 99 86 99 86 103.950195312 65 c 128,-1,58
 108.900390625 44 108.900390625 44 120.780273438 31 c 128,-1,59
 132.66015625 18 132.66015625 18 151.799804688 18 c 0,60,61
 164.33984375 18 164.33984375 18 175.559570312 20.5 c 128,-1,62
 186.780273438 23 186.780273438 23 199.3203125 32 c 0,63,64
 223.740234375 49 223.740234375 49 237.599609375 80.5 c 128,-1,65
 251.459960938 112 251.459960938 112 256.080078125 151 c 0,47,48
318.120117188 557 m 0,66,67
 322.080078125 586 322.080078125 586 319.76953125 612 c 128,-1,68
 317.459960938 638 317.459960938 638 310.200195312 657 c 128,-1,69
 302.940429688 676 302.940429688 676 289.740234375 687 c 128,-1,70
 276.540039062 698 276.540039062 698 257.400390625 698 c 0,71,72
 224.400390625 698 224.400390625 698 198 662 c 128,-1,73
 171.599609375 626 171.599609375 626 163.6796875 571 c 0,74,75
 158.400390625 532 158.400390625 532 168.299804688 497 c 0,76,77
 171.599609375 486 171.599609375 486 178.860351562 471 c 128,-1,78
 186.120117188 456 186.120117188 456 194.700195312 441.5 c 128,-1,79
 203.280273438 427 203.280273438 427 212.849609375 416.5 c 128,-1,80
 222.419921875 406 222.419921875 406 230.33984375 402 c 1,81,82
 246.83984375 409 246.83984375 409 261.360351562 425.5 c 128,-1,83
 275.879882812 442 275.879882812 442 287.099609375 463 c 128,-1,84
 298.3203125 484 298.3203125 484 306.5703125 508.5 c 128,-1,85
 314.8203125 533 314.8203125 533 318.120117188 557 c 0,66,67
EndSplineSet
EndChar

StartChar: nine
Encoding: 57 57 42
Width: 357
Flags: W
LayerCount: 2
Fore
SplineSet
219.780273438 287 m 4,0,1
 232.98046875 287 232.98046875 287 246.509765625 295.5 c 132,-1,2
 260.040039062 304 260.040039062 304 272.91015625 316.5 c 132,-1,3
 285.780273438 329 285.780273438 329 297 343 c 132,-1,4
 308.219726562 357 308.219726562 357 315.48046875 368 c 5,5,6
 319.440429688 387 319.440429688 387 322.740234375 402.5 c 132,-1,7
 326.040039062 418 326.040039062 418 329.33984375 438 c 4,8,9
 334.620117188 473 334.620117188 473 336.9296875 512.5 c 132,-1,10
 339.240234375 552 339.240234375 552 333.959960938 586 c 132,-1,11
 328.6796875 620 328.6796875 620 314.490234375 642 c 132,-1,12
 300.299804688 664 300.299804688 664 273.240234375 664 c 4,13,14
 250.139648438 664 250.139648438 664 231.330078125 645.5 c 132,-1,15
 212.51953125 627 212.51953125 627 198 598.5 c 132,-1,16
 183.48046875 570 183.48046875 570 174.240234375 535.5 c 132,-1,17
 165 501 165 501 159.059570312 469 c 4,18,19
 153.780273438 435 153.780273438 435 154.110351562 402.5 c 132,-1,20
 154.440429688 370 154.440429688 370 161.040039062 344.5 c 132,-1,21
 167.639648438 319 167.639648438 319 182.16015625 303 c 132,-1,22
 196.6796875 287 196.6796875 287 219.780273438 287 c 4,0,1
100.98046875 448 m 4,23,24
 108.240234375 496 108.240234375 496 125.0703125 540.5 c 132,-1,25
 141.900390625 585 141.900390625 585 165 620 c 132,-1,26
 188.099609375 655 188.099609375 655 216.48046875 675.5 c 132,-1,27
 244.860351562 696 244.860351562 696 275.879882812 696 c 4,28,29
 306.240234375 696 306.240234375 696 333.299804688 675 c 4,30,31
 355.080078125 658 355.080078125 658 367.950195312 630.5 c 132,-1,32
 380.8203125 603 380.8203125 603 386.759765625 569 c 132,-1,33
 392.700195312 535 392.700195312 535 392.040039062 495.5 c 132,-1,34
 391.379882812 456 391.379882812 456 384.780273438 415 c 4,35,36
 372.900390625 334 372.900390625 334 347.8203125 264 c 132,-1,37
 322.740234375 194 322.740234375 194 290.73046875 137.5 c 132,-1,38
 258.719726562 81 258.719726562 81 221.099609375 39.5 c 132,-1,39
 183.48046875 -2 183.48046875 -2 145.860351562 -24 c 4,40,41
 138.599609375 -29 138.599609375 -29 128.370117188 -35.5 c 132,-1,42
 118.139648438 -42 118.139648438 -42 111.540039062 -43 c 4,43,44
 108.900390625 -40 108.900390625 -40 105.9296875 -34.5 c 132,-1,45
 102.959960938 -29 102.959960938 -29 103.620117188 -22 c 4,46,47
 104.280273438 -19 104.280273438 -19 113.190429688 -11 c 132,-1,48
 122.099609375 -3 122.099609375 -3 133.650390625 7 c 132,-1,49
 145.200195312 17 145.200195312 17 156.75 26.5 c 132,-1,50
 168.299804688 36 168.299804688 36 174.240234375 43 c 4,51,52
 220.440429688 96 220.440429688 96 249.48046875 163.5 c 132,-1,53
 278.51953125 231 278.51953125 231 302.280273438 317 c 5,54,55
 293.040039062 305 293.040039062 305 280.169921875 291.5 c 132,-1,56
 267.299804688 278 267.299804688 278 252.450195312 266.5 c 132,-1,57
 237.599609375 255 237.599609375 255 221.099609375 248 c 132,-1,58
 204.599609375 241 204.599609375 241 187.440429688 241 c 4,59,60
 159.719726562 241 159.719726562 241 140.580078125 257 c 132,-1,61
 121.440429688 273 121.440429688 273 110.219726562 300.5 c 132,-1,62
 99 328 99 328 96.6904296875 366 c 132,-1,63
 94.3798828125 404 94.3798828125 404 100.98046875 448 c 4,23,24
EndSplineSet
EndChar

StartChar: colon
Encoding: 58 58 43
Width: 159
Flags: W
LayerCount: 2
Fore
SplineSet
175.559570312 406 m 0,0,1
 171.599609375 378 171.599609375 378 156.419921875 358.5 c 128,-1,2
 141.240234375 339 141.240234375 339 124.080078125 339 c 0,3,4
 121.440429688 339 121.440429688 339 121.440429688 340 c 0,5,6
 114.83984375 341 114.83984375 341 109.559570312 347.5 c 128,-1,7
 104.280273438 354 104.280273438 354 100.98046875 364 c 128,-1,8
 97.6796875 374 97.6796875 374 96.3603515625 385.5 c 128,-1,9
 95.0400390625 397 95.0400390625 397 97.01953125 409 c 0,10,11
 100.3203125 433 100.3203125 433 115.169921875 452 c 128,-1,12
 130.01953125 471 130.01953125 471 143.879882812 471 c 0,13,14
 160.379882812 471 160.379882812 471 169.950195312 452 c 128,-1,15
 179.51953125 433 179.51953125 433 175.559570312 406 c 0,0,1
122.099609375 51 m 0,16,17
 118.139648438 24 118.139648438 24 102.959960938 3 c 128,-1,18
 87.7802734375 -18 87.7802734375 -18 69.9599609375 -18 c 0,19,20
 62.0400390625 -18 62.0400390625 -18 56.099609375 -12 c 128,-1,21
 50.16015625 -6 50.16015625 -6 46.5302734375 3.5 c 128,-1,22
 42.900390625 13 42.900390625 13 41.580078125 25.5 c 128,-1,23
 40.259765625 38 40.259765625 38 42.900390625 51 c 0,24,25
 46.8603515625 78 46.8603515625 78 61.0498046875 96 c 128,-1,26
 75.240234375 114 75.240234375 114 91.080078125 114 c 0,27,28
 106.259765625 114 106.259765625 114 116.16015625 95.5 c 128,-1,29
 126.059570312 77 126.059570312 77 122.099609375 51 c 0,16,17
EndSplineSet
EndChar

StartChar: semicolon
Encoding: 59 59 44
Width: 160
Flags: W
LayerCount: 2
Fore
SplineSet
180.83984375 406 m 0,0,1
 176.879882812 378 176.879882812 378 162.360351562 358.5 c 128,-1,2
 147.83984375 339 147.83984375 339 131.33984375 339 c 0,3,4
 129.360351562 339 129.360351562 339 128.700195312 340 c 0,5,6
 112.860351562 342 112.860351562 342 107.580078125 361.5 c 128,-1,7
 102.299804688 381 102.299804688 381 105.599609375 404 c 0,8,9
 109.559570312 433 109.559570312 433 122.759765625 451 c 128,-1,10
 135.959960938 469 135.959960938 469 153.120117188 469 c 0,11,12
 168.299804688 469 168.299804688 469 176.219726562 449.5 c 128,-1,13
 184.139648438 430 184.139648438 430 180.83984375 406 c 0,0,1
130.6796875 -12 m 0,14,15
 124.740234375 -50 124.740234375 -50 110.879882812 -80.5 c 128,-1,16
 97.01953125 -111 97.01953125 -111 77.2197265625 -135 c 0,17,18
 73.259765625 -139 73.259765625 -139 64.349609375 -148 c 128,-1,19
 55.4404296875 -157 55.4404296875 -157 45.5400390625 -166 c 128,-1,20
 35.6396484375 -175 35.6396484375 -175 26.73046875 -181.5 c 128,-1,21
 17.8203125 -188 17.8203125 -188 14.51953125 -188 c 0,22,23
 9.900390625 -188 9.900390625 -188 9.900390625 -181 c 1,24,25
 7.259765625 -179 7.259765625 -179 7.919921875 -172 c 0,26,27
 7.919921875 -171 7.919921875 -171 11.2197265625 -167.5 c 128,-1,28
 14.51953125 -164 14.51953125 -164 17.490234375 -160.5 c 128,-1,29
 20.4599609375 -157 20.4599609375 -157 23.4296875 -154 c 128,-1,30
 26.400390625 -151 26.400390625 -151 27.7197265625 -150 c 0,31,32
 38.2802734375 -140 38.2802734375 -140 47.849609375 -129.5 c 128,-1,33
 57.419921875 -119 57.419921875 -119 65.009765625 -107 c 128,-1,34
 72.599609375 -95 72.599609375 -95 77.8798828125 -80.5 c 128,-1,35
 83.16015625 -66 83.16015625 -66 85.7998046875 -45 c 0,36,37
 88.4404296875 -27 88.4404296875 -27 85.4697265625 -18 c 128,-1,38
 82.5 -9 82.5 -9 75.5703125 -4.5 c 128,-1,39
 68.6396484375 0 68.6396484375 0 61.0498046875 3 c 128,-1,40
 53.4599609375 6 53.4599609375 6 48.1796875 13 c 0,41,42
 36.2998046875 27 36.2998046875 27 38.9404296875 52 c 0,43,44
 42.900390625 80 42.900390625 80 60.0595703125 95.5 c 128,-1,45
 77.2197265625 111 77.2197265625 111 91.740234375 111 c 256,46,47
 106.919921875 111 106.919921875 111 115.830078125 99.5 c 128,-1,48
 124.740234375 88 124.740234375 88 129.690429688 70 c 128,-1,49
 134.639648438 52 134.639648438 52 134.309570312 31 c 128,-1,50
 133.98046875 10 133.98046875 10 130.6796875 -12 c 0,14,15
EndSplineSet
EndChar

StartChar: less
Encoding: 60 60 45
Width: 286
Flags: W
LayerCount: 2
Fore
SplineSet
118.139648438 230 m 1,0,1
 142.559570312 192 142.559570312 192 159.719726562 165.5 c 128,-1,2
 176.879882812 139 176.879882812 139 192.719726562 116.5 c 128,-1,3
 208.559570312 94 208.559570312 94 226.049804688 71 c 128,-1,4
 243.540039062 48 243.540039062 48 265.98046875 16 c 1,5,6
 264.66015625 7 264.66015625 7 263.33984375 3 c 128,-1,7
 262.01953125 -1 262.01953125 -1 260.040039062 -4.5 c 128,-1,8
 258.059570312 -8 258.059570312 -8 256.740234375 -12 c 128,-1,9
 255.419921875 -16 255.419921875 -16 253.440429688 -26 c 1,10,11
 221.759765625 5 221.759765625 5 199.98046875 29 c 128,-1,12
 178.200195312 53 178.200195312 53 157.740234375 77.5 c 128,-1,13
 137.280273438 102 137.280273438 102 114.83984375 130.5 c 128,-1,14
 92.400390625 159 92.400390625 159 60.0595703125 198 c 1,15,-1
 69.2998046875 261 l 1,16,17
 99.66015625 286 99.66015625 286 122.759765625 306 c 128,-1,18
 145.860351562 326 145.860351562 326 165 343.5 c 128,-1,19
 184.139648438 361 184.139648438 361 201.299804688 378 c 128,-1,20
 218.459960938 395 218.459960938 395 236.940429688 412 c 128,-1,21
 255.419921875 429 255.419921875 429 277.860351562 448 c 128,-1,22
 300.299804688 467 300.299804688 467 329.33984375 489 c 1,23,24
 328.01953125 480 328.01953125 480 328.01953125 476 c 128,-1,25
 328.01953125 472 328.01953125 472 328.01953125 469 c 128,-1,26
 328.01953125 466 328.01953125 466 328.349609375 462.5 c 128,-1,27
 328.6796875 459 328.6796875 459 327.360351562 450 c 1,28,29
 293.040039062 415 293.040039062 415 265.98046875 387 c 128,-1,30
 238.919921875 359 238.919921875 359 215.490234375 333.5 c 128,-1,31
 192.059570312 308 192.059570312 308 168.959960938 283.5 c 128,-1,32
 145.860351562 259 145.860351562 259 118.139648438 230 c 1,0,1
EndSplineSet
EndChar

StartChar: equal
Encoding: 61 61 46
Width: 320
Flags: W
LayerCount: 2
Fore
SplineSet
335.280273438 340 m 1,0,1
 333.959960938 332 333.959960938 332 332.309570312 322 c 128,-1,2
 330.66015625 312 330.66015625 312 326.700195312 306 c 1,3,4
 320.099609375 307 320.099609375 307 311.51953125 307 c 0,5,6
 304.259765625 307 304.259765625 307 294.360351562 307 c 2,7,-1
 247.5 307 l 2,8,9
 219.120117188 307 219.120117188 307 179.190429688 306.5 c 128,-1,10
 139.259765625 306 139.259765625 306 83.8203125 306 c 1,11,12
 79.8603515625 323 79.8603515625 323 80.849609375 336 c 128,-1,13
 81.83984375 349 81.83984375 349 93.7197265625 372 c 1,14,15
 151.799804688 372 151.799804688 372 203.940429688 371 c 128,-1,16
 256.080078125 370 256.080078125 370 294.360351562 370 c 2,17,-1
 338.580078125 370 l 1,18,19
 338.580078125 360 338.580078125 360 337.259765625 354 c 2,20,-1
 335.280273438 340 l 1,0,1
66 208 m 1,21,22
 79.2001953125 208 79.2001953125 208 96.3603515625 208.5 c 128,-1,23
 113.51953125 209 113.51953125 209 141.900390625 209 c 2,24,-1
 312.1796875 209 l 1,25,26
 317.459960938 191 317.459960938 191 313.5 176 c 128,-1,27
 309.540039062 161 309.540039062 161 302.280273438 143 c 1,28,29
 289.080078125 142 289.080078125 142 273.900390625 142 c 256,30,31
 258.719726562 142 258.719726562 142 241.559570312 142 c 2,32,-1
 172.259765625 142 l 2,33,34
 138.599609375 142 138.599609375 142 107.580078125 142.5 c 128,-1,35
 76.5595703125 143 76.5595703125 143 56.099609375 144 c 1,36,37
 57.419921875 153 57.419921875 153 56.759765625 160.5 c 128,-1,38
 56.099609375 168 56.099609375 168 57.419921875 177 c 0,39,40
 58.080078125 183 58.080078125 183 61.3798828125 192.5 c 128,-1,41
 64.6796875 202 64.6796875 202 66 208 c 1,21,22
EndSplineSet
EndChar

StartChar: greater
Encoding: 62 62 47
Width: 286
Flags: W
LayerCount: 2
Fore
SplineSet
245.51953125 230 m 1,0,1
 225.719726562 259 225.719726562 259 210.209960938 283.5 c 128,-1,2
 194.700195312 308 194.700195312 308 178.860351562 333 c 128,-1,3
 163.01953125 358 163.01953125 358 144.540039062 386.5 c 128,-1,4
 126.059570312 415 126.059570312 415 102.959960938 450 c 1,5,6
 104.280273438 459 104.280273438 459 105.599609375 462.5 c 128,-1,7
 106.919921875 466 106.919921875 466 107.91015625 469 c 128,-1,8
 108.900390625 472 108.900390625 472 110.219726562 476 c 128,-1,9
 111.540039062 480 111.540039062 480 112.860351562 489 c 1,10,11
 145.860351562 455 145.860351562 455 167.309570312 429 c 128,-1,12
 188.759765625 403 188.759765625 403 207.240234375 378 c 128,-1,13
 225.719726562 353 225.719726562 353 247.169921875 325.5 c 128,-1,14
 268.620117188 298 268.620117188 298 302.940429688 261 c 1,15,-1
 292.379882812 198 l 1,16,17
 262.6796875 172 262.6796875 172 239.580078125 151 c 128,-1,18
 216.48046875 130 216.48046875 130 196.349609375 112 c 128,-1,19
 176.219726562 94 176.219726562 94 158.400390625 78 c 128,-1,20
 140.580078125 62 140.580078125 62 121.440429688 46 c 128,-1,21
 102.299804688 30 102.299804688 30 80.1904296875 12.5 c 128,-1,22
 58.080078125 -5 58.080078125 -5 31.01953125 -26 c 1,23,24
 32.33984375 -17 32.33984375 -17 32.009765625 -12.5 c 128,-1,25
 31.6796875 -8 31.6796875 -8 31.01953125 -4.5 c 128,-1,26
 30.3603515625 -1 30.3603515625 -1 30.0302734375 3 c 128,-1,27
 29.7001953125 7 29.7001953125 7 31.01953125 16 c 1,28,29
 64.01953125 48 64.01953125 48 88.76953125 72.5 c 128,-1,30
 113.51953125 97 113.51953125 97 136.620117188 120 c 128,-1,31
 159.719726562 143 159.719726562 143 185.129882812 169 c 128,-1,32
 210.540039062 195 210.540039062 195 245.51953125 230 c 1,0,1
EndSplineSet
EndChar

StartChar: question
Encoding: 63 63 48
Width: 223
Flags: W
LayerCount: 2
Fore
SplineSet
112.200195312 40 m 0,0,1
 108.240234375 14 108.240234375 14 93.3896484375 -3 c 128,-1,2
 78.5400390625 -20 78.5400390625 -20 63.3603515625 -15 c 0,3,4
 48.83984375 -13 48.83984375 -13 43.8896484375 4.5 c 128,-1,5
 38.9404296875 22 38.9404296875 22 42.900390625 44 c 0,6,7
 46.8603515625 70 46.8603515625 70 58.41015625 86.5 c 128,-1,8
 69.9599609375 103 69.9599609375 103 87.1201171875 103 c 0,9,10
 102.959960938 103 102.959960938 103 109.23046875 83.5 c 128,-1,11
 115.5 64 115.5 64 112.200195312 40 c 0,0,1
273.900390625 479 m 0,12,13
 267.959960938 440 267.959960938 440 255.75 413.5 c 128,-1,14
 243.540039062 387 243.540039062 387 228.360351562 368 c 128,-1,15
 213.1796875 349 213.1796875 349 196.01953125 336 c 128,-1,16
 178.860351562 323 178.860351562 323 163.6796875 311 c 128,-1,17
 148.5 299 148.5 299 136.620117188 286 c 128,-1,18
 124.740234375 273 124.740234375 273 118.799804688 255 c 0,19,20
 116.16015625 252 116.16015625 252 113.51953125 239 c 2,21,-1
 109.559570312 212 l 2,22,23
 107.580078125 199 107.580078125 199 103.950195312 187 c 128,-1,24
 100.3203125 175 100.3203125 175 92.400390625 174 c 0,25,26
 85.1396484375 177 85.1396484375 177 86.4599609375 190 c 0,27,28
 86.4599609375 194 86.4599609375 194 86.7900390625 199 c 128,-1,29
 87.1201171875 204 87.1201171875 204 87.7802734375 210 c 2,30,-1
 91.740234375 237 l 2,31,32
 93.7197265625 251 93.7197265625 251 96.3603515625 263 c 128,-1,33
 99 275 99 275 100.3203125 284 c 0,34,35
 102.959960938 303 102.959960938 303 104.610351562 317 c 128,-1,36
 106.259765625 331 106.259765625 331 107.91015625 341 c 128,-1,37
 109.559570312 351 109.559570312 351 112.200195312 358 c 128,-1,38
 114.83984375 365 114.83984375 365 119.459960938 370 c 0,39,40
 138.599609375 381 138.599609375 381 158.0703125 395 c 128,-1,41
 177.540039062 409 177.540039062 409 195.690429688 427.5 c 128,-1,42
 213.83984375 446 213.83984375 446 226.379882812 472 c 128,-1,43
 238.919921875 498 238.919921875 498 244.860351562 534 c 0,44,45
 248.8203125 559 248.8203125 559 247.169921875 582 c 128,-1,46
 245.51953125 605 245.51953125 605 238.58984375 624 c 128,-1,47
 231.66015625 643 231.66015625 643 220.440429688 655 c 128,-1,48
 209.219726562 667 209.219726562 667 193.379882812 667 c 0,49,50
 182.8203125 667 182.8203125 667 171.26953125 660.5 c 128,-1,51
 159.719726562 654 159.719726562 654 148.5 654 c 256,52,53
 137.940429688 654 137.940429688 654 131.669921875 665 c 128,-1,54
 125.400390625 676 125.400390625 676 128.700195312 693 c 0,55,56
 130.6796875 708 130.6796875 708 135.959960938 717.5 c 128,-1,57
 141.240234375 727 141.240234375 727 148.5 732.5 c 128,-1,58
 155.759765625 738 155.759765625 738 163.349609375 739.5 c 128,-1,59
 170.940429688 741 170.940429688 741 178.200195312 741 c 0,60,61
 204.599609375 741 204.599609375 741 225.389648438 715 c 128,-1,62
 246.1796875 689 246.1796875 689 259.049804688 650 c 128,-1,63
 271.919921875 611 271.919921875 611 275.879882812 565 c 128,-1,64
 279.83984375 519 279.83984375 519 273.900390625 479 c 0,12,13
EndSplineSet
EndChar

StartChar: at
Encoding: 64 64 49
Width: 549
Flags: W
LayerCount: 2
Fore
SplineSet
328.01953125 93 m 0,0,1
 332.639648438 100 332.639648438 100 339.900390625 113.5 c 128,-1,2
 347.16015625 127 347.16015625 127 350.459960938 138 c 2,3,-1
 357.719726562 174 l 1,4,-1
 362.33984375 203 l 2,5,6
 363.66015625 211 363.66015625 211 364.3203125 218 c 128,-1,7
 364.98046875 225 364.98046875 225 364.98046875 230 c 1,8,9
 359.040039062 228 359.040039062 228 350.790039062 224.5 c 128,-1,10
 342.540039062 221 342.540039062 221 334.290039062 216.5 c 128,-1,11
 326.040039062 212 326.040039062 212 317.790039062 207.5 c 128,-1,12
 309.540039062 203 309.540039062 203 303.599609375 200 c 0,13,14
 285.120117188 190 285.120117188 190 267.959960938 170.5 c 128,-1,15
 250.799804688 151 250.799804688 151 246.1796875 119 c 0,16,17
 242.219726562 90 242.219726562 90 247.5 73 c 128,-1,18
 252.780273438 56 252.780273438 56 273.240234375 56 c 0,19,20
 286.440429688 56 286.440429688 56 301.950195312 67 c 128,-1,21
 317.459960938 78 317.459960938 78 328.01953125 93 c 0,0,1
339.240234375 81 m 1,22,23
 330 66 330 66 317.790039062 51.5 c 128,-1,24
 305.580078125 37 305.580078125 37 291.059570312 25 c 128,-1,25
 276.540039062 13 276.540039062 13 262.01953125 6.5 c 128,-1,26
 247.5 0 247.5 0 234.959960938 0 c 0,27,28
 203.280273438 0 203.280273438 0 194.700195312 28.5 c 128,-1,29
 186.120117188 57 186.120117188 57 192.719726562 103 c 0,30,31
 196.01953125 126 196.01953125 126 206.25 145 c 128,-1,32
 216.48046875 164 216.48046875 164 230.009765625 179.5 c 128,-1,33
 243.540039062 195 243.540039062 195 258.059570312 206 c 128,-1,34
 272.580078125 217 272.580078125 217 284.459960938 224 c 0,35,36
 308.879882812 237 308.879882812 237 328.01953125 247 c 128,-1,37
 347.16015625 257 347.16015625 257 371.580078125 266 c 1,38,-1
 383.459960938 341 l 2,39,40
 390.059570312 384 390.059570312 384 384.120117188 410.5 c 128,-1,41
 378.1796875 437 378.1796875 437 349.799804688 437 c 0,42,43
 330.66015625 437 330.66015625 437 318.120117188 427.5 c 128,-1,44
 305.580078125 418 305.580078125 418 296.669921875 404.5 c 128,-1,45
 287.759765625 391 287.759765625 391 283.469726562 378 c 128,-1,46
 279.1796875 365 279.1796875 365 277.200195312 357 c 0,47,48
 271.919921875 341 271.919921875 341 259.709960938 329 c 128,-1,49
 247.5 317 247.5 317 234.959960938 317 c 0,50,51
 228.360351562 317 228.360351562 317 228.690429688 327 c 128,-1,52
 229.01953125 337 229.01953125 337 230.33984375 345 c 0,53,54
 234.299804688 370 234.299804688 370 250.469726562 395 c 128,-1,55
 266.639648438 420 266.639648438 420 288.08984375 441 c 128,-1,56
 309.540039062 462 309.540039062 462 332.969726562 475 c 128,-1,57
 356.400390625 488 356.400390625 488 373.559570312 488 c 0,58,59
 378.1796875 488 378.1796875 488 384.780273438 486.5 c 128,-1,60
 391.379882812 485 391.379882812 485 397.650390625 483 c 128,-1,61
 403.919921875 481 403.919921875 481 410.190429688 478 c 128,-1,62
 416.459960938 475 416.459960938 475 419.099609375 472 c 0,63,64
 437.580078125 455 437.580078125 455 438.240234375 426.5 c 128,-1,65
 438.900390625 398 438.900390625 398 433.620117188 364 c 0,66,67
 427.01953125 321 427.01953125 321 420.08984375 278.5 c 128,-1,68
 413.16015625 236 413.16015625 236 405.900390625 193 c 2,69,-1
 401.280273438 163 l 2,70,71
 397.98046875 139 397.98046875 139 395.33984375 115 c 128,-1,72
 392.700195312 91 392.700195312 91 394.6796875 83 c 0,73,74
 396 76 396 76 400.620117188 73.5 c 128,-1,75
 405.240234375 71 405.240234375 71 410.51953125 71 c 0,76,77
 429.66015625 71 429.66015625 71 448.139648438 95.5 c 128,-1,78
 466.620117188 120 466.620117188 120 482.129882812 154.5 c 128,-1,79
 497.639648438 189 497.639648438 189 508.530273438 226 c 128,-1,80
 519.419921875 263 519.419921875 263 523.379882812 288 c 0,81,82
 533.280273438 353 533.280273438 353 526.01953125 407 c 128,-1,83
 518.759765625 461 518.759765625 461 498.299804688 500 c 128,-1,84
 477.83984375 539 477.83984375 539 446.490234375 560.5 c 128,-1,85
 415.139648438 582 415.139648438 582 376.860351562 582 c 0,86,87
 330 582 330 582 288.419921875 552.5 c 128,-1,88
 246.83984375 523 246.83984375 523 212.849609375 474 c 128,-1,89
 178.860351562 425 178.860351562 425 154.76953125 359.5 c 128,-1,90
 130.6796875 294 130.6796875 294 119.459960938 222 c 0,91,92
 108.900390625 151 108.900390625 151 113.849609375 93 c 128,-1,93
 118.799804688 35 118.799804688 35 137.280273438 -11 c 0,94,95
 158.400390625 -61 158.400390625 -61 192.719726562 -89 c 128,-1,96
 227.040039062 -117 227.040039062 -117 274.559570312 -117 c 0,97,98
 292.379882812 -117 292.379882812 -117 314.16015625 -111 c 128,-1,99
 335.940429688 -105 335.940429688 -105 358.379882812 -93.5 c 128,-1,100
 380.8203125 -82 380.8203125 -82 401.280273438 -65 c 128,-1,101
 421.740234375 -48 421.740234375 -48 437.580078125 -26 c 1,102,103
 444.1796875 -29 444.1796875 -29 450.450195312 -32 c 128,-1,104
 456.719726562 -35 456.719726562 -35 463.3203125 -37 c 1,105,106
 417.120117188 -102 417.120117188 -102 366.299804688 -135 c 128,-1,107
 315.48046875 -168 315.48046875 -168 262.01953125 -168 c 0,108,109
 223.080078125 -168 223.080078125 -168 189.419921875 -150 c 128,-1,110
 155.759765625 -132 155.759765625 -132 130.01953125 -98.5 c 128,-1,111
 104.280273438 -65 104.280273438 -65 86.7900390625 -17 c 128,-1,112
 69.2998046875 31 69.2998046875 31 65.33984375 91 c 0,113,114
 62.7001953125 126 62.7001953125 126 65.009765625 163 c 128,-1,115
 67.3203125 200 67.3203125 200 73.259765625 237 c 0,116,117
 85.1396484375 317 85.1396484375 317 116.490234375 390 c 128,-1,118
 147.83984375 463 147.83984375 463 192.719726562 518 c 256,119,120
 236.940429688 573 236.940429688 573 286.110351562 600.5 c 128,-1,121
 335.280273438 628 335.280273438 628 384.120117188 628 c 0,122,123
 415.139648438 628 415.139648438 628 444.1796875 615 c 128,-1,124
 473.219726562 602 473.219726562 602 496.3203125 576.5 c 128,-1,125
 519.419921875 551 519.419921875 551 536.580078125 514 c 128,-1,126
 553.740234375 477 553.740234375 477 559.01953125 429 c 0,127,128
 562.98046875 397 562.98046875 397 562.98046875 364 c 128,-1,129
 562.98046875 331 562.98046875 331 557.700195312 296 c 0,130,131
 551.099609375 251 551.099609375 251 535.259765625 204.5 c 128,-1,132
 519.419921875 158 519.419921875 158 497.969726562 117.5 c 128,-1,133
 476.51953125 77 476.51953125 77 449.459960938 47.5 c 128,-1,134
 422.400390625 18 422.400390625 18 392.700195312 9 c 0,135,136
 389.400390625 8 389.400390625 8 385.76953125 7.5 c 128,-1,137
 382.139648438 7 382.139648438 7 378.1796875 7 c 0,138,139
 357.059570312 7 357.059570312 7 348.809570312 28.5 c 128,-1,140
 340.559570312 50 340.559570312 50 339.900390625 81 c 1,141,-1
 339.240234375 81 l 1,22,23
EndSplineSet
EndChar

StartChar: A
Encoding: 65 65 50
Width: 488
Flags: W
LayerCount: 2
Fore
SplineSet
7.919921875 11 m 0,0,1
 9.900390625 24 9.900390625 24 15.509765625 28.5 c 128,-1,2
 21.1201171875 33 21.1201171875 33 28.7099609375 35 c 128,-1,3
 36.2998046875 37 36.2998046875 37 44.8798828125 41 c 128,-1,4
 53.4599609375 45 53.4599609375 45 60.7197265625 59 c 0,5,6
 63.3603515625 63 63.3603515625 63 69.2998046875 77 c 128,-1,7
 75.240234375 91 75.240234375 91 81.83984375 106.5 c 128,-1,8
 88.4404296875 122 88.4404296875 122 94.0498046875 137 c 128,-1,9
 99.66015625 152 99.66015625 152 102.959960938 159 c 0,10,11
 124.740234375 214 124.740234375 214 146.190429688 268 c 128,-1,12
 167.639648438 322 167.639648438 322 190.080078125 377 c 0,13,14
 227.040039062 470 227.040039062 470 264.66015625 562 c 128,-1,15
 302.280273438 654 302.280273438 654 339.240234375 748 c 0,16,17
 341.219726562 754 341.219726562 754 343.530273438 757.5 c 128,-1,18
 345.83984375 761 345.83984375 761 350.459960938 761 c 0,19,20
 355.080078125 761 355.080078125 761 357.059570312 755.5 c 128,-1,21
 359.040039062 750 359.040039062 750 359.040039062 744 c 0,22,23
 364.3203125 686 364.3203125 686 370.259765625 625.5 c 128,-1,24
 376.200195312 565 376.200195312 565 382.139648438 507 c 0,25,26
 391.379882812 395 391.379882812 395 403.58984375 285.5 c 128,-1,27
 415.799804688 176 415.799804688 176 430.98046875 68 c 0,28,29
 433.620117188 49 433.620117188 49 443.190429688 42.5 c 128,-1,30
 452.759765625 36 452.759765625 36 462.330078125 33 c 128,-1,31
 471.900390625 30 471.900390625 30 478.830078125 26.5 c 128,-1,32
 485.759765625 23 485.759765625 23 483.780273438 9 c 0,33,34
 482.459960938 0 482.459960938 0 475.530273438 -3.5 c 128,-1,35
 468.599609375 -7 468.599609375 -7 462 -7 c 2,36,-1
 454.740234375 -7 l 2,37,38
 439.559570312 -7 439.559570312 -7 425.370117188 -4 c 128,-1,39
 411.1796875 -1 411.1796875 -1 395.33984375 -1 c 0,40,41
 372.900390625 -1 372.900390625 -1 351.120117188 -4 c 128,-1,42
 329.33984375 -7 329.33984375 -7 307.559570312 -7 c 0,43,44
 302.280273438 -7 302.280273438 -7 298.3203125 -1 c 128,-1,45
 294.360351562 5 294.360351562 5 296.33984375 14 c 0,46,47
 298.3203125 25 298.3203125 25 307.23046875 27.5 c 128,-1,48
 316.139648438 30 316.139648438 30 327.360351562 31 c 128,-1,49
 338.580078125 32 338.580078125 32 348.150390625 36 c 128,-1,50
 357.719726562 40 357.719726562 40 360.360351562 57 c 0,51,52
 361.01953125 60 361.01953125 60 360.690429688 64 c 128,-1,53
 360.360351562 68 360.360351562 68 360.360351562 71 c 0,54,55
 360.360351562 81 360.360351562 81 358.379882812 102 c 128,-1,56
 356.400390625 123 356.400390625 123 353.4296875 151.5 c 128,-1,57
 350.459960938 180 350.459960938 180 347.16015625 215 c 128,-1,58
 343.860351562 250 343.860351562 250 339.900390625 287 c 0,59,60
 338.580078125 297 338.580078125 297 337.58984375 305 c 128,-1,61
 336.599609375 313 336.599609375 313 335.940429688 315 c 0,62,63
 331.98046875 323 331.98046875 323 322.080078125 325 c 128,-1,64
 312.1796875 327 312.1796875 327 301.620117188 327 c 2,65,-1
 289.740234375 327 l 2,66,67
 282.48046875 327 282.48046875 327 270.26953125 327.5 c 128,-1,68
 258.059570312 328 258.059570312 328 244.860351562 328 c 0,69,70
 232.3203125 328 232.3203125 328 219.780273438 327 c 128,-1,71
 207.240234375 326 207.240234375 326 198.66015625 323 c 1,72,73
 180.83984375 280 180.83984375 280 164.33984375 237.5 c 128,-1,74
 147.83984375 195 147.83984375 195 135.629882812 160 c 128,-1,75
 123.419921875 125 123.419921875 125 116.16015625 101.5 c 128,-1,76
 108.900390625 78 108.900390625 78 107.580078125 73 c 0,77,78
 104.280273438 51 104.280273438 51 113.51953125 45 c 128,-1,79
 122.759765625 39 122.759765625 39 134.639648438 37 c 128,-1,80
 146.51953125 35 146.51953125 35 156.08984375 31.5 c 128,-1,81
 165.66015625 28 165.66015625 28 163.6796875 12 c 0,82,83
 162.360351562 4 162.360351562 4 157.41015625 -1.5 c 128,-1,84
 152.459960938 -7 152.459960938 -7 147.83984375 -7 c 0,85,86
 127.379882812 -7 127.379882812 -7 107.25 -3.5 c 128,-1,87
 87.1201171875 0 87.1201171875 0 66.66015625 0 c 0,88,89
 52.1396484375 0 52.1396484375 0 40.259765625 -2.5 c 128,-1,90
 28.3798828125 -5 28.3798828125 -5 14.51953125 -5 c 0,91,92
 9.900390625 -5 9.900390625 -5 8.580078125 0 c 128,-1,93
 7.259765625 5 7.259765625 5 7.919921875 11 c 0,0,1
317.459960938 614 m 1,94,95
 304.259765625 581 304.259765625 581 294.030273438 557.5 c 128,-1,96
 283.799804688 534 283.799804688 534 273.5703125 508 c 128,-1,97
 263.33984375 482 263.33984375 482 250.469726562 450.5 c 128,-1,98
 237.599609375 419 237.599609375 419 217.799804688 370 c 1,99,-1
 234.299804688 370 l 2,100,101
 244.860351562 370 244.860351562 370 266.639648438 370.5 c 128,-1,102
 288.419921875 371 288.419921875 371 328.6796875 371 c 1,103,104
 328.6796875 372 328.6796875 372 330.990234375 372.5 c 128,-1,105
 333.299804688 373 333.299804688 373 334.620117188 374 c 0,106,107
 331.98046875 410 331.98046875 410 329.33984375 450 c 128,-1,108
 326.700195312 490 326.700195312 490 324.389648438 525.5 c 128,-1,109
 322.080078125 561 322.080078125 561 320.4296875 585.5 c 128,-1,110
 318.780273438 610 318.780273438 610 317.459960938 614 c 1,94,95
EndSplineSet
Substitution2: "'c2sc' Versalien in Kapit+AOQA-lchen in Lateinisch Nachschlagetabelle 0 Subtabelle" uni1D00
EndChar

StartChar: B
Encoding: 66 66 51
Width: 431
Flags: W
LayerCount: 2
Fore
SplineSet
394.01953125 570 m 0,0,1
 403.919921875 639 403.919921875 639 383.459960938 675 c 128,-1,2
 363 711 363 711 322.740234375 711 c 2,3,-1
 314.16015625 711 l 2,4,5
 307.559570312 711 307.559570312 711 298.98046875 710.5 c 128,-1,6
 290.400390625 710 290.400390625 710 282.150390625 706 c 128,-1,7
 273.900390625 702 273.900390625 702 266.969726562 695 c 128,-1,8
 260.040039062 688 260.040039062 688 256.740234375 675 c 0,9,10
 254.099609375 664 254.099609375 664 252.120117188 652 c 128,-1,11
 250.139648438 640 250.139648438 640 248.16015625 629 c 2,12,-1
 218.459960938 433 l 2,13,14
 217.799804688 428 217.799804688 428 221.759765625 422 c 128,-1,15
 225.719726562 416 225.719726562 416 236.280273438 416 c 2,16,-1
 257.400390625 416 l 2,17,18
 279.83984375 416 279.83984375 416 301.620117188 424 c 128,-1,19
 323.400390625 432 323.400390625 432 341.879882812 450.5 c 128,-1,20
 360.360351562 469 360.360351562 469 374.219726562 498.5 c 128,-1,21
 388.080078125 528 388.080078125 528 394.01953125 570 c 0,0,1
367.620117188 206 m 0,22,23
 374.879882812 254 374.879882812 254 366.959960938 292 c 0,24,25
 360.360351562 324 360.360351562 324 347.16015625 341.5 c 128,-1,26
 333.959960938 359 333.959960938 359 316.799804688 368.5 c 128,-1,27
 299.639648438 378 299.639648438 378 279.1796875 380 c 128,-1,28
 258.719726562 382 258.719726562 382 238.259765625 382 c 2,29,-1
 227.700195312 382 l 2,30,31
 221.099609375 382 221.099609375 382 214.169921875 377 c 128,-1,32
 207.240234375 372 207.240234375 372 205.259765625 356 c 2,33,-1
 173.580078125 147 l 2,34,35
 170.280273438 123 170.280273438 123 168.299804688 98 c 128,-1,36
 166.3203125 73 166.3203125 73 175.559570312 55 c 0,37,38
 183.48046875 41 183.48046875 41 199.650390625 38 c 128,-1,39
 215.8203125 35 215.8203125 35 227.700195312 35 c 0,40,41
 285.780273438 35 285.780273438 35 321.08984375 82.5 c 128,-1,42
 356.400390625 130 356.400390625 130 367.620117188 206 c 0,22,23
434.940429688 216 m 0,43,44
 426.360351562 159 426.360351562 159 407.219726562 117.5 c 128,-1,45
 388.080078125 76 388.080078125 76 362.33984375 49 c 128,-1,46
 336.599609375 22 336.599609375 22 305.580078125 8.5 c 128,-1,47
 274.559570312 -5 274.559570312 -5 242.219726562 -6 c 0,48,49
 238.919921875 -7 238.919921875 -7 235.620117188 -7 c 256,50,51
 232.98046875 -7 232.98046875 -7 230.33984375 -7 c 2,52,-1
 45.5400390625 -7 l 2,53,54
 38.9404296875 -7 38.9404296875 -7 30.0302734375 -4.5 c 128,-1,55
 21.1201171875 -2 21.1201171875 -2 23.759765625 13 c 0,56,57
 25.080078125 23 25.080078125 23 35.3095703125 26 c 128,-1,58
 45.5400390625 29 45.5400390625 29 57.75 32 c 128,-1,59
 69.9599609375 35 69.9599609375 35 81.83984375 42 c 128,-1,60
 93.7197265625 49 93.7197265625 49 97.6796875 67 c 0,61,62
 98.33984375 69 98.33984375 69 104.280273438 99.5 c 128,-1,63
 110.219726562 130 110.219726562 130 117.48046875 178.5 c 128,-1,64
 124.740234375 227 124.740234375 227 134.969726562 288 c 128,-1,65
 145.200195312 349 145.200195312 349 155.099609375 412.5 c 128,-1,66
 165 476 165 476 174.240234375 537 c 256,67,68
 183.48046875 597 183.48046875 597 190.740234375 643 c 0,69,70
 193.379882812 662 193.379882812 662 192.719726562 674 c 128,-1,71
 192.059570312 686 192.059570312 686 188.099609375 692 c 128,-1,72
 184.139648438 698 184.139648438 698 176.549804688 700.5 c 128,-1,73
 168.959960938 703 168.959960938 703 159.059570312 706 c 0,74,75
 157.080078125 706 157.080078125 706 152.790039062 707 c 128,-1,76
 148.5 708 148.5 708 145.200195312 710 c 128,-1,77
 141.900390625 712 141.900390625 712 139.259765625 715 c 128,-1,78
 136.620117188 718 136.620117188 718 137.280273438 722 c 0,79,80
 138.599609375 732 138.599609375 732 146.51953125 736 c 128,-1,81
 154.440429688 740 154.440429688 740 165.66015625 741 c 128,-1,82
 176.879882812 742 176.879882812 742 188.4296875 741 c 128,-1,83
 199.98046875 740 199.98046875 740 207.900390625 740 c 0,84,85
 236.280273438 740 236.280273438 740 264.66015625 744.5 c 128,-1,86
 293.040039062 749 293.040039062 749 322.080078125 749 c 0,87,88
 347.8203125 749 347.8203125 749 374.549804688 739.5 c 128,-1,89
 401.280273438 730 401.280273438 730 421.740234375 709 c 128,-1,90
 442.200195312 688 442.200195312 688 451.76953125 653 c 128,-1,91
 461.33984375 618 461.33984375 618 453.419921875 568 c 0,92,93
 444.83984375 510 444.83984375 510 417.120117188 472.5 c 128,-1,94
 389.400390625 435 389.400390625 435 355.080078125 418 c 1,95,96
 357.719726562 414 357.719726562 414 366.299804688 409 c 128,-1,97
 374.879882812 404 374.879882812 404 378.83984375 401 c 0,98,99
 412.5 377 412.5 377 428.669921875 330.5 c 128,-1,100
 444.83984375 284 444.83984375 284 434.940429688 216 c 0,43,44
EndSplineSet
Substitution2: "'c2sc' Versalien in Kapit+AOQA-lchen in Lateinisch Nachschlagetabelle 0 Subtabelle" uni0299
EndChar

StartChar: C
Encoding: 67 67 52
Width: 455
Flags: W
LayerCount: 2
Fore
SplineSet
535.919921875 776 m 0,0,1
 540.540039062 776 540.540039062 776 540.209960938 766 c 128,-1,2
 539.879882812 756 539.879882812 756 537.900390625 741 c 256,3,4
 535.919921875 727 535.919921875 727 532.620117188 711.5 c 128,-1,5
 529.3203125 696 529.3203125 696 527.33984375 685 c 0,6,7
 523.379882812 658 523.379882812 658 518.4296875 631.5 c 128,-1,8
 513.48046875 605 513.48046875 605 508.200195312 579 c 0,9,10
 505.559570312 570 505.559570312 570 503.25 566.5 c 128,-1,11
 500.940429688 563 500.940429688 563 498.959960938 563 c 256,12,13
 496.3203125 563 496.3203125 563 494.009765625 564 c 128,-1,14
 491.700195312 565 491.700195312 565 489.719726562 565 c 0,15,16
 485.759765625 565 485.759765625 565 484.76953125 574.5 c 128,-1,17
 483.780273438 584 483.780273438 584 483.780273438 596.5 c 128,-1,18
 483.780273438 609 483.780273438 609 483.780273438 623 c 128,-1,19
 483.780273438 637 483.780273438 637 481.799804688 647 c 0,20,21
 466.620117188 683 466.620117188 683 440.549804688 702 c 128,-1,22
 414.48046875 721 414.48046875 721 384.120117188 721 c 0,23,24
 340.559570312 721 340.559570312 721 305.580078125 693.5 c 128,-1,25
 270.599609375 666 270.599609375 666 244.200195312 619.5 c 128,-1,26
 217.799804688 573 217.799804688 573 198.990234375 512.5 c 128,-1,27
 180.1796875 452 180.1796875 452 170.280273438 386 c 0,28,29
 159.719726562 315 159.719726562 315 158.73046875 248.5 c 128,-1,30
 157.740234375 182 157.740234375 182 169.950195312 130.5 c 128,-1,31
 182.16015625 79 182.16015625 79 209.219726562 47 c 128,-1,32
 236.280273438 15 236.280273438 15 282.48046875 15 c 0,33,34
 297.66015625 15 297.66015625 15 314.8203125 21 c 128,-1,35
 331.98046875 27 331.98046875 27 349.139648438 37.5 c 128,-1,36
 366.299804688 48 366.299804688 48 382.139648438 63.5 c 128,-1,37
 397.98046875 79 397.98046875 79 411.1796875 99 c 0,38,39
 415.139648438 106 415.139648438 106 421.080078125 118.5 c 128,-1,40
 427.01953125 131 427.01953125 131 433.290039062 143.5 c 128,-1,41
 439.559570312 156 439.559570312 156 444.83984375 165 c 128,-1,42
 450.120117188 174 450.120117188 174 452.759765625 174 c 0,43,44
 459.360351562 174 459.360351562 174 461.669921875 170 c 128,-1,45
 463.98046875 166 463.98046875 166 462.66015625 155 c 0,46,47
 461.33984375 147 461.33984375 147 457.049804688 128.5 c 128,-1,48
 452.759765625 110 452.759765625 110 447.150390625 90 c 128,-1,49
 441.540039062 70 441.540039062 70 435.9296875 53.5 c 128,-1,50
 430.3203125 37 430.3203125 37 426.360351562 32 c 0,51,52
 413.8203125 17 413.8203125 17 394.349609375 6 c 128,-1,53
 374.879882812 -5 374.879882812 -5 353.759765625 -12 c 128,-1,54
 332.639648438 -19 332.639648438 -19 310.860351562 -22.5 c 128,-1,55
 289.080078125 -26 289.080078125 -26 272.580078125 -26 c 0,56,57
 217.139648438 -26 217.139648438 -26 177.870117188 7.5 c 128,-1,58
 138.599609375 41 138.599609375 41 116.16015625 97.5 c 128,-1,59
 93.7197265625 154 93.7197265625 154 88.4404296875 228.5 c 128,-1,60
 83.16015625 303 83.16015625 303 95.0400390625 385 c 0,61,62
 108.240234375 474 108.240234375 474 136.620117188 543 c 128,-1,63
 165 612 165 612 202.620117188 660 c 128,-1,64
 240.240234375 708 240.240234375 708 286.76953125 732.5 c 128,-1,65
 333.299804688 757 333.299804688 757 384.120117188 757 c 0,66,67
 405.900390625 757 405.900390625 757 426.030273438 753 c 128,-1,68
 446.16015625 749 446.16015625 749 466.620117188 741 c 0,69,70
 471.240234375 739 471.240234375 739 477.1796875 735.5 c 128,-1,71
 483.120117188 732 483.120117188 732 489.719726562 729 c 0,72,73
 493.01953125 723 493.01953125 723 497.309570312 729.5 c 128,-1,74
 501.599609375 736 501.599609375 736 506.879882812 746.5 c 128,-1,75
 512.16015625 757 512.16015625 757 519.419921875 766.5 c 128,-1,76
 526.6796875 776 526.6796875 776 535.919921875 776 c 0,0,1
EndSplineSet
Substitution2: "'c2sc' Versalien in Kapit+AOQA-lchen in Lateinisch Nachschlagetabelle 0 Subtabelle" uni1D04
EndChar

StartChar: D
Encoding: 68 68 53
Width: 521
Flags: W
LayerCount: 2
Fore
SplineSet
469.919921875 368 m 0,0,1
 489.059570312 492 489.059570312 492 463.650390625 579.5 c 128,-1,2
 438.240234375 667 438.240234375 667 368.940429688 702 c 0,3,4
 357.059570312 708 357.059570312 708 343.860351562 713 c 128,-1,5
 330.66015625 718 330.66015625 718 316.139648438 718 c 2,6,-1
 298.98046875 718 l 1,7,8
 299.639648438 718 299.639648438 718 295.349609375 717.5 c 128,-1,9
 291.059570312 717 291.059570312 717 284.790039062 714 c 128,-1,10
 278.51953125 711 278.51953125 711 271.58984375 704 c 128,-1,11
 264.66015625 697 264.66015625 697 259.379882812 685 c 0,12,13
 256.080078125 675 256.080078125 675 254.099609375 665 c 128,-1,14
 252.120117188 655 252.120117188 655 250.799804688 645 c 0,15,16
 246.83984375 618 246.83984375 618 242.549804688 590.5 c 128,-1,17
 238.259765625 563 238.259765625 563 234.299804688 537 c 0,18,19
 221.099609375 447 221.099609375 447 206.91015625 358 c 128,-1,20
 192.719726562 269 192.719726562 269 178.860351562 179 c 0,21,22
 172.259765625 134 172.259765625 134 170.940429688 104.5 c 128,-1,23
 169.620117188 75 169.620117188 75 174.900390625 57.5 c 128,-1,24
 180.1796875 40 180.1796875 40 191.0703125 33 c 128,-1,25
 201.959960938 26 201.959960938 26 219.120117188 26 c 0,26,27
 263.33984375 26 263.33984375 26 303.9296875 52.5 c 128,-1,28
 344.51953125 79 344.51953125 79 377.849609375 125.5 c 128,-1,29
 411.1796875 172 411.1796875 172 435.26953125 234.5 c 128,-1,30
 459.360351562 297 459.360351562 297 469.919921875 368 c 0,0,1
539.879882812 360 m 0,31,32
 526.6796875 272 526.6796875 272 493.6796875 203.5 c 128,-1,33
 460.6796875 135 460.6796875 135 416.459960938 88 c 128,-1,34
 372.240234375 41 372.240234375 41 320.759765625 16.5 c 128,-1,35
 269.280273438 -8 269.280273438 -8 219.780273438 -8 c 0,36,37
 204.599609375 -8 204.599609375 -8 195.030273438 -7 c 128,-1,38
 185.459960938 -6 185.459960938 -6 176.879882812 -5 c 128,-1,39
 168.299804688 -4 168.299804688 -4 158.400390625 -3 c 128,-1,40
 148.5 -2 148.5 -2 133.98046875 -2 c 0,41,42
 107.580078125 -2 107.580078125 -2 82.830078125 -4.5 c 128,-1,43
 58.080078125 -7 58.080078125 -7 31.6796875 -7 c 0,44,45
 26.400390625 -7 26.400390625 -7 27.7197265625 2 c 0,46,47
 29.0400390625 12 29.0400390625 12 33.330078125 17.5 c 128,-1,48
 37.6201171875 23 37.6201171875 23 42.900390625 26 c 128,-1,49
 48.1796875 29 48.1796875 29 53.4599609375 30 c 128,-1,50
 58.740234375 31 58.740234375 31 63.3603515625 33 c 0,51,52
 84.48046875 40 84.48046875 40 91.740234375 55 c 128,-1,53
 99 70 99 70 104.940429688 100 c 0,54,55
 106.919921875 110 106.919921875 110 109.23046875 123.5 c 128,-1,56
 111.540039062 137 111.540039062 137 115.169921875 160 c 128,-1,57
 118.799804688 183 118.799804688 183 125.0703125 220 c 128,-1,58
 131.33984375 257 131.33984375 257 139.919921875 316 c 2,59,-1
 176.219726562 555 l 2,60,61
 178.860351562 571 178.860351562 571 181.830078125 590.5 c 128,-1,62
 184.799804688 610 184.799804688 610 186.780273438 628 c 128,-1,63
 188.759765625 646 188.759765625 646 189.75 660 c 128,-1,64
 190.740234375 674 190.740234375 674 190.740234375 679 c 0,65,66
 188.759765625 694 188.759765625 694 179.849609375 697.5 c 128,-1,67
 170.940429688 701 170.940429688 701 161.700195312 701 c 0,68,69
 157.080078125 701 157.080078125 701 151.799804688 700.5 c 128,-1,70
 146.51953125 700 146.51953125 700 141.240234375 700 c 0,71,72
 135.959960938 700 135.959960938 700 132 706 c 0,73,74
 129.360351562 710 129.360351562 710 131.33984375 718 c 128,-1,75
 133.3203125 726 133.3203125 726 136.620117188 730 c 256,76,77
 139.919921875 734 139.919921875 734 152.790039062 737.5 c 128,-1,78
 165.66015625 741 165.66015625 741 184.139648438 743.5 c 128,-1,79
 202.620117188 746 202.620117188 746 223.41015625 748 c 128,-1,80
 244.200195312 750 244.200195312 750 263.33984375 751 c 128,-1,81
 282.48046875 752 282.48046875 752 297.66015625 752.5 c 128,-1,82
 312.83984375 753 312.83984375 753 318.780273438 753 c 0,83,84
 381.48046875 753 381.48046875 753 429.66015625 726 c 128,-1,85
 477.83984375 699 477.83984375 699 506.879882812 648.5 c 128,-1,86
 535.919921875 598 535.919921875 598 545.16015625 525 c 128,-1,87
 554.400390625 452 554.400390625 452 539.879882812 360 c 0,31,32
EndSplineSet
Substitution2: "'c2sc' Versalien in Kapit+AOQA-lchen in Lateinisch Nachschlagetabelle 0 Subtabelle" uni1D05
EndChar

StartChar: E
Encoding: 69 69 54
Width: 420
Flags: W
LayerCount: 2
Fore
SplineSet
440.879882812 582 m 0,0,1
 434.940429688 582 434.940429688 582 432.629882812 594.5 c 128,-1,2
 430.3203125 607 430.3203125 607 429.330078125 624.5 c 128,-1,3
 428.33984375 642 428.33984375 642 426.360351562 659 c 128,-1,4
 424.379882812 676 424.379882812 676 417.120117188 684 c 0,5,6
 412.5 689 412.5 689 401.940429688 692.5 c 128,-1,7
 391.379882812 696 391.379882812 696 378.509765625 698 c 128,-1,8
 365.639648438 700 365.639648438 700 351.780273438 700.5 c 128,-1,9
 337.919921875 701 337.919921875 701 325.379882812 701 c 2,10,-1
 297.66015625 701 l 2,11,12
 283.139648438 701 283.139648438 701 273.900390625 691.5 c 128,-1,13
 264.66015625 682 264.66015625 682 259.049804688 666.5 c 128,-1,14
 253.440429688 651 253.440429688 651 250.139648438 632 c 128,-1,15
 246.83984375 613 246.83984375 613 244.200195312 596 c 0,16,17
 238.919921875 561 238.919921875 561 233.639648438 526.5 c 128,-1,18
 228.360351562 492 228.360351562 492 223.080078125 457 c 2,19,-1
 219.780273438 433 l 2,20,21
 217.799804688 420 217.799804688 420 217.799804688 412 c 0,22,23
 219.780273438 407 219.780273438 407 224.0703125 404.5 c 128,-1,24
 228.360351562 402 228.360351562 402 234.629882812 401.5 c 128,-1,25
 240.900390625 401 240.900390625 401 246.509765625 401.5 c 128,-1,26
 252.120117188 402 252.120117188 402 255.419921875 402 c 0,27,28
 272.580078125 402 272.580078125 402 290.400390625 402.5 c 128,-1,29
 308.219726562 403 308.219726562 403 326.040039062 408 c 0,30,31
 345.83984375 413 345.83984375 413 356.73046875 433.5 c 128,-1,32
 367.620117188 454 367.620117188 454 373.559570312 483 c 0,33,34
 376.200195312 489 376.200195312 489 379.5 495 c 128,-1,35
 382.799804688 501 382.799804688 501 387.419921875 501 c 0,36,37
 394.01953125 501 394.01953125 501 393.360351562 490.5 c 128,-1,38
 392.700195312 480 392.700195312 480 390.719726562 469 c 0,39,40
 387.419921875 447 387.419921875 447 383.459960938 425.5 c 128,-1,41
 379.5 404 379.5 404 376.200195312 383 c 256,42,43
 372.900390625 361 372.900390625 361 370.58984375 340 c 128,-1,44
 368.280273438 319 368.280273438 319 364.98046875 298 c 0,45,46
 364.3203125 293 364.3203125 293 363.330078125 285.5 c 128,-1,47
 362.33984375 278 362.33984375 278 360.690429688 270.5 c 128,-1,48
 359.040039062 263 359.040039062 263 356.0703125 258.5 c 128,-1,49
 353.099609375 254 353.099609375 254 348.48046875 254 c 256,50,51
 343.860351562 254 343.860351562 254 342.870117188 263 c 128,-1,52
 341.879882812 272 341.879882812 272 342.209960938 284 c 128,-1,53
 342.540039062 296 342.540039062 296 342.870117188 307.5 c 128,-1,54
 343.200195312 319 343.200195312 319 342.540039062 325 c 0,55,56
 343.200195312 344 343.200195312 344 334.290039062 354 c 128,-1,57
 325.379882812 364 325.379882812 364 311.849609375 367.5 c 128,-1,58
 298.3203125 371 298.3203125 371 282.48046875 370.5 c 128,-1,59
 266.639648438 370 266.639648438 370 254.759765625 370 c 0,60,61
 251.459960938 370 251.459960938 370 246.83984375 369.5 c 128,-1,62
 242.219726562 369 242.219726562 369 236.280273438 368.5 c 128,-1,63
 230.33984375 368 230.33984375 368 224.73046875 367 c 128,-1,64
 219.120117188 366 219.120117188 366 216.48046875 365 c 0,65,66
 212.51953125 364 212.51953125 364 209.879882812 355.5 c 128,-1,67
 207.240234375 347 207.240234375 347 205.259765625 337 c 128,-1,68
 203.280273438 327 203.280273438 327 201.959960938 316.5 c 128,-1,69
 200.639648438 306 200.639648438 306 199.98046875 302 c 2,70,-1
 175.559570312 140 l 2,71,72
 173.580078125 129 173.580078125 129 171.9296875 115 c 128,-1,73
 170.280273438 101 170.280273438 101 169.620117188 87.5 c 128,-1,74
 168.959960938 74 168.959960938 74 170.610351562 62 c 128,-1,75
 172.259765625 50 172.259765625 50 178.200195312 44 c 0,76,77
 182.8203125 40 182.8203125 40 195.030273438 37.5 c 128,-1,78
 207.240234375 35 207.240234375 35 221.099609375 34 c 128,-1,79
 234.959960938 33 234.959960938 33 248.16015625 32.5 c 128,-1,80
 261.360351562 32 261.360351562 32 266.639648438 32 c 2,81,-1
 286.440429688 32 l 2,82,83
 294.360351562 32 294.360351562 32 304.58984375 33 c 128,-1,84
 314.8203125 34 314.8203125 34 324.389648438 35.5 c 128,-1,85
 333.959960938 37 333.959960938 37 342.209960938 40 c 128,-1,86
 350.459960938 43 350.459960938 43 356.400390625 48 c 0,87,88
 366.299804688 57 366.299804688 57 376.860351562 76.5 c 128,-1,89
 387.419921875 96 387.419921875 96 396.990234375 115.5 c 128,-1,90
 406.559570312 135 406.559570312 135 414.809570312 150 c 128,-1,91
 423.059570312 165 423.059570312 165 428.33984375 165 c 0,92,93
 435.599609375 165 435.599609375 165 435.26953125 156.5 c 128,-1,94
 434.940429688 148 434.940429688 148 430.98046875 140 c 0,95,96
 430.98046875 139 430.98046875 139 428.33984375 130 c 128,-1,97
 425.700195312 121 425.700195312 121 425.040039062 119 c 0,98,99
 423.719726562 116 423.719726562 116 418.76953125 98 c 128,-1,100
 413.8203125 80 413.8203125 80 407.549804688 60 c 128,-1,101
 401.280273438 40 401.280273438 40 396.66015625 23.5 c 128,-1,102
 392.040039062 7 392.040039062 7 392.040039062 7 c 1,103,104
 385.440429688 -5 385.440429688 -5 374.219726562 -5 c 2,105,-1
 77.8798828125 -5 l 2,106,107
 69.2998046875 -5 69.2998046875 -5 60.0595703125 -6 c 128,-1,108
 50.8203125 -7 50.8203125 -7 40.919921875 -7 c 0,109,110
 34.3203125 -7 34.3203125 -7 27.7197265625 -6 c 128,-1,111
 21.1201171875 -5 21.1201171875 -5 23.099609375 10 c 0,112,113
 24.419921875 18 24.419921875 18 32.669921875 22.5 c 128,-1,114
 40.919921875 27 40.919921875 27 52.4697265625 31 c 128,-1,115
 64.01953125 35 64.01953125 35 75.900390625 41.5 c 128,-1,116
 87.7802734375 48 87.7802734375 48 95.0400390625 61 c 0,117,118
 101.639648438 73 101.639648438 73 108.240234375 101 c 128,-1,119
 114.83984375 129 114.83984375 129 119.459960938 162 c 0,120,121
 124.740234375 196 124.740234375 196 129.360351562 230 c 128,-1,122
 133.98046875 264 133.98046875 264 137.940429688 290 c 0,123,124
 150.48046875 373 150.48046875 373 162.360351562 455 c 128,-1,125
 174.240234375 537 174.240234375 537 187.440429688 620 c 2,126,-1
 190.080078125 638 l 2,127,128
 190.740234375 643 190.740234375 643 191.400390625 647 c 256,129,130
 192.059570312 651 192.059570312 651 192.059570312 656 c 0,131,132
 194.700195312 683 194.700195312 683 185.459960938 691.5 c 128,-1,133
 176.219726562 700 176.219726562 700 164.33984375 703 c 128,-1,134
 152.459960938 706 152.459960938 706 143.549804688 708.5 c 128,-1,135
 134.639648438 711 134.639648438 711 136.620117188 724 c 0,136,137
 137.940429688 733 137.940429688 733 143.549804688 736.5 c 128,-1,138
 149.16015625 740 149.16015625 740 156.75 741.5 c 128,-1,139
 164.33984375 743 164.33984375 743 172.259765625 742.5 c 128,-1,140
 180.1796875 742 180.1796875 742 186.120117188 742 c 0,141,142
 207.900390625 742 207.900390625 742 229.01953125 740.5 c 128,-1,143
 250.139648438 739 250.139648438 739 271.919921875 739 c 0,144,145
 315.48046875 739 315.48046875 739 357.389648438 740.5 c 128,-1,146
 399.299804688 742 399.299804688 742 442.860351562 742 c 2,147,-1
 449.459960938 742 l 2,148,149
 456.059570312 742 456.059570312 742 462.990234375 740 c 128,-1,150
 469.919921875 738 469.919921875 738 469.919921875 730 c 0,151,152
 469.259765625 710 469.259765625 710 466.620117188 692 c 0,153,154
 465.299804688 683 465.299804688 683 462.66015625 670 c 128,-1,155
 460.01953125 657 460.01953125 657 457.379882812 639 c 0,156,157
 454.080078125 619 454.080078125 619 450.120117188 601 c 128,-1,158
 446.16015625 583 446.16015625 583 440.879882812 582 c 0,0,1
EndSplineSet
Substitution2: "'c2sc' Versalien in Kapit+AOQA-lchen in Lateinisch Nachschlagetabelle 0 Subtabelle" uni1D07
EndChar

StartChar: F
Encoding: 70 70 55
Width: 380
Flags: W
LayerCount: 2
Fore
SplineSet
134.639648438 720 m 0,0,1
 135.299804688 726 135.299804688 726 137.280273438 730 c 128,-1,2
 139.259765625 734 139.259765625 734 144.209960938 736.5 c 128,-1,3
 149.16015625 739 149.16015625 739 158.400390625 739.5 c 128,-1,4
 167.639648438 740 167.639648438 740 184.139648438 740 c 0,5,6
 199.3203125 740 199.3203125 740 212.51953125 739.5 c 128,-1,7
 225.719726562 739 225.719726562 739 231 739 c 2,8,-1
 328.6796875 739 l 2,9,10
 357.719726562 739 357.719726562 739 386.099609375 739.5 c 128,-1,11
 414.48046875 740 414.48046875 740 442.860351562 740 c 2,12,-1
 456.719726562 740 l 2,13,14
 461.33984375 740 461.33984375 740 465.299804688 739.5 c 128,-1,15
 469.259765625 739 469.259765625 739 470.580078125 739 c 0,16,17
 473.219726562 738 473.219726562 738 472.23046875 722.5 c 128,-1,18
 471.240234375 707 471.240234375 707 468.599609375 687 c 128,-1,19
 465.959960938 667 465.959960938 667 462.330078125 647.5 c 128,-1,20
 458.700195312 628 458.700195312 628 457.379882812 620 c 0,21,22
 456.719726562 614 456.719726562 614 455.400390625 606 c 256,23,24
 454.080078125 599 454.080078125 599 452.759765625 593 c 128,-1,25
 451.440429688 587 451.440429688 587 449.129882812 583 c 128,-1,26
 446.8203125 579 446.8203125 579 442.860351562 579 c 0,27,28
 433.620117188 579 433.620117188 579 432.959960938 593 c 128,-1,29
 432.299804688 607 432.299804688 607 432.959960938 626 c 128,-1,30
 433.620117188 645 433.620117188 645 431.309570312 664 c 128,-1,31
 429 683 429 683 416.459960938 691 c 0,32,33
 411.1796875 695 411.1796875 695 399.959960938 697 c 128,-1,34
 388.740234375 699 388.740234375 699 376.860351562 700.5 c 128,-1,35
 364.98046875 702 364.98046875 702 353.4296875 702.5 c 128,-1,36
 341.879882812 703 341.879882812 703 334.620117188 703 c 2,37,-1
 320.759765625 703 l 2,38,39
 308.219726562 703 308.219726562 703 293.040039062 700 c 128,-1,40
 277.860351562 697 277.860351562 697 271.259765625 691 c 0,41,42
 258.059570312 679 258.059570312 679 253.440429688 661 c 128,-1,43
 248.8203125 643 248.8203125 643 246.1796875 623 c 0,44,45
 239.580078125 577 239.580078125 577 232.650390625 530.5 c 128,-1,46
 225.719726562 484 225.719726562 484 218.459960938 438 c 0,47,48
 215.8203125 422 215.8203125 422 217.469726562 414.5 c 128,-1,49
 219.120117188 407 219.120117188 407 223.41015625 404 c 128,-1,50
 227.700195312 401 227.700195312 401 233.969726562 401.5 c 128,-1,51
 240.240234375 402 240.240234375 402 246.83984375 402 c 2,52,-1
 269.940429688 402 l 2,53,54
 280.5 402 280.5 402 292.379882812 402.5 c 128,-1,55
 304.259765625 403 304.259765625 403 315.809570312 406 c 128,-1,56
 327.360351562 409 327.360351562 409 336.26953125 413 c 128,-1,57
 345.1796875 417 345.1796875 417 350.459960938 424 c 0,58,59
 358.379882812 434 358.379882812 434 363.330078125 448.5 c 128,-1,60
 368.280273438 463 368.280273438 463 372.240234375 475 c 128,-1,61
 376.200195312 487 376.200195312 487 380.8203125 496 c 128,-1,62
 385.440429688 505 385.440429688 505 392.700195312 505 c 0,63,64
 397.3203125 505 397.3203125 505 396.66015625 495.5 c 128,-1,65
 396 486 396 486 395.33984375 481 c 0,66,67
 392.040039062 458 392.040039062 458 388.080078125 437 c 128,-1,68
 384.120117188 416 384.120117188 416 380.8203125 393 c 256,69,70
 377.51953125 370 377.51953125 370 374.879882812 349 c 128,-1,71
 372.240234375 328 372.240234375 328 368.940429688 305 c 0,72,73
 368.280273438 299 368.280273438 299 367.290039062 291.5 c 128,-1,74
 366.299804688 284 366.299804688 284 364.3203125 276 c 128,-1,75
 362.33984375 268 362.33984375 268 359.370117188 263 c 128,-1,76
 356.400390625 258 356.400390625 258 352.440429688 258 c 0,77,78
 346.5 258 346.5 258 345.509765625 272.5 c 128,-1,79
 344.51953125 287 344.51953125 287 344.190429688 305 c 128,-1,80
 343.860351562 323 343.860351562 323 340.23046875 340 c 128,-1,81
 336.599609375 357 336.599609375 357 323.400390625 364 c 0,82,83
 315.48046875 369 315.48046875 369 298.3203125 370.5 c 128,-1,84
 281.16015625 372 281.16015625 372 266.639648438 372 c 2,85,-1
 250.139648438 372 l 2,86,87
 245.51953125 372 245.51953125 372 238.58984375 372.5 c 128,-1,88
 231.66015625 373 231.66015625 373 225.059570312 371.5 c 128,-1,89
 218.459960938 370 218.459960938 370 212.51953125 364.5 c 128,-1,90
 206.580078125 359 206.580078125 359 205.259765625 349 c 0,91,92
 198.66015625 303 198.66015625 303 191.0703125 258 c 128,-1,93
 183.48046875 213 183.48046875 213 176.219726562 167 c 2,94,-1
 172.919921875 145 l 2,95,96
 171.599609375 135 171.599609375 135 169.620117188 122 c 0,97,98
 167.639648438 110 167.639648438 110 166.650390625 98 c 128,-1,99
 165.66015625 86 165.66015625 86 164.33984375 77 c 128,-1,100
 163.01953125 68 163.01953125 68 164.33984375 65 c 0,101,102
 166.98046875 46 166.98046875 46 178.200195312 39.5 c 128,-1,103
 189.419921875 33 189.419921875 33 201.629882812 31 c 128,-1,104
 213.83984375 29 213.83984375 29 222.75 25.5 c 128,-1,105
 231.66015625 22 231.66015625 22 229.01953125 7 c 0,106,107
 227.700195312 -2 227.700195312 -2 221.4296875 -5.5 c 128,-1,108
 215.16015625 -9 215.16015625 -9 208.559570312 -9 c 2,109,-1
 201.959960938 -9 l 2,110,111
 178.860351562 -9 178.860351562 -9 156.419921875 -5.5 c 128,-1,112
 133.98046875 -2 133.98046875 -2 110.219726562 -2 c 0,113,114
 91.740234375 -2 91.740234375 -2 74.25 -5.5 c 128,-1,115
 56.759765625 -9 56.759765625 -9 38.9404296875 -9 c 0,116,117
 34.3203125 -9 34.3203125 -9 27.3896484375 -7.5 c 128,-1,118
 20.4599609375 -6 20.4599609375 -6 22.4404296875 5 c 0,119,120
 23.759765625 13 23.759765625 13 30.0302734375 18 c 128,-1,121
 36.2998046875 23 36.2998046875 23 44.2197265625 25 c 128,-1,122
 52.1396484375 27 52.1396484375 27 60.0595703125 28.5 c 128,-1,123
 67.98046875 30 67.98046875 30 72.599609375 32 c 0,124,125
 87.1201171875 36 87.1201171875 36 94.3798828125 56 c 0,126,127
 97.01953125 62 97.01953125 62 101.309570312 78.5 c 128,-1,128
 105.599609375 95 105.599609375 95 109.23046875 116 c 128,-1,129
 112.860351562 137 112.860351562 137 116.490234375 159 c 128,-1,130
 120.120117188 181 120.120117188 181 122.759765625 200 c 2,131,-1
 129.360351562 238 l 2,132,133
 145.200195312 340 145.200195312 340 159.059570312 439.5 c 128,-1,134
 172.919921875 539 172.919921875 539 188.759765625 641 c 0,135,136
 192.719726562 666 192.719726562 666 189.419921875 678.5 c 128,-1,137
 186.120117188 691 186.120117188 691 179.51953125 696.5 c 128,-1,138
 172.919921875 702 172.919921875 702 165 703.5 c 128,-1,139
 157.080078125 705 157.080078125 705 149.490234375 705.5 c 128,-1,140
 141.900390625 706 141.900390625 706 137.610351562 708.5 c 128,-1,141
 133.3203125 711 133.3203125 711 134.639648438 720 c 0,0,1
EndSplineSet
Substitution2: "'c2sc' Versalien in Kapit+AOQA-lchen in Lateinisch Nachschlagetabelle 0 Subtabelle" uniA730
EndChar

StartChar: G
Encoding: 71 71 56
Width: 504
Flags: W
LayerCount: 2
Fore
SplineSet
534.599609375 757 m 0,0,1
 539.219726562 757 539.219726562 757 538.559570312 746.5 c 128,-1,2
 537.900390625 736 537.900390625 736 535.919921875 722 c 256,3,4
 533.940429688 708 533.940429688 708 530.639648438 692.5 c 128,-1,5
 527.33984375 677 527.33984375 677 526.01953125 666 c 0,6,7
 522.059570312 639 522.059570312 639 517.110351562 612.5 c 128,-1,8
 512.16015625 586 512.16015625 586 506.879882812 559 c 0,9,10
 504.240234375 550 504.240234375 550 501.9296875 547 c 128,-1,11
 499.620117188 544 499.620117188 544 496.98046875 544 c 256,12,13
 494.33984375 544 494.33984375 544 492.030273438 545 c 128,-1,14
 489.719726562 546 489.719726562 546 488.400390625 546 c 0,15,16
 484.440429688 546 484.440429688 546 482.790039062 554 c 128,-1,17
 481.139648438 562 481.139648438 562 480.809570312 574.5 c 128,-1,18
 480.48046875 587 480.48046875 587 480.809570312 600.5 c 128,-1,19
 481.139648438 614 481.139648438 614 480.48046875 626 c 0,20,21
 477.83984375 648 477.83984375 648 468.599609375 665 c 128,-1,22
 459.360351562 682 459.360351562 682 445.5 694.5 c 128,-1,23
 431.639648438 707 431.639648438 707 415.139648438 713.5 c 128,-1,24
 398.639648438 720 398.639648438 720 382.139648438 720 c 0,25,26
 335.280273438 720 335.280273438 720 300.299804688 691 c 128,-1,27
 265.3203125 662 265.3203125 662 239.91015625 613.5 c 128,-1,28
 214.5 565 214.5 565 197.33984375 503 c 128,-1,29
 180.1796875 441 180.1796875 441 170.280273438 377 c 0,30,31
 160.379882812 309 160.379882812 309 159.059570312 247 c 128,-1,32
 157.740234375 185 157.740234375 185 168.629882812 137.5 c 128,-1,33
 179.51953125 90 179.51953125 90 203.610351562 62 c 128,-1,34
 227.700195312 34 227.700195312 34 269.280273438 34 c 0,35,36
 310.200195312 34 310.200195312 34 335.280273438 45.5 c 128,-1,37
 360.360351562 57 360.360351562 57 374.219726562 79 c 128,-1,38
 388.080078125 101 388.080078125 101 394.6796875 133.5 c 128,-1,39
 401.280273438 166 401.280273438 166 407.879882812 208 c 0,40,41
 416.459960938 264 416.459960938 264 420.08984375 296 c 128,-1,42
 423.719726562 328 423.719726562 328 421.080078125 343.5 c 128,-1,43
 418.440429688 359 418.440429688 359 408.870117188 363 c 128,-1,44
 399.299804688 367 399.299804688 367 382.139648438 367 c 0,45,46
 374.219726562 367 374.219726562 367 367.620117188 369 c 128,-1,47
 361.01953125 371 361.01953125 371 363.66015625 388 c 0,48,49
 364.98046875 395 364.98046875 395 368.940429688 398.5 c 128,-1,50
 372.900390625 402 372.900390625 402 377.849609375 404 c 128,-1,51
 382.799804688 406 382.799804688 406 387.75 406.5 c 128,-1,52
 392.700195312 407 392.700195312 407 395.33984375 407 c 0,53,54
 414.48046875 407 414.48046875 407 427.01953125 404.5 c 128,-1,55
 439.559570312 402 439.559570312 402 458.040039062 402 c 0,56,57
 479.16015625 402 479.16015625 402 495 405 c 128,-1,58
 510.83984375 408 510.83984375 408 531.299804688 408 c 0,59,60
 537.900390625 408 537.900390625 408 545.8203125 405.5 c 128,-1,61
 553.740234375 403 553.740234375 403 551.759765625 389 c 0,62,63
 550.440429688 379 550.440429688 379 544.169921875 376.5 c 128,-1,64
 537.900390625 374 537.900390625 374 529.98046875 373.5 c 128,-1,65
 522.059570312 373 522.059570312 373 512.8203125 371 c 128,-1,66
 503.580078125 369 503.580078125 369 495.66015625 359 c 0,67,68
 493.01953125 357 493.01953125 357 489.389648438 349 c 128,-1,69
 485.759765625 341 485.759765625 341 483.120117188 329 c 128,-1,70
 480.48046875 317 480.48046875 317 477.83984375 304 c 128,-1,71
 475.200195312 291 475.200195312 291 473.879882812 280 c 2,72,-1
 470.580078125 259 l 2,73,74
 468.599609375 246 468.599609375 246 465.299804688 223.5 c 128,-1,75
 462 201 462 201 458.700195312 177 c 128,-1,76
 455.400390625 153 455.400390625 153 452.4296875 130.5 c 128,-1,77
 449.459960938 108 449.459960938 108 447.48046875 94 c 0,78,79
 446.16015625 87 446.16015625 87 444.509765625 77 c 128,-1,80
 442.860351562 67 442.860351562 67 438.900390625 61 c 0,81,82
 423.719726562 37 423.719726562 37 399.299804688 24.5 c 128,-1,83
 374.879882812 12 374.879882812 12 348.48046875 5.5 c 128,-1,84
 322.080078125 -1 322.080078125 -1 297.66015625 -2.5 c 128,-1,85
 273.240234375 -4 273.240234375 -4 258.719726562 -4 c 0,86,87
 209.219726562 -4 209.219726562 -4 171.599609375 18 c 128,-1,88
 133.98046875 40 133.98046875 40 111.540039062 85 c 128,-1,89
 89.099609375 130 89.099609375 130 83.490234375 198.5 c 128,-1,90
 77.8798828125 267 77.8798828125 267 91.740234375 359 c 0,91,92
 106.259765625 452 106.259765625 452 134.639648438 526 c 128,-1,93
 163.01953125 600 163.01953125 600 202.290039062 651.5 c 128,-1,94
 241.559570312 703 241.559570312 703 289.740234375 730.5 c 128,-1,95
 337.919921875 758 337.919921875 758 392.040039062 758 c 0,96,97
 419.099609375 758 419.099609375 758 447.150390625 745.5 c 128,-1,98
 475.200195312 733 475.200195312 733 493.6796875 710 c 0,99,100
 496.98046875 705 496.98046875 705 501.599609375 711.5 c 128,-1,101
 506.219726562 718 506.219726562 718 511.5 728 c 128,-1,102
 516.780273438 738 516.780273438 738 523.049804688 747.5 c 128,-1,103
 529.3203125 757 529.3203125 757 534.599609375 757 c 0,0,1
EndSplineSet
Substitution2: "'c2sc' Versalien in Kapit+AOQA-lchen in Lateinisch Nachschlagetabelle 0 Subtabelle" uni0262
EndChar

StartChar: H
Encoding: 72 72 57
Width: 542
Flags: W
LayerCount: 2
Fore
SplineSet
629.639648438 715 m 0,0,1
 627 709 627 709 619.080078125 707.5 c 128,-1,2
 611.16015625 706 611.16015625 706 601.259765625 704.5 c 128,-1,3
 591.360351562 703 591.360351562 703 581.790039062 700 c 128,-1,4
 572.219726562 697 572.219726562 697 566.280273438 688 c 0,5,6
 559.6796875 679 559.6796875 679 556.049804688 663.5 c 128,-1,7
 552.419921875 648 552.419921875 648 549.780273438 631 c 2,8,-1
 546.48046875 613 l 2,9,10
 526.6796875 484 526.6796875 484 506.879882812 357.5 c 128,-1,11
 487.080078125 231 487.080078125 231 467.940429688 102 c 0,12,13
 463.98046875 76 463.98046875 76 466.950195312 62.5 c 128,-1,14
 469.919921875 49 469.919921875 49 476.190429688 42.5 c 128,-1,15
 482.459960938 36 482.459960938 36 491.040039062 34 c 128,-1,16
 499.620117188 32 499.620117188 32 506.879882812 30 c 128,-1,17
 514.139648438 28 514.139648438 28 518.759765625 23.5 c 128,-1,18
 523.379882812 19 523.379882812 19 521.400390625 8 c 0,19,20
 519.419921875 -7 519.419921875 -7 512.490234375 -8 c 128,-1,21
 505.559570312 -9 505.559570312 -9 498.299804688 -9 c 0,22,23
 477.1796875 -9 477.1796875 -9 456.389648438 -6 c 128,-1,24
 435.599609375 -3 435.599609375 -3 415.139648438 -3 c 0,25,26
 394.6796875 -3 394.6796875 -3 374.219726562 -6 c 128,-1,27
 353.759765625 -9 353.759765625 -9 333.299804688 -9 c 0,28,29
 320.099609375 -9 320.099609375 -9 322.080078125 7 c 0,30,31
 324.059570312 22 324.059570312 22 331.3203125 25.5 c 128,-1,32
 338.580078125 29 338.580078125 29 347.8203125 29 c 256,33,34
 357.059570312 29 357.059570312 29 367.950195312 31.5 c 128,-1,35
 378.83984375 34 378.83984375 34 388.740234375 48 c 256,36,37
 397.3203125 62 397.3203125 62 402.26953125 83.5 c 128,-1,38
 407.219726562 105 407.219726562 105 410.51953125 123 c 2,39,-1
 438.900390625 309 l 2,40,41
 440.879882812 324 440.879882812 324 438.240234375 331 c 128,-1,42
 435.599609375 338 435.599609375 338 430.3203125 340 c 128,-1,43
 425.040039062 342 425.040039062 342 418.440429688 341.5 c 128,-1,44
 411.83984375 341 411.83984375 341 405.900390625 341 c 2,45,-1
 252.780273438 341 l 2,46,47
 245.51953125 341 245.51953125 341 236.610351562 341.5 c 128,-1,48
 227.700195312 342 227.700195312 342 220.110351562 339.5 c 128,-1,49
 212.51953125 337 212.51953125 337 206.580078125 330.5 c 128,-1,50
 200.639648438 324 200.639648438 324 198.66015625 308 c 2,51,-1
 168.299804688 108 l 2,52,53
 165 88 165 88 164.669921875 84 c 128,-1,54
 164.33984375 80 164.33984375 80 164.33984375 77 c 0,55,56
 162.360351562 49 162.360351562 49 171.26953125 40.5 c 128,-1,57
 180.1796875 32 180.1796875 32 191.73046875 30 c 128,-1,58
 203.280273438 28 203.280273438 28 212.849609375 26.5 c 128,-1,59
 222.419921875 25 222.419921875 25 220.440429688 10 c 0,60,61
 218.459960938 -5 218.459960938 -5 211.200195312 -6.5 c 128,-1,62
 203.940429688 -8 203.940429688 -8 196.01953125 -8 c 0,63,64
 179.51953125 -8 179.51953125 -8 163.01953125 -5.5 c 128,-1,65
 146.51953125 -3 146.51953125 -3 130.6796875 -3 c 2,66,-1
 106.259765625 -3 l 2,67,68
 89.099609375 -3 89.099609375 -3 72.26953125 -6 c 128,-1,69
 55.4404296875 -9 55.4404296875 -9 38.9404296875 -9 c 0,70,71
 34.3203125 -9 34.3203125 -9 27.3896484375 -8 c 128,-1,72
 20.4599609375 -7 20.4599609375 -7 22.4404296875 4 c 0,73,74
 24.419921875 19 24.419921875 19 34.98046875 23 c 128,-1,75
 45.5400390625 27 45.5400390625 27 57.419921875 30 c 128,-1,76
 69.2998046875 33 69.2998046875 33 81.83984375 42.5 c 128,-1,77
 94.3798828125 52 94.3798828125 52 101.639648438 80 c 0,78,79
 106.919921875 103 106.919921875 103 110.879882812 126.5 c 128,-1,80
 114.83984375 150 114.83984375 150 118.139648438 172 c 2,81,-1
 186.780273438 622 l 2,82,83
 191.400390625 653 191.400390625 653 189.419921875 669 c 128,-1,84
 187.440429688 685 187.440429688 685 180.83984375 692.5 c 128,-1,85
 174.240234375 700 174.240234375 700 166.3203125 702.5 c 128,-1,86
 158.400390625 705 158.400390625 705 151.139648438 706.5 c 128,-1,87
 143.879882812 708 143.879882812 708 139.58984375 711.5 c 128,-1,88
 135.299804688 715 135.299804688 715 137.280273438 727 c 0,89,90
 138.599609375 736 138.599609375 736 144.870117188 738.5 c 128,-1,91
 151.139648438 741 151.139648438 741 157.740234375 741 c 2,92,-1
 165 741 l 2,93,94
 181.5 741 181.5 741 197.009765625 739.5 c 128,-1,95
 212.51953125 738 212.51953125 738 228.360351562 738 c 0,96,97
 250.799804688 738 250.799804688 738 274.23046875 739 c 128,-1,98
 297.66015625 740 297.66015625 740 319.440429688 740 c 0,99,100
 323.400390625 740 323.400390625 740 326.700195312 737 c 128,-1,101
 330 734 330 734 329.33984375 727 c 0,102,103
 326.040039062 707 326.040039062 707 315.48046875 704 c 128,-1,104
 304.919921875 701 304.919921875 701 292.379882812 701 c 0,105,106
 286.440429688 701 286.440429688 701 280.5 699 c 128,-1,107
 274.559570312 697 274.559570312 697 268.620117188 691.5 c 128,-1,108
 262.6796875 686 262.6796875 686 258.389648438 675.5 c 128,-1,109
 254.099609375 665 254.099609375 665 251.459960938 647 c 0,110,111
 249.48046875 633 249.48046875 633 247.169921875 618.5 c 128,-1,112
 244.860351562 604 244.860351562 604 242.219726562 590 c 2,113,-1
 215.8203125 416 l 2,114,115
 211.860351562 387 211.860351562 387 227.700195312 387 c 0,116,117
 254.099609375 387 254.099609375 387 274.23046875 386.5 c 128,-1,118
 294.360351562 386 294.360351562 386 314.16015625 386 c 256,119,120
 333.959960938 386 333.959960938 386 354.08984375 385.5 c 128,-1,121
 374.219726562 385 374.219726562 385 400.620117188 385 c 0,122,123
 406.559570312 385 406.559570312 385 414.48046875 384.5 c 128,-1,124
 422.400390625 384 422.400390625 384 430.3203125 384.5 c 128,-1,125
 438.240234375 385 438.240234375 385 443.849609375 387.5 c 128,-1,126
 449.459960938 390 449.459960938 390 451.440429688 396 c 0,127,128
 452.759765625 399 452.759765625 399 455.400390625 415 c 128,-1,129
 458.040039062 431 458.040039062 431 461.33984375 454 c 0,130,131
 464.639648438 478 464.639648438 478 469.259765625 503.5 c 128,-1,132
 473.879882812 529 473.879882812 529 477.1796875 553 c 2,133,-1
 487.080078125 620 l 2,134,135
 488.400390625 627 488.400390625 627 489.389648438 636.5 c 128,-1,136
 490.379882812 646 490.379882812 646 491.040039062 656 c 128,-1,137
 491.700195312 666 491.700195312 666 491.040039062 674.5 c 128,-1,138
 490.379882812 683 490.379882812 683 487.740234375 688 c 0,139,140
 484.440429688 692 484.440429688 692 479.490234375 694.5 c 128,-1,141
 474.540039062 697 474.540039062 697 467.940429688 698 c 128,-1,142
 461.33984375 699 461.33984375 699 456.719726562 700.5 c 128,-1,143
 452.099609375 702 452.099609375 702 450.780273438 706 c 0,144,145
 444.83984375 706 444.83984375 706 441.209960938 708 c 128,-1,146
 437.580078125 710 437.580078125 710 438.900390625 722 c 0,147,148
 440.219726562 730 440.219726562 730 443.190429688 733.5 c 128,-1,149
 446.16015625 737 446.16015625 737 450.780273438 738.5 c 128,-1,150
 455.400390625 740 455.400390625 740 460.349609375 739.5 c 128,-1,151
 465.299804688 739 465.299804688 739 469.919921875 739 c 0,152,153
 486.419921875 739 486.419921875 739 501.599609375 736.5 c 128,-1,154
 516.780273438 734 516.780273438 734 532.620117188 734 c 0,155,156
 552.419921875 734 552.419921875 734 571.889648438 736 c 128,-1,157
 591.360351562 738 591.360351562 738 611.16015625 738 c 0,158,159
 625.6796875 738 625.6796875 738 628.650390625 734 c 128,-1,160
 631.620117188 730 631.620117188 730 629.639648438 715 c 0,0,1
EndSplineSet
Substitution2: "'c2sc' Versalien in Kapit+AOQA-lchen in Lateinisch Nachschlagetabelle 0 Subtabelle" uni029C
EndChar

StartChar: I
Encoding: 73 73 58
Width: 236
Flags: W
LayerCount: 2
Fore
SplineSet
326.700195312 723 m 0,0,1
 324.719726562 709 324.719726562 709 317.459960938 705.5 c 128,-1,2
 310.200195312 702 310.200195312 702 301.620117188 702 c 0,3,4
 284.459960938 702 284.459960938 702 274.23046875 698 c 128,-1,5
 264 694 264 694 258.389648438 685 c 128,-1,6
 252.780273438 676 252.780273438 676 250.139648438 662.5 c 128,-1,7
 247.5 649 247.5 649 244.860351562 631 c 0,8,9
 234.959960938 566 234.959960938 566 224.400390625 502.5 c 128,-1,10
 213.83984375 439 213.83984375 439 203.280273438 375 c 2,11,-1
 164.33984375 114 l 2,12,13
 161.700195312 98 161.700195312 98 160.049804688 77 c 128,-1,14
 158.400390625 56 158.400390625 56 164.33984375 45 c 0,15,16
 168.959960938 37 168.959960938 37 178.200195312 34 c 128,-1,17
 187.440429688 31 187.440429688 31 196.01953125 28.5 c 128,-1,18
 204.599609375 26 204.599609375 26 211.200195312 22.5 c 128,-1,19
 217.799804688 19 217.799804688 19 216.48046875 10 c 0,20,21
 214.5 -5 214.5 -5 204.9296875 -6.5 c 128,-1,22
 195.360351562 -8 195.360351562 -8 186.120117188 -8 c 0,23,24
 168.299804688 -8 168.299804688 -8 151.139648438 -5 c 128,-1,25
 133.98046875 -2 133.98046875 -2 116.16015625 -2 c 0,26,27
 97.01953125 -2 97.01953125 -2 81.509765625 -5.5 c 128,-1,28
 66 -9 66 -9 47.51953125 -9 c 2,29,-1
 38.2802734375 -9 l 2,30,31
 32.33984375 -9 32.33984375 -9 26.73046875 -5.5 c 128,-1,32
 21.1201171875 -2 21.1201171875 -2 23.099609375 10 c 0,33,34
 24.419921875 19 24.419921875 19 31.01953125 23 c 128,-1,35
 37.6201171875 27 37.6201171875 27 46.8603515625 29.5 c 128,-1,36
 56.099609375 32 56.099609375 32 66 35.5 c 128,-1,37
 75.900390625 39 75.900390625 39 83.8203125 48 c 0,38,39
 91.080078125 56 91.080078125 56 96.0302734375 77 c 128,-1,40
 100.98046875 98 100.98046875 98 103.620117188 118 c 2,41,-1
 106.919921875 139 l 1,42,-1
 162.360351562 498 l 2,43,44
 166.3203125 525 166.3203125 525 170.280273438 550 c 128,-1,45
 174.240234375 575 174.240234375 575 178.200195312 601 c 2,46,-1
 180.83984375 621 l 2,47,48
 183.48046875 638 183.48046875 638 185.129882812 658.5 c 128,-1,49
 186.780273438 679 186.780273438 679 184.139648438 687 c 0,50,51
 178.860351562 698 178.860351562 698 169.950195312 700.5 c 128,-1,52
 161.040039062 703 161.040039062 703 152.129882812 704.5 c 128,-1,53
 143.219726562 706 143.219726562 706 137.940429688 710 c 128,-1,54
 132.66015625 714 132.66015625 714 135.299804688 728 c 0,55,56
 136.620117188 738 136.620117188 738 142.559570312 739.5 c 128,-1,57
 148.5 741 148.5 741 153.780273438 741 c 2,58,-1
 161.040039062 741 l 2,59,60
 179.51953125 741 179.51953125 741 197.669921875 738 c 128,-1,61
 215.8203125 735 215.8203125 735 232.98046875 735 c 0,62,63
 241.559570312 735 241.559570312 735 251.459960938 736.5 c 128,-1,64
 261.360351562 738 261.360351562 738 270.599609375 738 c 2,65,-1
 325.379882812 738 l 2,66,67
 326.040039062 736 326.040039062 736 326.700195312 731 c 128,-1,68
 327.360351562 726 327.360351562 726 326.700195312 723 c 0,0,1
EndSplineSet
Substitution2: "'c2sc' Versalien in Kapit+AOQA-lchen in Lateinisch Nachschlagetabelle 0 Subtabelle" uni026A
EndChar

StartChar: J
Encoding: 74 74 59
Width: 223
Flags: W
LayerCount: 2
Fore
SplineSet
320.099609375 721 m 0,0,1
 319.440429688 716 319.440429688 716 315.150390625 711.5 c 128,-1,2
 310.860351562 707 310.860351562 707 298.3203125 705 c 0,3,4
 271.919921875 706 271.919921875 706 259.709960938 687.5 c 128,-1,5
 247.5 669 247.5 669 241.559570312 626 c 0,6,7
 239.580078125 615 239.580078125 615 237.9296875 604 c 128,-1,8
 236.280273438 593 236.280273438 593 234.959960938 582 c 0,9,10
 216.48046875 464 216.48046875 464 198.66015625 348.5 c 128,-1,11
 180.83984375 233 180.83984375 233 163.6796875 116 c 0,12,13
 155.099609375 59 155.099609375 59 139.58984375 -1 c 128,-1,14
 124.080078125 -61 124.080078125 -61 101.639648438 -113 c 128,-1,15
 79.2001953125 -165 79.2001953125 -165 47.849609375 -203 c 128,-1,16
 16.5 -241 16.5 -241 -25.740234375 -255 c 0,17,18
 -29.7001953125 -256 -29.7001953125 -256 -31.01953125 -251 c 128,-1,19
 -32.33984375 -246 -32.33984375 -246 -31.6796875 -239 c 256,20,21
 -30.3603515625 -232 -30.3603515625 -232 -27.3896484375 -225 c 128,-1,22
 -24.419921875 -218 -24.419921875 -218 -20.4599609375 -217 c 0,23,24
 -1.98046875 -214 -1.98046875 -214 13.2001953125 -192.5 c 128,-1,25
 28.3798828125 -171 28.3798828125 -171 41.25 -139.5 c 128,-1,26
 54.1201171875 -108 54.1201171875 -108 64.01953125 -70 c 128,-1,27
 73.919921875 -32 73.919921875 -32 81.1796875 5 c 128,-1,28
 88.4404296875 42 88.4404296875 42 94.0498046875 72.5 c 128,-1,29
 99.66015625 103 99.66015625 103 102.959960938 121 c 0,30,31
 112.860351562 182 112.860351562 182 122.4296875 243.5 c 128,-1,32
 132 305 132 305 141.240234375 367 c 2,33,-1
 178.860351562 616 l 2,34,35
 182.16015625 640 182.16015625 640 184.799804688 665 c 0,36,37
 186.780273438 689 186.780273438 689 176.879882812 694.5 c 128,-1,38
 166.98046875 700 166.98046875 700 154.110351562 701 c 128,-1,39
 141.240234375 702 141.240234375 702 131.009765625 705 c 128,-1,40
 120.780273438 708 120.780273438 708 123.419921875 724 c 0,41,42
 124.740234375 732 124.740234375 732 129.360351562 736 c 128,-1,43
 133.98046875 740 133.98046875 740 138.599609375 740 c 0,44,45
 167.639648438 740 167.639648438 740 195.690429688 737 c 128,-1,46
 223.740234375 734 223.740234375 734 252.780273438 734 c 0,47,48
 265.98046875 734 265.98046875 734 280.169921875 736.5 c 128,-1,49
 294.360351562 739 294.360351562 739 308.879882812 739 c 0,50,51
 313.5 739 313.5 739 317.459960938 735 c 128,-1,52
 321.419921875 731 321.419921875 731 320.099609375 721 c 0,0,1
EndSplineSet
Substitution2: "'c2sc' Versalien in Kapit+AOQA-lchen in Lateinisch Nachschlagetabelle 0 Subtabelle" uni1D0A
EndChar

